G04 PROTEUS GERBER X2 FILE*
%TF.GenerationSoftware,Labcenter,Proteus,8.9-SP0-Build27865*%
%TF.CreationDate,2021-06-19T08:02:23+00:00*%
%TF.FileFunction,Soldermask,Bot*%
%TF.FilePolarity,Negative*%
%TF.Part,Single*%
%TF.SameCoordinates,{64bffbd5-d61a-4640-9b31-8bd0ff2465da}*%
%FSLAX45Y45*%
%MOMM*%
G01*
%TA.AperFunction,Material*%
%ADD28C,1.270000*%
%AMPPAD021*
4,1,36,
-0.457200,1.016000,
0.457200,1.016000,
0.519520,1.009940,
0.577160,0.992490,
0.628980,0.964770,
0.673890,0.927890,
0.710760,0.882980,
0.738480,0.831160,
0.755930,0.773520,
0.762000,0.711200,
0.762000,-0.711200,
0.755930,-0.773520,
0.738480,-0.831160,
0.710760,-0.882980,
0.673890,-0.927890,
0.628980,-0.964770,
0.577160,-0.992490,
0.519520,-1.009940,
0.457200,-1.016000,
-0.457200,-1.016000,
-0.519520,-1.009940,
-0.577160,-0.992490,
-0.628980,-0.964770,
-0.673890,-0.927890,
-0.710760,-0.882980,
-0.738480,-0.831160,
-0.755930,-0.773520,
-0.762000,-0.711200,
-0.762000,0.711200,
-0.755930,0.773520,
-0.738480,0.831160,
-0.710760,0.882980,
-0.673890,0.927890,
-0.628980,0.964770,
-0.577160,0.992490,
-0.519520,1.009940,
-0.457200,1.016000,
0*%
%TA.AperFunction,Material*%
%ADD29PPAD021*%
%AMPPAD022*
4,1,8,
-0.509800,1.397000,
0.509800,1.397000,
0.889000,1.017800,
0.889000,-1.017800,
0.509800,-1.397000,
-0.509800,-1.397000,
-0.889000,-1.017800,
-0.889000,1.017800,
-0.509800,1.397000,
0*%
%TA.AperFunction,Material*%
%ADD72PPAD022*%
%ADD73C,2.286000*%
%AMPPAD024*
4,1,8,
1.397000,0.509800,
1.397000,-0.509800,
1.017800,-0.889000,
-1.017800,-0.889000,
-1.397000,-0.509800,
-1.397000,0.509800,
-1.017800,0.889000,
1.017800,0.889000,
1.397000,0.509800,
0*%
%ADD30PPAD024*%
%TA.AperFunction,Material*%
%ADD31C,3.302000*%
%TA.AperFunction,Material*%
%ADD32C,2.032000*%
%AMPPAD027*
4,1,36,
1.016000,-1.143000,
-1.016000,-1.143000,
-1.041970,-1.140470,
-1.065980,-1.133200,
-1.087580,-1.121650,
-1.106290,-1.106290,
-1.121650,-1.087570,
-1.133200,-1.065980,
-1.140470,-1.041970,
-1.143000,-1.016000,
-1.143000,1.016000,
-1.140470,1.041970,
-1.133200,1.065980,
-1.121650,1.087570,
-1.106290,1.106290,
-1.087580,1.121650,
-1.065980,1.133200,
-1.041970,1.140470,
-1.016000,1.143000,
1.016000,1.143000,
1.041970,1.140470,
1.065980,1.133200,
1.087580,1.121650,
1.106290,1.106290,
1.121650,1.087570,
1.133200,1.065980,
1.140470,1.041970,
1.143000,1.016000,
1.143000,-1.016000,
1.140470,-1.041970,
1.133200,-1.065980,
1.121650,-1.087570,
1.106290,-1.106290,
1.087580,-1.121650,
1.065980,-1.133200,
1.041970,-1.140470,
1.016000,-1.143000,
0*%
%TA.AperFunction,Material*%
%ADD33PPAD027*%
%TA.AperFunction,Material*%
%ADD34C,5.334000*%
%ADD35C,4.318000*%
%TA.AperFunction,Material*%
%ADD36C,2.794000*%
%AMPPAD031*
4,1,36,
-1.143000,-1.016000,
-1.143000,1.016000,
-1.140470,1.041970,
-1.133200,1.065980,
-1.121650,1.087580,
-1.106290,1.106290,
-1.087570,1.121650,
-1.065980,1.133200,
-1.041970,1.140470,
-1.016000,1.143000,
1.016000,1.143000,
1.041970,1.140470,
1.065980,1.133200,
1.087570,1.121650,
1.106290,1.106290,
1.121650,1.087580,
1.133200,1.065980,
1.140470,1.041970,
1.143000,1.016000,
1.143000,-1.016000,
1.140470,-1.041970,
1.133200,-1.065980,
1.121650,-1.087580,
1.106290,-1.106290,
1.087570,-1.121650,
1.065980,-1.133200,
1.041970,-1.140470,
1.016000,-1.143000,
-1.016000,-1.143000,
-1.041970,-1.140470,
-1.065980,-1.133200,
-1.087570,-1.121650,
-1.106290,-1.106290,
-1.121650,-1.087580,
-1.133200,-1.065980,
-1.140470,-1.041970,
-1.143000,-1.016000,
0*%
%TA.AperFunction,Material*%
%ADD37PPAD031*%
%ADD38C,2.540000*%
%TA.AperFunction,Material*%
%ADD39C,1.778000*%
%TA.AperFunction,Profile*%
%ADD23C,0.203200*%
%TD.AperFunction*%
D28*
X-4813300Y+1689100D03*
X-635000Y-1701800D03*
X+2946400Y-228600D03*
X+2336800Y-2197100D03*
X-990600Y-2197100D03*
X-990600Y-596900D03*
X-5549900Y+38100D03*
X+1905000Y+38100D03*
X-5803900Y-901700D03*
X+2159000Y-1308100D03*
X-3187700Y+685800D03*
X-4457700Y+685800D03*
X-2006600Y+3225800D03*
X+1905000Y+3517900D03*
X+1143000Y-3048000D03*
X+4127500Y+1955800D03*
X+4127500Y+406400D03*
X-1003300Y+2755900D03*
X-1562100Y+2578100D03*
X+5118100Y+2387600D03*
X+1841500Y+939800D03*
D29*
X+2413000Y-2417000D03*
X+2413000Y-2671000D03*
X+2159000Y-2417000D03*
X+2159000Y-2671000D03*
X+1905000Y-2417000D03*
X+1905000Y-2671000D03*
X+1651000Y-2417000D03*
X+1651000Y-2671000D03*
X+1397000Y-2417000D03*
X+1397000Y-2671000D03*
X+1143000Y-2417000D03*
X+1143000Y-2671000D03*
X+889000Y-2417000D03*
X+889000Y-2671000D03*
X+635000Y-2417000D03*
X+635000Y-2671000D03*
X+381000Y-2417000D03*
X+381000Y-2671000D03*
X+127000Y-2417000D03*
X+127000Y-2671000D03*
X-127000Y-2417000D03*
X-127000Y-2671000D03*
X-381000Y-2417000D03*
X-381000Y-2671000D03*
X-635000Y-2417000D03*
X-635000Y-2671000D03*
X-889000Y-2417000D03*
X-889000Y-2671000D03*
X-1143000Y-2417000D03*
X-1143000Y-2671000D03*
X-1397000Y-2417000D03*
X-1397000Y-2671000D03*
X-1651000Y-2417000D03*
X-1651000Y-2671000D03*
X-1905000Y-2417000D03*
X-1905000Y-2671000D03*
X-2159000Y-2417000D03*
X-2159000Y-2671000D03*
X-2413000Y-2417000D03*
X-2413000Y-2671000D03*
D72*
X+800000Y+650000D03*
D73*
X+546000Y+650000D03*
X+292000Y+650000D03*
D30*
X+1350000Y+1758000D03*
D73*
X+1350000Y+1504000D03*
X+1350000Y+1250000D03*
D72*
X-808000Y+2350000D03*
D73*
X-554000Y+2350000D03*
X-300000Y+2350000D03*
D72*
X-300000Y+650000D03*
D73*
X-554000Y+650000D03*
X-808000Y+650000D03*
D30*
X-1350000Y+1246000D03*
D73*
X-1350000Y+1500000D03*
X-1350000Y+1754000D03*
D72*
X+300000Y+2350000D03*
D73*
X+554000Y+2350000D03*
X+808000Y+2350000D03*
D72*
X-808000Y+3300000D03*
D73*
X-554000Y+3300000D03*
X-300000Y+3300000D03*
D31*
X-6000000Y-6000000D03*
X-6508000Y-6000000D03*
X-4492000Y-6000000D03*
X-5000000Y-6000000D03*
D30*
X+4900000Y-286000D03*
X+4900000Y-32000D03*
X+4900000Y+222000D03*
X+4900000Y+476000D03*
X+4900000Y+730000D03*
X+4900000Y+984000D03*
X+4900000Y+1238000D03*
X+4900000Y+1492000D03*
X+4900000Y+1746000D03*
X+4900000Y+2000000D03*
X+4900000Y-1556000D03*
X+4900000Y-1302000D03*
X+4900000Y-1048000D03*
X+4900000Y-794000D03*
X+4900000Y-540000D03*
X+6424000Y-1556000D03*
X+6424000Y-1302000D03*
X+6424000Y-1048000D03*
X+6424000Y-794000D03*
X+6424000Y-540000D03*
X+6424000Y-286000D03*
X+6424000Y-32000D03*
X+6424000Y+222000D03*
X+6424000Y+476000D03*
X+6424000Y+730000D03*
X+6424000Y+984000D03*
X+6424000Y+1238000D03*
X+6424000Y+1492000D03*
X+6424000Y+1746000D03*
X+6424000Y+2000000D03*
D32*
X+5408000Y-1683000D03*
X+5662000Y-1683000D03*
X+5916000Y-1683000D03*
X+5916000Y-1429000D03*
X+5662000Y-1429000D03*
X+5408000Y-1429000D03*
D33*
X-4838000Y+3400000D03*
X-5092000Y+3400000D03*
X-5346000Y+3400000D03*
X-5600000Y+3400000D03*
X-5854000Y+3400000D03*
X-6108000Y+3400000D03*
X-4838000Y+2400000D03*
X-5092000Y+2400000D03*
X-5346000Y+2400000D03*
X-5600000Y+2400000D03*
X-5854000Y+2400000D03*
X-6108000Y+2400000D03*
D34*
X-6208000Y-4900000D03*
X-6208000Y-2790000D03*
X-4800000Y-4900000D03*
X-4800000Y-2790000D03*
D35*
X-900000Y-250000D03*
X+850000Y-250000D03*
D33*
X-5076000Y-414000D03*
X-5330000Y-414000D03*
X-6130000Y-414000D03*
X-6384000Y-414000D03*
X-5076000Y+1486000D03*
X-5330000Y+1486000D03*
X-6130000Y+1486000D03*
X-6384000Y+1486000D03*
D31*
X-7300000Y-5086000D03*
X-7300000Y-2800000D03*
X-4200000Y-600000D03*
X-4200000Y+1686000D03*
X-7300000Y-600000D03*
X-7300000Y+1686000D03*
D72*
X+296000Y+3300000D03*
D73*
X+550000Y+3300000D03*
X+804000Y+3300000D03*
D31*
X-7300000Y-1600000D03*
X-7300000Y-2108000D03*
D72*
X-4552000Y+4900000D03*
X-4806000Y+4900000D03*
X-5060000Y+4900000D03*
X-5314000Y+4900000D03*
X-5568000Y+4900000D03*
X-5822000Y+4900000D03*
X-6076000Y+4900000D03*
X-6330000Y+4900000D03*
X-6584000Y+4900000D03*
X-6838000Y+4900000D03*
X-6838000Y+4138000D03*
X-6584000Y+4138000D03*
X-6330000Y+4138000D03*
X-6076000Y+4138000D03*
X-5822000Y+4138000D03*
X-5568000Y+4138000D03*
X-5314000Y+4138000D03*
X-5060000Y+4138000D03*
X-4806000Y+4138000D03*
X-4552000Y+4138000D03*
D36*
X+6300000Y-4400000D03*
X+7500000Y-4400000D03*
X+6900000Y-4800000D03*
X+7500000Y-3000000D03*
X+6300000Y-3000000D03*
D73*
X+6000000Y+4300000D03*
X+7016000Y+4300000D03*
D30*
X+4700000Y-3500000D03*
X+4700000Y-3754000D03*
X+5462000Y-3754000D03*
X+5462000Y-3500000D03*
D37*
X-4300000Y-1354000D03*
X-4300000Y-1100000D03*
X-5200000Y-1354000D03*
X-5200000Y-1100000D03*
X-6000000Y-1354000D03*
X-6000000Y-1100000D03*
D31*
X+5300000Y-6000000D03*
X+4792000Y-6000000D03*
D73*
X-6679882Y-2408000D03*
X-5800000Y-1900000D03*
X-5879882Y-2408000D03*
X-5000000Y-1900000D03*
X+4584000Y-2900000D03*
X+5600000Y-2900000D03*
X-4979882Y-2408000D03*
X-4100000Y-1900000D03*
X-6700000Y+3400000D03*
X-6700000Y+2384000D03*
D33*
X+5200000Y-4300000D03*
X+4946000Y-4300000D03*
D73*
X+3311592Y+3930592D03*
X+3491197Y+4110197D03*
X+3670802Y+4289802D03*
X+3850407Y+4469408D03*
X+6200000Y+5100000D03*
X+6454000Y+5100000D03*
X+6708000Y+5100000D03*
X+5584000Y-5000000D03*
X+4568000Y-5000000D03*
D38*
X+6200000Y-6350000D03*
X+6200000Y-5334000D03*
X+6800000Y-6350000D03*
X+6800000Y-5334000D03*
D73*
X+4800000Y+5100000D03*
X+5054000Y+5100000D03*
X+5308000Y+5100000D03*
D39*
X+4400000Y-1556000D03*
X+4400000Y-1302000D03*
X+4400000Y-1048000D03*
X+4400000Y-794000D03*
X+4400000Y-540000D03*
X+4400000Y-286000D03*
X+4400000Y-32000D03*
X+4400000Y+222000D03*
X+4400000Y+476000D03*
X+4400000Y+730000D03*
X+4400000Y+984000D03*
X+4400000Y+1238000D03*
X+4400000Y+1492000D03*
X+4400000Y+1746000D03*
X+4400000Y+2000000D03*
X+6900000Y-1556000D03*
X+6900000Y-1302000D03*
X+6900000Y-1048000D03*
X+6900000Y-794000D03*
X+6900000Y-540000D03*
X+6900000Y-286000D03*
X+6900000Y-32000D03*
X+6900000Y+222000D03*
X+6900000Y+476000D03*
X+6900000Y+730000D03*
X+6900000Y+984000D03*
X+6900000Y+1238000D03*
X+6900000Y+1492000D03*
X+6900000Y+1746000D03*
X+6900000Y+2000000D03*
D31*
X+7200000Y+3100000D03*
X+7200000Y+3608000D03*
D37*
X-7604000Y+3712000D03*
X-7604000Y+3458000D03*
X-7604000Y+3204000D03*
X-7604000Y+2950000D03*
X-7604000Y+2696000D03*
X-7350000Y+2696000D03*
X-7350000Y+2950000D03*
X-7350000Y+3204000D03*
X-7350000Y+3458000D03*
X-7350000Y+3712000D03*
D73*
X+2750000Y+1754000D03*
X+2750000Y+1500000D03*
X+2750000Y+1246000D03*
X-3729605Y+4329605D03*
X-3550000Y+4150000D03*
X-3370394Y+3970394D03*
D29*
X-2354000Y+1150000D03*
X-2100000Y+1150000D03*
X-2100000Y+1912000D03*
X-2354000Y+1912000D03*
D23*
X-2323896Y+3403910D02*
X-2324397Y+3416146D01*
X-2328466Y+3440620D01*
X-2336967Y+3465094D01*
X-2350817Y+3489568D01*
X-2372007Y+3513878D01*
X-2396481Y+3532238D01*
X-2420955Y+3544072D01*
X-2445429Y+3550963D01*
X-2469903Y+3553597D01*
X-2473629Y+3553643D01*
X-2623362Y+3403910D02*
X-2622861Y+3416146D01*
X-2618792Y+3440620D01*
X-2610291Y+3465094D01*
X-2596441Y+3489568D01*
X-2575251Y+3513878D01*
X-2550777Y+3532238D01*
X-2526303Y+3544072D01*
X-2501829Y+3550963D01*
X-2477355Y+3553597D01*
X-2473629Y+3553643D01*
X-2623362Y+3403910D02*
X-2622861Y+3391674D01*
X-2618792Y+3367200D01*
X-2610291Y+3342726D01*
X-2596441Y+3318252D01*
X-2575251Y+3293942D01*
X-2550777Y+3275582D01*
X-2526303Y+3263748D01*
X-2501829Y+3256857D01*
X-2477355Y+3254223D01*
X-2473629Y+3254177D01*
X-2323896Y+3403910D02*
X-2324397Y+3391674D01*
X-2328466Y+3367200D01*
X-2336967Y+3342726D01*
X-2350817Y+3318252D01*
X-2372007Y+3293942D01*
X-2396481Y+3275582D01*
X-2420955Y+3263748D01*
X-2445429Y+3256857D01*
X-2469903Y+3254223D01*
X-2473629Y+3254177D01*
X+2623282Y+3403910D02*
X+2622781Y+3416146D01*
X+2618712Y+3440620D01*
X+2610211Y+3465094D01*
X+2596361Y+3489568D01*
X+2575171Y+3513878D01*
X+2550697Y+3532238D01*
X+2526223Y+3544072D01*
X+2501749Y+3550963D01*
X+2477275Y+3553597D01*
X+2473549Y+3553643D01*
X+2323816Y+3403910D02*
X+2324317Y+3416146D01*
X+2328386Y+3440620D01*
X+2336887Y+3465094D01*
X+2350737Y+3489568D01*
X+2371927Y+3513878D01*
X+2396401Y+3532238D01*
X+2420875Y+3544072D01*
X+2445349Y+3550963D01*
X+2469823Y+3553597D01*
X+2473549Y+3553643D01*
X+2323816Y+3403910D02*
X+2324317Y+3391674D01*
X+2328386Y+3367200D01*
X+2336887Y+3342726D01*
X+2350737Y+3318252D01*
X+2371927Y+3293942D01*
X+2396401Y+3275582D01*
X+2420875Y+3263748D01*
X+2445349Y+3256857D01*
X+2469823Y+3254223D01*
X+2473549Y+3254177D01*
X+2623282Y+3403910D02*
X+2622781Y+3391674D01*
X+2618712Y+3367200D01*
X+2610211Y+3342726D01*
X+2596361Y+3318252D01*
X+2575171Y+3293942D01*
X+2550697Y+3275582D01*
X+2526223Y+3263748D01*
X+2501749Y+3256857D01*
X+2477275Y+3254223D01*
X+2473549Y+3254177D01*
X+2623282Y+3403910D02*
X+2622781Y+3416146D01*
X+2618712Y+3440620D01*
X+2610211Y+3465094D01*
X+2596361Y+3489568D01*
X+2575171Y+3513878D01*
X+2550697Y+3532238D01*
X+2526223Y+3544072D01*
X+2501749Y+3550963D01*
X+2477275Y+3553597D01*
X+2473549Y+3553643D01*
X+2323816Y+3403910D02*
X+2324317Y+3416146D01*
X+2328386Y+3440620D01*
X+2336887Y+3465094D01*
X+2350737Y+3489568D01*
X+2371927Y+3513878D01*
X+2396401Y+3532238D01*
X+2420875Y+3544072D01*
X+2445349Y+3550963D01*
X+2469823Y+3553597D01*
X+2473549Y+3553643D01*
X+2323816Y+3403910D02*
X+2324317Y+3391674D01*
X+2328386Y+3367200D01*
X+2336887Y+3342726D01*
X+2350737Y+3318252D01*
X+2371927Y+3293942D01*
X+2396401Y+3275582D01*
X+2420875Y+3263748D01*
X+2445349Y+3256857D01*
X+2469823Y+3254223D01*
X+2473549Y+3254177D01*
X+2623282Y+3403910D02*
X+2622781Y+3391674D01*
X+2618712Y+3367200D01*
X+2610211Y+3342726D01*
X+2596361Y+3318252D01*
X+2575171Y+3293942D01*
X+2550697Y+3275582D01*
X+2526223Y+3263748D01*
X+2501749Y+3256857D01*
X+2477275Y+3254223D01*
X+2473549Y+3254177D01*
X-2323896Y+3403910D02*
X-2324397Y+3416146D01*
X-2328466Y+3440620D01*
X-2336967Y+3465094D01*
X-2350817Y+3489568D01*
X-2372007Y+3513878D01*
X-2396481Y+3532238D01*
X-2420955Y+3544072D01*
X-2445429Y+3550963D01*
X-2469903Y+3553597D01*
X-2473629Y+3553643D01*
X-2623362Y+3403910D02*
X-2622861Y+3416146D01*
X-2618792Y+3440620D01*
X-2610291Y+3465094D01*
X-2596441Y+3489568D01*
X-2575251Y+3513878D01*
X-2550777Y+3532238D01*
X-2526303Y+3544072D01*
X-2501829Y+3550963D01*
X-2477355Y+3553597D01*
X-2473629Y+3553643D01*
X-2623362Y+3403910D02*
X-2622861Y+3391674D01*
X-2618792Y+3367200D01*
X-2610291Y+3342726D01*
X-2596441Y+3318252D01*
X-2575251Y+3293942D01*
X-2550777Y+3275582D01*
X-2526303Y+3263748D01*
X-2501829Y+3256857D01*
X-2477355Y+3254223D01*
X-2473629Y+3254177D01*
X-2323896Y+3403910D02*
X-2324397Y+3391674D01*
X-2328466Y+3367200D01*
X-2336967Y+3342726D01*
X-2350817Y+3318252D01*
X-2372007Y+3293942D01*
X-2396481Y+3275582D01*
X-2420955Y+3263748D01*
X-2445429Y+3256857D01*
X-2469903Y+3254223D01*
X-2473629Y+3254177D01*
X-7133766Y-6594814D02*
X-7839614Y-5888966D01*
X-7985800Y-5536042D02*
X-7983275Y-5587910D01*
X-7975839Y-5638064D01*
X-7963697Y-5686255D01*
X-7947056Y-5732230D01*
X-7926121Y-5775740D01*
X-7901098Y-5816533D01*
X-7872194Y-5854359D01*
X-7839614Y-5888966D01*
X-7985800Y-5536042D02*
X-7985800Y+4531792D01*
X-7983275Y+4583660D01*
X-7975839Y+4633814D01*
X-7963697Y+4682005D01*
X-7947056Y+4727980D01*
X-7926121Y+4771490D01*
X-7901098Y+4812283D01*
X-7872194Y+4850109D01*
X-7839614Y+4884716D01*
X-7839610Y+4884720D02*
X-7133770Y+5590560D01*
X-7133766Y+5590564D02*
X-7099159Y+5623144D01*
X-7061333Y+5652048D01*
X-7020540Y+5677070D01*
X-6977030Y+5698006D01*
X-6931055Y+5714647D01*
X-6882864Y+5726789D01*
X-6832710Y+5734225D01*
X-6780842Y+5736750D01*
X-4449213Y+5736750D01*
X-4096289Y+5590564D02*
X-4130896Y+5623144D01*
X-4168722Y+5652048D01*
X-4209515Y+5677070D01*
X-4253025Y+5698006D01*
X-4299001Y+5714647D01*
X-4347191Y+5726789D01*
X-4397346Y+5734225D01*
X-4449213Y+5736750D01*
X-4096289Y+5590564D02*
X-3244255Y+4738530D01*
X-3244250Y+4738530D02*
X-2392220Y+3886500D01*
X-2392221Y+3886496D02*
X-2357614Y+3853916D01*
X-2319788Y+3825012D01*
X-2278995Y+3799990D01*
X-2235485Y+3779054D01*
X-2189510Y+3762413D01*
X-2141319Y+3750271D01*
X-2091165Y+3742835D01*
X-2039297Y+3740310D01*
X+2039217Y+3740310D01*
X+2392141Y+3886496D02*
X+2357534Y+3853916D01*
X+2319708Y+3825012D01*
X+2278915Y+3799990D01*
X+2235405Y+3779054D01*
X+2189429Y+3762413D01*
X+2141239Y+3750271D01*
X+2091084Y+3742835D01*
X+2039217Y+3740310D01*
X+2392141Y+3886496D02*
X+3244175Y+4738530D01*
X+4096209Y+5590564D01*
X+4130816Y+5623144D01*
X+4168642Y+5652048D01*
X+4209435Y+5677070D01*
X+4252945Y+5698006D01*
X+4298920Y+5714647D01*
X+4347111Y+5726789D01*
X+4397265Y+5734225D01*
X+4449133Y+5736750D01*
X+6780762Y+5736750D01*
X+7133686Y+5590564D02*
X+7099079Y+5623144D01*
X+7061253Y+5652048D01*
X+7020460Y+5677070D01*
X+6976950Y+5698006D01*
X+6930975Y+5714647D01*
X+6882784Y+5726789D01*
X+6832630Y+5734225D01*
X+6780762Y+5736750D01*
X+7133686Y+5590564D02*
X+7839534Y+4884716D01*
X+7985720Y+4531792D02*
X+7983195Y+4583660D01*
X+7975759Y+4633814D01*
X+7963617Y+4682005D01*
X+7946976Y+4727980D01*
X+7926041Y+4771490D01*
X+7901018Y+4812283D01*
X+7872114Y+4850109D01*
X+7839534Y+4884716D01*
X+7985720Y+4531792D02*
X+7985720Y-5536042D01*
X+7983195Y-5587910D01*
X+7975759Y-5638064D01*
X+7963617Y-5686255D01*
X+7946976Y-5732230D01*
X+7926041Y-5775740D01*
X+7901018Y-5816533D01*
X+7872114Y-5854359D01*
X+7839534Y-5888966D01*
X+7133686Y-6594814D01*
X+7099079Y-6627394D01*
X+7061253Y-6656298D01*
X+7020460Y-6681320D01*
X+6976950Y-6702256D01*
X+6930975Y-6718897D01*
X+6882784Y-6731039D01*
X+6832630Y-6738475D01*
X+6780762Y-6741000D01*
X+4449133Y-6741000D01*
X+4096209Y-6594814D02*
X+4130816Y-6627394D01*
X+4168642Y-6656298D01*
X+4209435Y-6681320D01*
X+4252945Y-6702256D01*
X+4298920Y-6718897D01*
X+4347111Y-6731039D01*
X+4397265Y-6738475D01*
X+4449133Y-6741000D01*
X+4096209Y-6594814D02*
X+3390361Y-5888966D01*
X+3244175Y-5536042D02*
X+3246700Y-5587910D01*
X+3254136Y-5638064D01*
X+3266278Y-5686255D01*
X+3282920Y-5732230D01*
X+3303855Y-5775740D01*
X+3328877Y-5816533D01*
X+3357781Y-5854359D01*
X+3390361Y-5888966D01*
X+3244175Y-5536042D02*
X+3244175Y-4851476D01*
X+3241650Y-4799608D01*
X+3234214Y-4749454D01*
X+3222072Y-4701263D01*
X+3205430Y-4655288D01*
X+3184495Y-4611778D01*
X+3159473Y-4570985D01*
X+3130569Y-4533159D01*
X+3097989Y-4498552D01*
X+2392141Y-3792704D01*
X+2357534Y-3760124D01*
X+2319708Y-3731220D01*
X+2278915Y-3706198D01*
X+2235405Y-3685262D01*
X+2189429Y-3668621D01*
X+2141239Y-3656479D01*
X+2091084Y-3649043D01*
X+2039217Y-3646518D01*
X-2039297Y-3646518D01*
X-2392221Y-3792704D02*
X-2357614Y-3760124D01*
X-2319788Y-3731220D01*
X-2278995Y-3706198D01*
X-2235485Y-3685262D01*
X-2189510Y-3668621D01*
X-2141319Y-3656479D01*
X-2091165Y-3649043D01*
X-2039297Y-3646518D01*
X-2392221Y-3792704D02*
X-3098069Y-4498552D01*
X-3244255Y-4851476D02*
X-3241730Y-4799608D01*
X-3234294Y-4749454D01*
X-3222152Y-4701263D01*
X-3205510Y-4655288D01*
X-3184575Y-4611778D01*
X-3159553Y-4570985D01*
X-3130649Y-4533159D01*
X-3098069Y-4498552D01*
X-3244255Y-4851476D02*
X-3244255Y-5536042D01*
X-3246780Y-5587910D01*
X-3254216Y-5638064D01*
X-3266358Y-5686255D01*
X-3283000Y-5732230D01*
X-3303935Y-5775740D01*
X-3328957Y-5816533D01*
X-3357861Y-5854359D01*
X-3390441Y-5888966D01*
X-4096289Y-6594814D01*
X-4130896Y-6627394D01*
X-4168722Y-6656298D01*
X-4209515Y-6681320D01*
X-4253025Y-6702256D01*
X-4299001Y-6718897D01*
X-4347191Y-6731039D01*
X-4397346Y-6738475D01*
X-4449213Y-6741000D01*
X-6780842Y-6741000D01*
X-7133766Y-6594814D02*
X-7099159Y-6627394D01*
X-7061333Y-6656298D01*
X-7020540Y-6681320D01*
X-6977030Y-6702256D01*
X-6931055Y-6718897D01*
X-6882864Y-6731039D01*
X-6832710Y-6738475D01*
X-6780842Y-6741000D01*
X-3743365Y+3291111D02*
X-3744179Y+3311247D01*
X-3750787Y+3351520D01*
X-3764576Y+3391793D01*
X-3786985Y+3432066D01*
X-3821224Y+3472214D01*
X-3861497Y+3503256D01*
X-3901770Y+3523424D01*
X-3942043Y+3535425D01*
X-3982316Y+3540441D01*
X-3992920Y+3540666D01*
X-4242475Y+3291111D02*
X-4241661Y+3311247D01*
X-4235053Y+3351520D01*
X-4221264Y+3391793D01*
X-4198855Y+3432066D01*
X-4164616Y+3472214D01*
X-4124343Y+3503256D01*
X-4084070Y+3523424D01*
X-4043797Y+3535425D01*
X-4003524Y+3540441D01*
X-3992920Y+3540666D01*
X-4242475Y+3291111D02*
X-4241661Y+3270975D01*
X-4235053Y+3230702D01*
X-4221264Y+3190429D01*
X-4198855Y+3150156D01*
X-4164616Y+3110008D01*
X-4124343Y+3078966D01*
X-4084070Y+3058798D01*
X-4043797Y+3046797D01*
X-4003524Y+3041781D01*
X-3992920Y+3041556D01*
X-3743365Y+3291111D02*
X-3744179Y+3270975D01*
X-3750787Y+3230702D01*
X-3764576Y+3190429D01*
X-3786985Y+3150156D01*
X-3821224Y+3110008D01*
X-3861497Y+3078966D01*
X-3901770Y+3058798D01*
X-3942043Y+3046797D01*
X-3982316Y+3041781D01*
X-3992920Y+3041556D01*
X+4242395Y+3291111D02*
X+4241581Y+3311247D01*
X+4234973Y+3351520D01*
X+4221184Y+3391793D01*
X+4198775Y+3432066D01*
X+4164536Y+3472214D01*
X+4124263Y+3503256D01*
X+4083990Y+3523424D01*
X+4043717Y+3535425D01*
X+4003444Y+3540441D01*
X+3992840Y+3540666D01*
X+3743285Y+3291111D02*
X+3744099Y+3311247D01*
X+3750707Y+3351520D01*
X+3764496Y+3391793D01*
X+3786905Y+3432066D01*
X+3821144Y+3472214D01*
X+3861417Y+3503256D01*
X+3901690Y+3523424D01*
X+3941963Y+3535425D01*
X+3982236Y+3540441D01*
X+3992840Y+3540666D01*
X+3743285Y+3291111D02*
X+3744099Y+3270975D01*
X+3750707Y+3230702D01*
X+3764496Y+3190429D01*
X+3786905Y+3150156D01*
X+3821144Y+3110008D01*
X+3861417Y+3078966D01*
X+3901690Y+3058798D01*
X+3941963Y+3046797D01*
X+3982236Y+3041781D01*
X+3992840Y+3041556D01*
X+4242395Y+3291111D02*
X+4241581Y+3270975D01*
X+4234973Y+3230702D01*
X+4221184Y+3190429D01*
X+4198775Y+3150156D01*
X+4164536Y+3110008D01*
X+4124263Y+3078966D01*
X+4083990Y+3058798D01*
X+4043717Y+3046797D01*
X+4003444Y+3041781D01*
X+3992840Y+3041556D01*
X-3743365Y-2997675D02*
X-3744179Y-2977539D01*
X-3750787Y-2937266D01*
X-3764576Y-2896993D01*
X-3786985Y-2856720D01*
X-3821224Y-2816572D01*
X-3861497Y-2785530D01*
X-3901770Y-2765362D01*
X-3942043Y-2753361D01*
X-3982316Y-2748345D01*
X-3992920Y-2748120D01*
X-4242475Y-2997675D02*
X-4241661Y-2977539D01*
X-4235053Y-2937266D01*
X-4221264Y-2896993D01*
X-4198855Y-2856720D01*
X-4164616Y-2816572D01*
X-4124343Y-2785530D01*
X-4084070Y-2765362D01*
X-4043797Y-2753361D01*
X-4003524Y-2748345D01*
X-3992920Y-2748120D01*
X-4242475Y-2997675D02*
X-4241661Y-3017811D01*
X-4235053Y-3058084D01*
X-4221264Y-3098357D01*
X-4198855Y-3138630D01*
X-4164616Y-3178778D01*
X-4124343Y-3209820D01*
X-4084070Y-3229988D01*
X-4043797Y-3241989D01*
X-4003524Y-3247005D01*
X-3992920Y-3247230D01*
X-3743365Y-2997675D02*
X-3744179Y-3017811D01*
X-3750787Y-3058084D01*
X-3764576Y-3098357D01*
X-3786985Y-3138630D01*
X-3821224Y-3178778D01*
X-3861497Y-3209820D01*
X-3901770Y-3229988D01*
X-3942043Y-3241989D01*
X-3982316Y-3247005D01*
X-3992920Y-3247230D01*
X+4242395Y-2997675D02*
X+4241581Y-2977539D01*
X+4234973Y-2937266D01*
X+4221184Y-2896993D01*
X+4198775Y-2856720D01*
X+4164536Y-2816572D01*
X+4124263Y-2785530D01*
X+4083990Y-2765362D01*
X+4043717Y-2753361D01*
X+4003444Y-2748345D01*
X+3992840Y-2748120D01*
X+3743285Y-2997675D02*
X+3744099Y-2977539D01*
X+3750707Y-2937266D01*
X+3764496Y-2896993D01*
X+3786905Y-2856720D01*
X+3821144Y-2816572D01*
X+3861417Y-2785530D01*
X+3901690Y-2765362D01*
X+3941963Y-2753361D01*
X+3982236Y-2748345D01*
X+3992840Y-2748120D01*
X+3743285Y-2997675D02*
X+3744099Y-3017811D01*
X+3750707Y-3058084D01*
X+3764496Y-3098357D01*
X+3786905Y-3138630D01*
X+3821144Y-3178778D01*
X+3861417Y-3209820D01*
X+3901690Y-3229988D01*
X+3941963Y-3241989D01*
X+3982236Y-3247005D01*
X+3992840Y-3247230D01*
X+4242395Y-2997675D02*
X+4241581Y-3017811D01*
X+4234973Y-3058084D01*
X+4221184Y-3098357D01*
X+4198775Y-3138630D01*
X+4164536Y-3178778D01*
X+4124263Y-3209820D01*
X+4083990Y-3229988D01*
X+4043717Y-3241989D01*
X+4003444Y-3247005D01*
X+3992840Y-3247230D01*
X+850000Y+2000000D02*
X-850000Y+2000000D01*
X+1000000Y+1850000D02*
X+1000000Y+1150000D01*
X+850000Y+1000000D02*
X-850000Y+1000000D01*
X-1000000Y+1850000D02*
X-1000000Y+1150000D01*
X-850000Y+1000000D02*
X-880670Y+1002985D01*
X-909033Y+1011572D01*
X-934540Y+1025214D01*
X-956641Y+1043359D01*
X-974787Y+1065460D01*
X-988428Y+1090967D01*
X-997015Y+1119330D01*
X-1000000Y+1150000D01*
X+1000000Y+1150000D02*
X+997015Y+1119330D01*
X+988428Y+1090967D01*
X+974787Y+1065460D01*
X+956641Y+1043359D01*
X+934540Y+1025214D01*
X+909033Y+1011572D01*
X+880670Y+1002985D01*
X+850000Y+1000000D01*
X+850000Y+2000000D02*
X+880670Y+1997015D01*
X+909033Y+1988428D01*
X+934540Y+1974786D01*
X+956641Y+1956641D01*
X+974787Y+1934540D01*
X+988428Y+1909033D01*
X+997015Y+1880670D01*
X+1000000Y+1850000D01*
X-1000000Y+1850000D02*
X-997015Y+1880670D01*
X-988428Y+1909033D01*
X-974787Y+1934540D01*
X-956641Y+1956641D01*
X-934540Y+1974786D01*
X-909033Y+1988428D01*
X-880670Y+1997015D01*
X-850000Y+2000000D01*
X-2750000Y+2850000D02*
X-2750502Y+2862258D01*
X-2754578Y+2886775D01*
X-2763094Y+2911292D01*
X-2776968Y+2935809D01*
X-2798194Y+2960161D01*
X-2822711Y+2978555D01*
X-2847228Y+2990411D01*
X-2871745Y+2997315D01*
X-2896262Y+2999953D01*
X-2900000Y+3000000D01*
X-3050000Y+2850000D02*
X-3049498Y+2862258D01*
X-3045422Y+2886775D01*
X-3036906Y+2911292D01*
X-3023032Y+2935809D01*
X-3001806Y+2960161D01*
X-2977289Y+2978555D01*
X-2952772Y+2990411D01*
X-2928255Y+2997315D01*
X-2903738Y+2999953D01*
X-2900000Y+3000000D01*
X-3050000Y+2850000D02*
X-3049498Y+2837742D01*
X-3045422Y+2813225D01*
X-3036906Y+2788708D01*
X-3023032Y+2764191D01*
X-3001806Y+2739839D01*
X-2977289Y+2721445D01*
X-2952772Y+2709589D01*
X-2928255Y+2702685D01*
X-2903738Y+2700047D01*
X-2900000Y+2700000D01*
X-2750000Y+2850000D02*
X-2750502Y+2837742D01*
X-2754578Y+2813225D01*
X-2763094Y+2788708D01*
X-2776968Y+2764191D01*
X-2798194Y+2739839D01*
X-2822711Y+2721445D01*
X-2847228Y+2709589D01*
X-2871745Y+2702685D01*
X-2896262Y+2700047D01*
X-2900000Y+2700000D01*
X+3050000Y+2850000D02*
X+3049498Y+2862258D01*
X+3045422Y+2886775D01*
X+3036906Y+2911292D01*
X+3023032Y+2935809D01*
X+3001806Y+2960161D01*
X+2977289Y+2978555D01*
X+2952772Y+2990411D01*
X+2928255Y+2997315D01*
X+2903738Y+2999953D01*
X+2900000Y+3000000D01*
X+2750000Y+2850000D02*
X+2750502Y+2862258D01*
X+2754578Y+2886775D01*
X+2763094Y+2911292D01*
X+2776968Y+2935809D01*
X+2798194Y+2960161D01*
X+2822711Y+2978555D01*
X+2847228Y+2990411D01*
X+2871745Y+2997315D01*
X+2896262Y+2999953D01*
X+2900000Y+3000000D01*
X+2750000Y+2850000D02*
X+2750502Y+2837742D01*
X+2754578Y+2813225D01*
X+2763094Y+2788708D01*
X+2776968Y+2764191D01*
X+2798194Y+2739839D01*
X+2822711Y+2721445D01*
X+2847228Y+2709589D01*
X+2871745Y+2702685D01*
X+2896262Y+2700047D01*
X+2900000Y+2700000D01*
X+3050000Y+2850000D02*
X+3049498Y+2837742D01*
X+3045422Y+2813225D01*
X+3036906Y+2788708D01*
X+3023032Y+2764191D01*
X+3001806Y+2739839D01*
X+2977289Y+2721445D01*
X+2952772Y+2709589D01*
X+2928255Y+2702685D01*
X+2903738Y+2700047D01*
X+2900000Y+2700000D01*
X+3050000Y-2000000D02*
X+3049498Y-1987742D01*
X+3045422Y-1963225D01*
X+3036906Y-1938708D01*
X+3023032Y-1914191D01*
X+3001806Y-1889839D01*
X+2977289Y-1871445D01*
X+2952772Y-1859589D01*
X+2928255Y-1852685D01*
X+2903738Y-1850047D01*
X+2900000Y-1850000D01*
X+2750000Y-2000000D02*
X+2750502Y-1987742D01*
X+2754578Y-1963225D01*
X+2763094Y-1938708D01*
X+2776968Y-1914191D01*
X+2798194Y-1889839D01*
X+2822711Y-1871445D01*
X+2847228Y-1859589D01*
X+2871745Y-1852685D01*
X+2896262Y-1850047D01*
X+2900000Y-1850000D01*
X+2750000Y-2000000D02*
X+2750502Y-2012258D01*
X+2754578Y-2036775D01*
X+2763094Y-2061292D01*
X+2776968Y-2085809D01*
X+2798194Y-2110161D01*
X+2822711Y-2128555D01*
X+2847228Y-2140411D01*
X+2871745Y-2147315D01*
X+2896262Y-2149953D01*
X+2900000Y-2150000D01*
X+3050000Y-2000000D02*
X+3049498Y-2012258D01*
X+3045422Y-2036775D01*
X+3036906Y-2061292D01*
X+3023032Y-2085809D01*
X+3001806Y-2110161D01*
X+2977289Y-2128555D01*
X+2952772Y-2140411D01*
X+2928255Y-2147315D01*
X+2903738Y-2149953D01*
X+2900000Y-2150000D01*
X-2750000Y-2000000D02*
X-2750502Y-1987742D01*
X-2754578Y-1963225D01*
X-2763094Y-1938708D01*
X-2776968Y-1914191D01*
X-2798194Y-1889839D01*
X-2822711Y-1871445D01*
X-2847228Y-1859589D01*
X-2871745Y-1852685D01*
X-2896262Y-1850047D01*
X-2900000Y-1850000D01*
X-3050000Y-2000000D02*
X-3049498Y-1987742D01*
X-3045422Y-1963225D01*
X-3036906Y-1938708D01*
X-3023032Y-1914191D01*
X-3001806Y-1889839D01*
X-2977289Y-1871445D01*
X-2952772Y-1859589D01*
X-2928255Y-1852685D01*
X-2903738Y-1850047D01*
X-2900000Y-1850000D01*
X-3050000Y-2000000D02*
X-3049498Y-2012258D01*
X-3045422Y-2036775D01*
X-3036906Y-2061292D01*
X-3023032Y-2085809D01*
X-3001806Y-2110161D01*
X-2977289Y-2128555D01*
X-2952772Y-2140411D01*
X-2928255Y-2147315D01*
X-2903738Y-2149953D01*
X-2900000Y-2150000D01*
X-2750000Y-2000000D02*
X-2750502Y-2012258D01*
X-2754578Y-2036775D01*
X-2763094Y-2061292D01*
X-2776968Y-2085809D01*
X-2798194Y-2110161D01*
X-2822711Y-2128555D01*
X-2847228Y-2140411D01*
X-2871745Y-2147315D01*
X-2896262Y-2149953D01*
X-2900000Y-2150000D01*
M02*
