G04 PROTEUS GERBER X2 FILE*
%TF.GenerationSoftware,Labcenter,Proteus,8.9-SP0-Build27865*%
%TF.CreationDate,2021-06-19T08:02:23+00:00*%
%TF.FileFunction,Copper,L1,Top*%
%TF.FilePolarity,Positive*%
%TF.Part,Single*%
%TF.SameCoordinates,{64bffbd5-d61a-4640-9b31-8bd0ff2465da}*%
%FSLAX45Y45*%
%MOMM*%
G01*
%TA.AperFunction,Conductor*%
%ADD10C,1.270000*%
%TA.AperFunction,ViaPad*%
%ADD11C,1.016000*%
%TA.AperFunction,Conductor*%
%ADD12C,0.762000*%
%AMPPAD003*
4,1,36,
-0.457200,1.016000,
0.457200,1.016000,
0.519520,1.009940,
0.577160,0.992490,
0.628980,0.964770,
0.673890,0.927890,
0.710760,0.882980,
0.738480,0.831160,
0.755930,0.773520,
0.762000,0.711200,
0.762000,-0.711200,
0.755930,-0.773520,
0.738480,-0.831160,
0.710760,-0.882980,
0.673890,-0.927890,
0.628980,-0.964770,
0.577160,-0.992490,
0.519520,-1.009940,
0.457200,-1.016000,
-0.457200,-1.016000,
-0.519520,-1.009940,
-0.577160,-0.992490,
-0.628980,-0.964770,
-0.673890,-0.927890,
-0.710760,-0.882980,
-0.738480,-0.831160,
-0.755930,-0.773520,
-0.762000,-0.711200,
-0.762000,0.711200,
-0.755930,0.773520,
-0.738480,0.831160,
-0.710760,0.882980,
-0.673890,0.927890,
-0.628980,0.964770,
-0.577160,0.992490,
-0.519520,1.009940,
-0.457200,1.016000,
0*%
%TA.AperFunction,ComponentPad*%
%ADD13PPAD003*%
%AMDIL004*
4,1,8,
-0.762000,0.965200,-0.457200,1.270000,0.457200,1.270000,0.762000,0.965200,0.762000,-0.965200,
0.457200,-1.270000,-0.457200,-1.270000,-0.762000,-0.965200,-0.762000,0.965200,
0*%
%TA.AperFunction,ComponentPad*%
%ADD14DIL004*%
%ADD15C,2.032000*%
%AMDIL006*
4,1,8,
-1.270000,0.457200,-0.965200,0.762000,0.965200,0.762000,1.270000,0.457200,1.270000,-0.457200,
0.965200,-0.762000,-0.965200,-0.762000,-1.270000,-0.457200,-1.270000,0.457200,
0*%
%ADD16DIL006*%
%TA.AperFunction,ComponentPad*%
%ADD17C,3.048000*%
%TA.AperFunction,ComponentPad*%
%ADD18C,1.778000*%
%TA.AperFunction,ComponentPad*%
%ADD19R,2.032000X2.032000*%
%TA.AperFunction,ComponentPad*%
%ADD70C,5.080000*%
%ADD71C,3.810000*%
%TA.AperFunction,ComponentPad*%
%ADD20C,2.540000*%
%TA.AperFunction,ComponentPad*%
%ADD21C,2.286000*%
%TA.AperFunction,WasherPad*%
%ADD22C,1.524000*%
%TA.AperFunction,Profile*%
%ADD23C,0.203200*%
%TD.AperFunction*%
G36*
X+6820442Y+5610212D02*
X+6858392Y+5604585D01*
X+6894506Y+5595486D01*
X+6928660Y+5583124D01*
X+6960790Y+5567663D01*
X+6990743Y+5549291D01*
X+7018429Y+5528135D01*
X+7047008Y+5501230D01*
X+7750200Y+4798038D01*
X+7777105Y+4769459D01*
X+7798260Y+4741774D01*
X+7816635Y+4711819D01*
X+7832093Y+4679691D01*
X+7844456Y+4645536D01*
X+7853555Y+4609422D01*
X+7859182Y+4571472D01*
X+7861260Y+4528781D01*
X+7861260Y-5533031D01*
X+7859182Y-5575722D01*
X+7853555Y-5613672D01*
X+7844456Y-5649786D01*
X+7832093Y-5683941D01*
X+7816635Y-5716069D01*
X+7798260Y-5746024D01*
X+7777105Y-5773709D01*
X+7750200Y-5802288D01*
X+7047008Y-6505480D01*
X+7018429Y-6532385D01*
X+6990743Y-6553541D01*
X+6960790Y-6571913D01*
X+6928660Y-6587374D01*
X+6894506Y-6599736D01*
X+6858392Y-6608835D01*
X+6820442Y-6614462D01*
X+6777751Y-6616540D01*
X+4452144Y-6616540D01*
X+4409453Y-6614462D01*
X+4371503Y-6608835D01*
X+4335389Y-6599736D01*
X+4301235Y-6587374D01*
X+4269105Y-6571913D01*
X+4239152Y-6553541D01*
X+4211466Y-6532385D01*
X+4182887Y-6505480D01*
X+3479695Y-5802288D01*
X+3452790Y-5773709D01*
X+3431634Y-5746023D01*
X+3413262Y-5716072D01*
X+3397802Y-5683941D01*
X+3385438Y-5649784D01*
X+3376340Y-5613672D01*
X+3370713Y-5575722D01*
X+3368635Y-5533031D01*
X+3368635Y-4848467D01*
X+3368487Y-4845425D01*
X+3365664Y-4787423D01*
X+3356419Y-4725066D01*
X+3341232Y-4664791D01*
X+3320313Y-4607000D01*
X+3293904Y-4552111D01*
X+3262229Y-4500473D01*
X+3225576Y-4452506D01*
X+3187318Y-4411869D01*
X+2478824Y-3703375D01*
X+2477453Y-3702084D01*
X+2438187Y-3665117D01*
X+2390220Y-3628464D01*
X+2338584Y-3596791D01*
X+2283695Y-3570380D01*
X+2225892Y-3549458D01*
X+2165628Y-3534275D01*
X+2103268Y-3525029D01*
X+2042225Y-3522058D01*
X+1707786Y-3522058D01*
X+1828799Y-3401045D01*
X+1828799Y-2886899D01*
X+2603499Y-2886899D01*
X+2603499Y-2848799D01*
X+3651621Y-2848799D01*
X+3626902Y-2915980D01*
X+3618107Y-2997675D01*
X+3626902Y-3079370D01*
X+3661449Y-3173260D01*
X+3712142Y-3246077D01*
X+3773646Y-3301636D01*
X+3843022Y-3341128D01*
X+3917104Y-3364614D01*
X+3992840Y-3372334D01*
X+4068576Y-3364614D01*
X+4142658Y-3341128D01*
X+4212034Y-3301636D01*
X+4273538Y-3246077D01*
X+4324231Y-3173260D01*
X+4358778Y-3079370D01*
X+4367573Y-2997675D01*
X+4358778Y-2915980D01*
X+4324231Y-2822090D01*
X+4290802Y-2774072D01*
X+4422561Y-2774072D01*
X+4380801Y-2815832D01*
X+4380801Y-2984168D01*
X+4499832Y-3103199D01*
X+4668168Y-3103199D01*
X+4749801Y-3021566D01*
X+4749801Y-3309501D01*
X+4458701Y-3309501D01*
X+4458701Y-3944499D01*
X+4941299Y-3944499D01*
X+4941299Y-3587343D01*
X+5031755Y-3677799D01*
X+5220701Y-3677799D01*
X+5220701Y-3944499D01*
X+5284201Y-3944499D01*
X+5284201Y-4084101D01*
X+4730101Y-4084101D01*
X+4730101Y-4515899D01*
X+5406201Y-4515899D01*
X+5406201Y-4890432D01*
X+5380801Y-4915832D01*
X+5380801Y-5084168D01*
X+5499832Y-5203199D01*
X+5668168Y-5203199D01*
X+5787199Y-5084168D01*
X+5787199Y-4915832D01*
X+5761799Y-4890432D01*
X+5761799Y-4091955D01*
X+5639799Y-3969955D01*
X+5639799Y-3944499D01*
X+5703299Y-3944499D01*
X+5703299Y-3309501D01*
X+5220701Y-3309501D01*
X+5220701Y-3322201D01*
X+5179045Y-3322201D01*
X+5105399Y-3248555D01*
X+5105399Y-2809255D01*
X+4827799Y-2531655D01*
X+4827799Y-1746499D01*
X+5141299Y-1746499D01*
X+5141299Y-209799D01*
X+5191745Y-209799D01*
X+5295899Y-105645D01*
X+5295899Y+2461247D01*
X+5191747Y+2565399D01*
X+5044453Y+2565399D01*
X+4940301Y+2461247D01*
X+4940301Y+2190499D01*
X+4827799Y+2190499D01*
X+4827799Y+4876355D01*
X+4835545Y+4884101D01*
X+4889428Y+4884101D01*
X+4927000Y+4921673D01*
X+4964572Y+4884101D01*
X+5143428Y+4884101D01*
X+5181000Y+4921673D01*
X+5218572Y+4884101D01*
X+5397428Y+4884101D01*
X+5523899Y+5010572D01*
X+5523899Y+5189428D01*
X+5397428Y+5315899D01*
X+5218572Y+5315899D01*
X+5181000Y+5278327D01*
X+5143428Y+5315899D01*
X+4964572Y+5315899D01*
X+4927000Y+5278327D01*
X+4889428Y+5315899D01*
X+4710572Y+5315899D01*
X+4584101Y+5189428D01*
X+4584101Y+5135545D01*
X+4472201Y+5023645D01*
X+4472201Y+4099057D01*
X+4066306Y+4504953D01*
X+4066306Y+4558837D01*
X+3939836Y+4685307D01*
X+3760978Y+4685307D01*
X+3634508Y+4558837D01*
X+3634508Y+4505701D01*
X+3581373Y+4505701D01*
X+3454903Y+4379231D01*
X+3454903Y+4326096D01*
X+3401768Y+4326096D01*
X+3275298Y+4199626D01*
X+3275298Y+4146491D01*
X+3222163Y+4146491D01*
X+3095693Y+4020021D01*
X+3095693Y+3841163D01*
X+3222163Y+3714693D01*
X+3374349Y+3714693D01*
X+3327401Y+3667745D01*
X+3327401Y+1117598D01*
X+2926925Y+1117598D01*
X+2965899Y+1156572D01*
X+2965899Y+1335428D01*
X+2928327Y+1373000D01*
X+2965899Y+1410572D01*
X+2965899Y+1589428D01*
X+2928327Y+1627000D01*
X+2965899Y+1664572D01*
X+2965899Y+1843428D01*
X+2839428Y+1969899D01*
X+2660572Y+1969899D01*
X+2534101Y+1843428D01*
X+2534101Y+1664572D01*
X+2571673Y+1627000D01*
X+2534101Y+1589428D01*
X+2534101Y+1410572D01*
X+2571673Y+1373000D01*
X+2534101Y+1335428D01*
X+2534101Y+1156572D01*
X+2573074Y+1117599D01*
X+1871643Y+1117599D01*
X+2108199Y+1354155D01*
X+2108199Y+2245345D01*
X+1825745Y+2527799D01*
X+985799Y+2527799D01*
X+985799Y+2550145D01*
X+780045Y+2755899D01*
X+76199Y+2755899D01*
X+76199Y+3175245D01*
X-84101Y+3335545D01*
X-84101Y+3340101D01*
X+105501Y+3340101D01*
X+105501Y+3058701D01*
X+486499Y+3058701D01*
X+486499Y+3084101D01*
X+639428Y+3084101D01*
X+677000Y+3121673D01*
X+714572Y+3084101D01*
X+893428Y+3084101D01*
X+1019899Y+3210572D01*
X+1019899Y+3340101D01*
X+1978647Y+3340101D01*
X+2082799Y+3444253D01*
X+2082799Y+3591547D01*
X+2057741Y+3616605D01*
X+2103268Y+3618821D01*
X+2165628Y+3628067D01*
X+2171647Y+3629583D01*
X+2225892Y+3643250D01*
X+2283695Y+3664172D01*
X+2289369Y+3666902D01*
X+2338584Y+3690583D01*
X+2390220Y+3722256D01*
X+2438187Y+3758909D01*
X+2478824Y+3797167D01*
X+4182887Y+5501230D01*
X+4211466Y+5528135D01*
X+4239152Y+5549291D01*
X+4269105Y+5567663D01*
X+4301235Y+5583124D01*
X+4335389Y+5595486D01*
X+4371503Y+5604585D01*
X+4409453Y+5610212D01*
X+4452144Y+5612290D01*
X+6777751Y+5612290D01*
X+6820442Y+5610212D01*
G37*
%LPC*%
G36*
X+2497088Y+3676071D02*
X+2545583Y+3669645D01*
X+2614980Y+3640262D01*
X+2628676Y+3629139D01*
X+2677051Y+3589849D01*
X+2726918Y+3514259D01*
X+2750568Y+3403910D01*
X+2726918Y+3293561D01*
X+2677051Y+3217971D01*
X+2614980Y+3167558D01*
X+2545583Y+3138175D01*
X+2473549Y+3128629D01*
X+2450010Y+3131749D01*
X+2401515Y+3138175D01*
X+2332118Y+3167558D01*
X+2318422Y+3178681D01*
X+2270047Y+3217971D01*
X+2220180Y+3293561D01*
X+2196530Y+3403910D01*
X+2220180Y+3514259D01*
X+2270047Y+3589849D01*
X+2332118Y+3640262D01*
X+2401515Y+3669645D01*
X+2473549Y+3679191D01*
X+2497088Y+3676071D01*
G37*
G36*
X+2916337Y+3123383D02*
X+2972035Y+3116008D01*
X+3041447Y+3086651D01*
X+3103536Y+3036292D01*
X+3153488Y+2960754D01*
X+3177305Y+2850000D01*
X+3153488Y+2739246D01*
X+3103536Y+2663708D01*
X+3041447Y+2613349D01*
X+3025212Y+2606482D01*
X+2972035Y+2583992D01*
X+2900000Y+2574454D01*
X+2827965Y+2583992D01*
X+2758553Y+2613349D01*
X+2696464Y+2663708D01*
X+2646512Y+2739246D01*
X+2622695Y+2850000D01*
X+2646512Y+2960754D01*
X+2696464Y+3036292D01*
X+2758553Y+3086651D01*
X+2774788Y+3093518D01*
X+2827965Y+3116008D01*
X+2900000Y+3125546D01*
X+2916337Y+3123383D01*
G37*
G36*
X+6923899Y+5189428D02*
X+6923899Y+5135545D01*
X+7193799Y+4865645D01*
X+7193799Y+4409568D01*
X+7219199Y+4384168D01*
X+7219199Y+4215832D01*
X+7100168Y+4096801D01*
X+7064245Y+4096801D01*
X+6819899Y+3852455D01*
X+6819899Y+2189305D01*
X+6821093Y+2190499D01*
X+6978907Y+2190499D01*
X+7022201Y+2147205D01*
X+7022201Y+2900630D01*
X+6933301Y+2989530D01*
X+6933301Y+3210470D01*
X+7076831Y+3354000D01*
X+6933301Y+3497530D01*
X+6933301Y+3718470D01*
X+7089530Y+3874699D01*
X+7310470Y+3874699D01*
X+7466699Y+3718470D01*
X+7466699Y+3497530D01*
X+7323169Y+3354000D01*
X+7466699Y+3210470D01*
X+7466699Y+2989530D01*
X+7377799Y+2900630D01*
X+7377799Y+194355D01*
X+7090499Y-92945D01*
X+7090499Y-110907D01*
X+7042406Y-159000D01*
X+7090499Y-207093D01*
X+7090499Y-364907D01*
X+7042406Y-413000D01*
X+7090499Y-461093D01*
X+7090499Y-618907D01*
X+7042406Y-667000D01*
X+7090499Y-715093D01*
X+7090499Y-872907D01*
X+7042406Y-921000D01*
X+7090499Y-969093D01*
X+7090499Y-1126907D01*
X+7042406Y-1175000D01*
X+7090499Y-1223093D01*
X+7090499Y-1380907D01*
X+7042406Y-1429000D01*
X+7090499Y-1477093D01*
X+7090499Y-1634907D01*
X+6978907Y-1746499D01*
X+6821093Y-1746499D01*
X+6709501Y-1634907D01*
X+6709501Y-1477093D01*
X+6757594Y-1429000D01*
X+6709501Y-1380907D01*
X+6709501Y-1223093D01*
X+6757594Y-1175000D01*
X+6709501Y-1126907D01*
X+6709501Y-969093D01*
X+6757594Y-921000D01*
X+6709501Y-872907D01*
X+6709501Y-715093D01*
X+6757594Y-667000D01*
X+6709501Y-618907D01*
X+6709501Y-600945D01*
X+6665299Y-556743D01*
X+6665299Y-1746499D01*
X+6380243Y-1746499D01*
X+6477799Y-1844055D01*
X+6477799Y-2836551D01*
X+6541299Y-2900051D01*
X+6541299Y-3099949D01*
X+6399949Y-3241299D01*
X+6200051Y-3241299D01*
X+6058701Y-3099949D01*
X+6058701Y-2900051D01*
X+6122201Y-2836551D01*
X+6122201Y-1991345D01*
X+6008612Y-1877756D01*
X+6000168Y-1886199D01*
X+5831832Y-1886199D01*
X+5789000Y-1843367D01*
X+5746168Y-1886199D01*
X+5577832Y-1886199D01*
X+5535000Y-1843367D01*
X+5492168Y-1886199D01*
X+5323832Y-1886199D01*
X+5204801Y-1767168D01*
X+5204801Y-1598832D01*
X+5247633Y-1556000D01*
X+5204801Y-1513168D01*
X+5204801Y-1344832D01*
X+5323832Y-1225801D01*
X+5492168Y-1225801D01*
X+5535000Y-1268633D01*
X+5577832Y-1225801D01*
X+5746168Y-1225801D01*
X+5789000Y-1268633D01*
X+5831832Y-1225801D01*
X+6000168Y-1225801D01*
X+6007102Y-1232735D01*
X+6007102Y+4096801D01*
X+5915832Y+4096801D01*
X+5796801Y+4215832D01*
X+5796801Y+4384168D01*
X+5915832Y+4503199D01*
X+6084168Y+4503199D01*
X+6088712Y+4498656D01*
X+6276201Y+4686145D01*
X+6276201Y+4884101D01*
X+6110572Y+4884101D01*
X+5984101Y+5010572D01*
X+5984101Y+5189428D01*
X+6110572Y+5315899D01*
X+6289428Y+5315899D01*
X+6327000Y+5278327D01*
X+6364572Y+5315899D01*
X+6543428Y+5315899D01*
X+6581000Y+5278327D01*
X+6618572Y+5315899D01*
X+6797428Y+5315899D01*
X+6923899Y+5189428D01*
G37*
G36*
X+6541299Y-4300051D02*
X+6541299Y-4499949D01*
X+6399949Y-4641299D01*
X+6200051Y-4641299D01*
X+6058701Y-4499949D01*
X+6058701Y-4300051D01*
X+6200051Y-4158701D01*
X+6399949Y-4158701D01*
X+6541299Y-4300051D01*
G37*
G36*
X+7741299Y-4300051D02*
X+7741299Y-4499949D01*
X+7599949Y-4641299D01*
X+7400051Y-4641299D01*
X+7258701Y-4499949D01*
X+7258701Y-4300051D01*
X+7400051Y-4158701D01*
X+7599949Y-4158701D01*
X+7741299Y-4300051D01*
G37*
G36*
X+7141299Y-4700051D02*
X+7141299Y-4899949D01*
X+7077799Y-4963449D01*
X+7077799Y-5104445D01*
X+6985766Y-5196478D01*
X+7028599Y-5239311D01*
X+7028599Y-5428689D01*
X+6894689Y-5562599D01*
X+6705311Y-5562599D01*
X+6571401Y-5428689D01*
X+6571401Y-5239311D01*
X+6622201Y-5188511D01*
X+6622201Y-5057155D01*
X+6719054Y-4960302D01*
X+6658701Y-4899949D01*
X+6658701Y-4700051D01*
X+6800051Y-4558701D01*
X+6999949Y-4558701D01*
X+7141299Y-4700051D01*
G37*
G36*
X+7741299Y-2900051D02*
X+7741299Y-3099949D01*
X+7599949Y-3241299D01*
X+7400051Y-3241299D01*
X+7258701Y-3099949D01*
X+7258701Y-2900051D01*
X+7400051Y-2758701D01*
X+7599949Y-2758701D01*
X+7741299Y-2900051D01*
G37*
G36*
X+5566699Y-5889530D02*
X+5566699Y-6110470D01*
X+5410470Y-6266699D01*
X+5189530Y-6266699D01*
X+5046000Y-6123169D01*
X+4902470Y-6266699D01*
X+4681530Y-6266699D01*
X+4525301Y-6110470D01*
X+4525301Y-5889530D01*
X+4681530Y-5733301D01*
X+4902470Y-5733301D01*
X+5046000Y-5876831D01*
X+5189530Y-5733301D01*
X+5410470Y-5733301D01*
X+5566699Y-5889530D01*
G37*
G36*
X+5396801Y-2984168D02*
X+5396801Y-2815832D01*
X+5515832Y-2696801D01*
X+5684168Y-2696801D01*
X+5803199Y-2815832D01*
X+5803199Y-2984168D01*
X+5684168Y-3103199D01*
X+5515832Y-3103199D01*
X+5396801Y-2984168D01*
G37*
G36*
X+4771199Y-4915832D02*
X+4771199Y-5084168D01*
X+4652168Y-5203199D01*
X+4483832Y-5203199D01*
X+4364801Y-5084168D01*
X+4364801Y-4915832D01*
X+4483832Y-4796801D01*
X+4652168Y-4796801D01*
X+4771199Y-4915832D01*
G37*
G36*
X+6105311Y-6121401D02*
X+6294689Y-6121401D01*
X+6428599Y-6255311D01*
X+6428599Y-6444689D01*
X+6294689Y-6578599D01*
X+6105311Y-6578599D01*
X+5971401Y-6444689D01*
X+5971401Y-6255311D01*
X+6105311Y-6121401D01*
G37*
G36*
X+6105311Y-5105401D02*
X+6294689Y-5105401D01*
X+6428599Y-5239311D01*
X+6428599Y-5428689D01*
X+6294689Y-5562599D01*
X+6105311Y-5562599D01*
X+5971401Y-5428689D01*
X+5971401Y-5239311D01*
X+6105311Y-5105401D01*
G37*
G36*
X+6705311Y-6121401D02*
X+6894689Y-6121401D01*
X+7028599Y-6255311D01*
X+7028599Y-6444689D01*
X+6894689Y-6578599D01*
X+6705311Y-6578599D01*
X+6571401Y-6444689D01*
X+6571401Y-6255311D01*
X+6705311Y-6121401D01*
G37*
%LPD*%
G36*
X+6838201Y+4718355D02*
X+6838201Y+4409568D01*
X+6812801Y+4384168D01*
X+6812801Y+4348245D01*
X+6464301Y+3999745D01*
X+6464301Y+2190499D01*
X+6362698Y+2190499D01*
X+6362698Y+4269754D01*
X+6631799Y+4538855D01*
X+6631799Y+4884101D01*
X+6672455Y+4884101D01*
X+6838201Y+4718355D01*
G37*
G36*
X-4409532Y+5610212D02*
X-4371584Y+5604585D01*
X-4335467Y+5595485D01*
X-4301317Y+5583125D01*
X-4269185Y+5567663D01*
X-4239232Y+5549291D01*
X-4211546Y+5528135D01*
X-4182967Y+5501230D01*
X-3332261Y+4650524D01*
X-2478899Y+3797167D01*
X-2438262Y+3758909D01*
X-2390302Y+3722259D01*
X-2376294Y+3713667D01*
X-2338667Y+3690585D01*
X-2283775Y+3664173D01*
X-2225982Y+3643253D01*
X-2165707Y+3628066D01*
X-2103350Y+3618821D01*
X-2042306Y+3615850D01*
X-1867994Y+3615850D01*
X-2184398Y+3299446D01*
X-2184398Y+3152154D01*
X-2080246Y+3048002D01*
X-1932954Y+3048002D01*
X-1640855Y+3340101D01*
X-998499Y+3340101D01*
X-998499Y+3058701D01*
X-731799Y+3058701D01*
X-731799Y+3007345D01*
X-805445Y+2933699D01*
X-2070869Y+2933699D01*
X-2282402Y+2933846D01*
X-2477728Y+3129172D01*
X-2473629Y+3128629D01*
X-2401595Y+3138175D01*
X-2332198Y+3167558D01*
X-2270127Y+3217971D01*
X-2220260Y+3293561D01*
X-2196610Y+3403910D01*
X-2220260Y+3514259D01*
X-2270127Y+3589849D01*
X-2332198Y+3640262D01*
X-2401595Y+3669645D01*
X-2473629Y+3679191D01*
X-2545663Y+3669645D01*
X-2615060Y+3640262D01*
X-2677131Y+3589849D01*
X-2726998Y+3514259D01*
X-2750648Y+3403910D01*
X-2750152Y+3401596D01*
X-2997201Y+3648645D01*
X-2997201Y+4249645D01*
X-3175355Y+4427799D01*
X-3522471Y+4427799D01*
X-3640176Y+4545504D01*
X-3819034Y+4545504D01*
X-3945504Y+4419034D01*
X-3945504Y+4240176D01*
X-3819034Y+4113706D01*
X-3765899Y+4113706D01*
X-3765899Y+4060571D01*
X-3639429Y+3934101D01*
X-3586293Y+3934101D01*
X-3586293Y+3880965D01*
X-3548193Y+3842865D01*
X-3548193Y+3799637D01*
X-4282455Y+4533899D01*
X-4549155Y+4533899D01*
X-4628201Y+4612945D01*
X-4628201Y+4658701D01*
X-4361501Y+4658701D01*
X-4361501Y+5141299D01*
X-7028499Y+5141299D01*
X-7028499Y+4658701D01*
X-4983799Y+4658701D01*
X-4983799Y+4465655D01*
X-4897443Y+4379299D01*
X-7028499Y+4379299D01*
X-7028499Y+3896701D01*
X-5237798Y+3896701D01*
X-5237797Y+3615899D01*
X-6323899Y+3615899D01*
X-6323899Y+3184101D01*
X-4800599Y+3184101D01*
X-4800599Y+3114055D01*
X-3975099Y+2288555D01*
X-3975099Y+1838268D01*
X-4089530Y+1952699D01*
X-4279901Y+1952699D01*
X-4279901Y+2486645D01*
X-4561855Y+2768599D01*
X-5165645Y+2768599D01*
X-5269799Y+2664445D01*
X-5269799Y+2615899D01*
X-6323899Y+2615899D01*
X-6323899Y+2184101D01*
X-6285799Y+2184101D01*
X-6285799Y+2021155D01*
X-5981699Y+1717055D01*
X-5981699Y+1701899D01*
X-6599899Y+1701899D01*
X-6599899Y+1270101D01*
X-5981699Y+1270101D01*
X-5981699Y-198101D01*
X-6599899Y-198101D01*
X-6599899Y-629899D01*
X-5981699Y-629899D01*
X-5981699Y-884101D01*
X-6215899Y-884101D01*
X-6215899Y-1569899D01*
X-6035545Y-1569899D01*
X-5977799Y-1627645D01*
X-5977799Y-1778455D01*
X-6018059Y-1928708D01*
X-5933891Y-2074491D01*
X-5771292Y-2118059D01*
X-5625509Y-2033891D01*
X-5581941Y-1871292D01*
X-5622202Y-1801558D01*
X-5622203Y-1480353D01*
X-5784101Y-1318455D01*
X-5784101Y-1079499D01*
X-5730253Y-1079499D01*
X-5626101Y-975347D01*
X-5626101Y-137145D01*
X-5623547Y-139699D01*
X-5476253Y-139699D01*
X-5372101Y-35547D01*
X-5372101Y+1270101D01*
X-4991099Y+1270101D01*
X-4991099Y-198101D01*
X-5545899Y-198101D01*
X-5545899Y-629899D01*
X-4991099Y-629899D01*
X-4991099Y-884101D01*
X-5415899Y-884101D01*
X-5415899Y-1569899D01*
X-5377799Y-1569899D01*
X-5377799Y-1773648D01*
X-5211667Y-1939780D01*
X-5133891Y-2074491D01*
X-5094004Y-2085178D01*
X-5157681Y-2148855D01*
X-5157681Y-2286455D01*
X-5197941Y-2436708D01*
X-5113773Y-2582491D01*
X-5113435Y-2582582D01*
X-5168299Y-2637446D01*
X-5168299Y-2942554D01*
X-4952554Y-3158299D01*
X-4647446Y-3158299D01*
X-4622799Y-3133652D01*
X-4622799Y-3401045D01*
X-4340845Y-3682999D01*
X-2457261Y-3682999D01*
X-2478904Y-3703375D01*
X-3187398Y-4411869D01*
X-3188689Y-4413240D01*
X-3225656Y-4452506D01*
X-3262309Y-4500473D01*
X-3293984Y-4552111D01*
X-3320393Y-4607000D01*
X-3341312Y-4664791D01*
X-3356499Y-4725066D01*
X-3365744Y-4787423D01*
X-3368715Y-4848467D01*
X-3368715Y-5533031D01*
X-3370793Y-5575722D01*
X-3376420Y-5613672D01*
X-3385518Y-5649784D01*
X-3397882Y-5683941D01*
X-3413342Y-5716072D01*
X-3431714Y-5746023D01*
X-3452870Y-5773709D01*
X-3479775Y-5802288D01*
X-4182967Y-6505480D01*
X-4211546Y-6532385D01*
X-4239232Y-6553541D01*
X-4269185Y-6571913D01*
X-4301317Y-6587375D01*
X-4335467Y-6599735D01*
X-4371584Y-6608835D01*
X-4409532Y-6614462D01*
X-4452224Y-6616540D01*
X-6777831Y-6616540D01*
X-6820522Y-6614462D01*
X-6858472Y-6608835D01*
X-6894586Y-6599736D01*
X-6928740Y-6587374D01*
X-6960870Y-6571913D01*
X-6990823Y-6553541D01*
X-7018509Y-6532385D01*
X-7047088Y-6505480D01*
X-7750280Y-5802288D01*
X-7777185Y-5773709D01*
X-7798340Y-5746024D01*
X-7816715Y-5716069D01*
X-7832173Y-5683941D01*
X-7844536Y-5649786D01*
X-7853635Y-5613672D01*
X-7859262Y-5575722D01*
X-7861340Y-5533031D01*
X-7861340Y+4528781D01*
X-7859262Y+4571472D01*
X-7853635Y+4609422D01*
X-7844536Y+4645536D01*
X-7832173Y+4679691D01*
X-7816715Y+4711819D01*
X-7798340Y+4741774D01*
X-7777185Y+4769459D01*
X-7750280Y+4798038D01*
X-7047092Y+5501226D01*
X-7018506Y+5528138D01*
X-6990835Y+5549282D01*
X-6960866Y+5567665D01*
X-6928747Y+5583120D01*
X-6894578Y+5595488D01*
X-6858472Y+5604585D01*
X-6820522Y+5610212D01*
X-6777831Y+5612290D01*
X-4452224Y+5612290D01*
X-4409532Y+5610212D01*
G37*
%LPC*%
G36*
X-5839701Y-4747446D02*
X-5839701Y-5052554D01*
X-6030201Y-5243054D01*
X-6030201Y-5446055D01*
X-5822201Y-5654055D01*
X-5822201Y-5800630D01*
X-5733301Y-5889530D01*
X-5733301Y-6110470D01*
X-5889530Y-6266699D01*
X-6110470Y-6266699D01*
X-6254000Y-6123169D01*
X-6397530Y-6266699D01*
X-6618470Y-6266699D01*
X-6774699Y-6110470D01*
X-6774699Y-5889530D01*
X-6618470Y-5733301D01*
X-6397530Y-5733301D01*
X-6254000Y-5876831D01*
X-6178156Y-5800988D01*
X-6385799Y-5593345D01*
X-6385799Y-5243054D01*
X-6576299Y-5052554D01*
X-6576299Y-4747446D01*
X-6360554Y-4531701D01*
X-6055446Y-4531701D01*
X-5839701Y-4747446D01*
G37*
G36*
X-4431701Y-4747446D02*
X-4431701Y-5052554D01*
X-4622201Y-5243054D01*
X-4622201Y-5618355D01*
X-4507255Y-5733301D01*
X-4381530Y-5733301D01*
X-4225301Y-5889530D01*
X-4225301Y-6110470D01*
X-4381530Y-6266699D01*
X-4602470Y-6266699D01*
X-4746000Y-6123169D01*
X-4889530Y-6266699D01*
X-5110470Y-6266699D01*
X-5266699Y-6110470D01*
X-5266699Y-5889530D01*
X-5110470Y-5733301D01*
X-4977799Y-5733301D01*
X-4977799Y-5243054D01*
X-5168299Y-5052554D01*
X-5168299Y-4747446D01*
X-4952554Y-4531701D01*
X-4647446Y-4531701D01*
X-4431701Y-4747446D01*
G37*
G36*
X-7033301Y+1796470D02*
X-7033301Y+1670745D01*
X-6667501Y+1304945D01*
X-6667501Y-1368937D01*
X-5823770Y-2212668D01*
X-5745991Y-2233509D01*
X-5661823Y-2379292D01*
X-5705391Y-2541891D01*
X-5851119Y-2626028D01*
X-5839701Y-2637446D01*
X-5839701Y-2942554D01*
X-6030201Y-3133054D01*
X-6030201Y-4067645D01*
X-7033301Y-5070745D01*
X-7033301Y-5196470D01*
X-7189530Y-5352699D01*
X-7410470Y-5352699D01*
X-7566699Y-5196470D01*
X-7566699Y-4975530D01*
X-7410470Y-4819301D01*
X-7284745Y-4819301D01*
X-6385799Y-3920355D01*
X-6385799Y-3133054D01*
X-6576299Y-2942554D01*
X-6576299Y-2637446D01*
X-6360554Y-2421701D01*
X-6117625Y-2421701D01*
X-7023099Y-1516227D01*
X-7023099Y+1157655D01*
X-7284745Y+1419301D01*
X-7410470Y+1419301D01*
X-7566699Y+1575530D01*
X-7566699Y+1796470D01*
X-7410470Y+1952699D01*
X-7189530Y+1952699D01*
X-7033301Y+1796470D01*
G37*
G36*
X-7033301Y-1489530D02*
X-7033301Y-1710470D01*
X-7176831Y-1854000D01*
X-7033301Y-1997530D01*
X-7033301Y-2218470D01*
X-7189530Y-2374699D01*
X-7366001Y-2374699D01*
X-7366001Y-2482555D01*
X-7315255Y-2533301D01*
X-7189530Y-2533301D01*
X-7033301Y-2689530D01*
X-7033301Y-2910470D01*
X-7189530Y-3066699D01*
X-7410470Y-3066699D01*
X-7566699Y-2910470D01*
X-7566699Y-2784745D01*
X-7721599Y-2629845D01*
X-7721599Y-1770155D01*
X-7566699Y-1615255D01*
X-7566699Y-1489530D01*
X-7410470Y-1333301D01*
X-7189530Y-1333301D01*
X-7033301Y-1489530D01*
G37*
G36*
X-7566699Y-710470D02*
X-7566699Y-489530D01*
X-7410470Y-333301D01*
X-7189530Y-333301D01*
X-7033301Y-489530D01*
X-7033301Y-710470D01*
X-7189530Y-866699D01*
X-7410470Y-866699D01*
X-7566699Y-710470D01*
G37*
G36*
X-6813773Y-2582491D02*
X-6897941Y-2436708D01*
X-6854373Y-2274109D01*
X-6708590Y-2189941D01*
X-6545991Y-2233509D01*
X-6461823Y-2379292D01*
X-6505391Y-2541891D01*
X-6651174Y-2626059D01*
X-6813773Y-2582491D01*
G37*
G36*
X-6784168Y+3603199D02*
X-6615832Y+3603199D01*
X-6496801Y+3484168D01*
X-6496801Y+3315832D01*
X-6615832Y+3196801D01*
X-6784168Y+3196801D01*
X-6903199Y+3315832D01*
X-6903199Y+3484168D01*
X-6784168Y+3603199D01*
G37*
G36*
X-6784168Y+2587199D02*
X-6615832Y+2587199D01*
X-6496801Y+2468168D01*
X-6496801Y+2299832D01*
X-6615832Y+2180801D01*
X-6784168Y+2180801D01*
X-6903199Y+2299832D01*
X-6903199Y+2468168D01*
X-6784168Y+2587199D01*
G37*
G36*
X-7134101Y+3496101D02*
X-7134101Y+2480101D01*
X-7819899Y+2480101D01*
X-7819899Y+3927899D01*
X-7134101Y+3927899D01*
X-7134101Y+3496101D01*
G37*
%LPD*%
G36*
X-3905924Y+3654480D02*
X-3917184Y+3658050D01*
X-3992920Y+3665770D01*
X-4068656Y+3658050D01*
X-4142738Y+3634564D01*
X-4212114Y+3595072D01*
X-4273618Y+3539513D01*
X-4324311Y+3466696D01*
X-4358858Y+3372806D01*
X-4367653Y+3291111D01*
X-4358858Y+3209416D01*
X-4338941Y+3155285D01*
X-4445001Y+3261345D01*
X-4445001Y+3667745D01*
X-4628201Y+3850945D01*
X-4628201Y+3896701D01*
X-4361501Y+3896701D01*
X-4361501Y+4110057D01*
X-3905924Y+3654480D01*
G37*
G36*
X+4203701Y+3864669D02*
X+4203701Y+3599816D01*
X+4142658Y+3634564D01*
X+4068576Y+3658050D01*
X+3992840Y+3665770D01*
X+3917104Y+3658050D01*
X+3843022Y+3634564D01*
X+3773646Y+3595072D01*
X+3712142Y+3539513D01*
X+3682999Y+3497652D01*
X+3682999Y+3520455D01*
X+3859496Y+3696952D01*
X+3859496Y+4173168D01*
X+3877349Y+4191021D01*
X+4203701Y+3864669D01*
G37*
G36*
X-3771899Y+2588243D02*
X-4126011Y+2942355D01*
X-4068656Y+2924172D01*
X-3992920Y+2916452D01*
X-3917184Y+2924172D01*
X-3843102Y+2947658D01*
X-3773726Y+2987150D01*
X-3771899Y+2988800D01*
X-3771899Y+2588243D01*
G37*
G36*
X-279399Y+3027955D02*
X-279399Y+2755899D01*
X-480357Y+2755899D01*
X-376201Y+2860055D01*
X-376201Y+3084101D01*
X-335545Y+3084101D01*
X-279399Y+3027955D01*
G37*
G36*
X-2967988Y+3116544D02*
X-2972035Y+3116008D01*
X-3041447Y+3086651D01*
X-3103536Y+3036292D01*
X-3153488Y+2960754D01*
X-3177305Y+2850000D01*
X-3153488Y+2739246D01*
X-3103536Y+2663708D01*
X-3041447Y+2613349D01*
X-2972035Y+2583992D01*
X-2925263Y+2577799D01*
X-3076355Y+2577799D01*
X-3192597Y+2694041D01*
X-3192596Y+3341152D01*
X-2967988Y+3116544D01*
G37*
G36*
X+4472201Y+2190499D02*
X+4321093Y+2190499D01*
X+4305299Y+2174705D01*
X+4305299Y+2517155D01*
X+4472201Y+2684057D01*
X+4472201Y+2190499D01*
G37*
G36*
X+109501Y+2124460D02*
X-617501Y+2124460D01*
X-617501Y+2134101D01*
X-464572Y+2134101D01*
X-427000Y+2171673D01*
X-389428Y+2134101D01*
X-210572Y+2134101D01*
X-84101Y+2260572D01*
X-84101Y+2400301D01*
X+109501Y+2400301D01*
X+109501Y+2124460D01*
G37*
G36*
X-3275722Y+2274278D02*
X-3223645Y+2222201D01*
X-2373645Y+2222201D01*
X-2279343Y+2127899D01*
X-2544499Y+2127899D01*
X-2544499Y+2089799D01*
X-3326355Y+2089799D01*
X-3416301Y+2179745D01*
X-3416301Y+2414857D01*
X-3275722Y+2274278D01*
G37*
G36*
X+1343357Y+1948499D02*
X+1108701Y+1948499D01*
X+1108701Y+1941289D01*
X+1103982Y+1956874D01*
X+1097764Y+1968501D01*
X+1323355Y+1968501D01*
X+1343357Y+1948499D01*
G37*
G36*
X-4813299Y+2123855D02*
X-4813299Y+1866899D01*
X-4886947Y+1866899D01*
X-4991099Y+1762747D01*
X-4991099Y+1701899D01*
X-5372101Y+1701899D01*
X-5372101Y+1890445D01*
X-5665757Y+2184101D01*
X-4873545Y+2184101D01*
X-4813299Y+2123855D01*
G37*
G36*
X-2481821Y+2630377D02*
X-2429796Y+2578352D01*
X-2070223Y+2578102D01*
X-2070223Y+2578254D01*
X-2070100Y+2578101D01*
X-1619250Y+2578101D01*
X-1619250Y+2554428D01*
X-1585772Y+2520950D01*
X-1538428Y+2520950D01*
X-1504950Y+2554428D01*
X-1504950Y+2578101D01*
X-1419843Y+2578101D01*
X-1527799Y+2470145D01*
X-1527799Y+1881528D01*
X-1565899Y+1843428D01*
X-1565899Y+1664572D01*
X-1528327Y+1627000D01*
X-1565899Y+1589428D01*
X-1565899Y+1436499D01*
X-1591299Y+1436499D01*
X-1591299Y+1055501D01*
X-1108701Y+1055501D01*
X-1108701Y+1058711D01*
X-1103982Y+1043126D01*
X-1078756Y+995957D01*
X-1045070Y+954928D01*
X-1004043Y+921244D01*
X-956877Y+896019D01*
X-904966Y+880302D01*
X-856033Y+875540D01*
X-490499Y+875540D01*
X-490499Y+865899D01*
X-643428Y+865899D01*
X-681000Y+828327D01*
X-718572Y+865899D01*
X-897428Y+865899D01*
X-935528Y+827799D01*
X-1838155Y+827799D01*
X-1922201Y+911845D01*
X-1922201Y+934101D01*
X-1909501Y+934101D01*
X-1909501Y+1365899D01*
X-2544499Y+1365899D01*
X-2544499Y+934101D01*
X-2277799Y+934101D01*
X-2277799Y+764555D01*
X-1985445Y+472201D01*
X-985798Y+472201D01*
X-985798Y+353354D01*
X-695945Y+63501D01*
X+187845Y+63501D01*
X+368201Y+243857D01*
X+368201Y-19645D01*
X+545201Y-196645D01*
X+545201Y-376252D01*
X+723748Y-554799D01*
X+976252Y-554799D01*
X+1154799Y-376252D01*
X+1154799Y-123748D01*
X+976252Y+54799D01*
X+796645Y+54799D01*
X+723799Y+127645D01*
X+723799Y+408701D01*
X+990499Y+408701D01*
X+990499Y+891299D01*
X+941289Y+891299D01*
X+956877Y+896019D01*
X+1004043Y+921244D01*
X+1045070Y+954928D01*
X+1078756Y+995957D01*
X+1103982Y+1043126D01*
X+1119698Y+1095034D01*
X+1124460Y+1143967D01*
X+1124460Y+1567501D01*
X+1134101Y+1567501D01*
X+1134101Y+1414572D01*
X+1171673Y+1377000D01*
X+1134101Y+1339428D01*
X+1134101Y+1160572D01*
X+1260572Y+1034101D01*
X+1439428Y+1034101D01*
X+1477528Y+1072201D01*
X+1722455Y+1072201D01*
X+1663701Y+1013447D01*
X+1663701Y+866153D01*
X+1767853Y+762001D01*
X+3502646Y+762002D01*
X+3505200Y+764556D01*
X+3505201Y+764555D01*
X+3505201Y+332755D01*
X+3793755Y+44201D01*
X+4209501Y+44201D01*
X+4209501Y-110907D01*
X+4257594Y-159000D01*
X+4209501Y-207093D01*
X+4209501Y-362201D01*
X+3953745Y-362201D01*
X+3197845Y+393699D01*
X+1755155Y+393699D01*
X+1473201Y+111745D01*
X+1473201Y-2201101D01*
X-812801Y-2201101D01*
X-812801Y-554799D01*
X-773748Y-554799D01*
X-595201Y-376252D01*
X-595201Y-123748D01*
X-773748Y+54799D01*
X-1026252Y+54799D01*
X-1204799Y-123748D01*
X-1204799Y-376252D01*
X-1113098Y-467952D01*
X-1168399Y-523253D01*
X-1168399Y-2201101D01*
X-2603499Y-2201101D01*
X-2603499Y-2692401D01*
X-2936255Y-2692401D01*
X-3009901Y-2618755D01*
X-3009901Y-2249993D01*
X-2972035Y-2266008D01*
X-2900000Y-2275546D01*
X-2827965Y-2266008D01*
X-2758553Y-2236651D01*
X-2696464Y-2186292D01*
X-2646512Y-2110754D01*
X-2622695Y-2000000D01*
X-2646512Y-1889246D01*
X-2696464Y-1813708D01*
X-2758553Y-1763349D01*
X-2827965Y-1733992D01*
X-2900000Y-1724454D01*
X-2972035Y-1733992D01*
X-3009901Y-1750007D01*
X-3009901Y+759447D01*
X-3114053Y+863599D01*
X-3261347Y+863599D01*
X-3365499Y+759447D01*
X-3365499Y-2766045D01*
X-3261343Y-2870201D01*
X-3342655Y-2870201D01*
X-3416301Y-2796555D01*
X-3416301Y+441945D01*
X-3619501Y+645145D01*
X-3619501Y+1880057D01*
X-3473645Y+1734201D01*
X-2544499Y+1734201D01*
X-2544499Y+1696101D01*
X-1909501Y+1696101D01*
X-1909501Y+2127899D01*
X-1922201Y+2127899D01*
X-1922201Y+2273645D01*
X-2226355Y+2577799D01*
X-2874737Y+2577799D01*
X-2827965Y+2583992D01*
X-2758553Y+2613349D01*
X-2696464Y+2663708D01*
X-2646512Y+2739246D01*
X-2636632Y+2785188D01*
X-2481821Y+2630377D01*
G37*
%LPC*%
G36*
X-692150Y-1725472D02*
X-692150Y-1678128D01*
X-658672Y-1644650D01*
X-611328Y-1644650D01*
X-577850Y-1678128D01*
X-577850Y-1725472D01*
X-611328Y-1758950D01*
X-658672Y-1758950D01*
X-692150Y-1725472D01*
G37*
%LPD*%
G36*
X-998499Y+2108701D02*
X-941289Y+2108701D01*
X-956877Y+2103981D01*
X-1004043Y+2078756D01*
X-1045070Y+2045072D01*
X-1078756Y+2004043D01*
X-1103982Y+1956874D01*
X-1119698Y+1904966D01*
X-1124460Y+1856033D01*
X-1124460Y+1436499D01*
X-1134101Y+1436499D01*
X-1134101Y+1589428D01*
X-1171673Y+1627000D01*
X-1134101Y+1664572D01*
X-1134101Y+1843428D01*
X-1172201Y+1881528D01*
X-1172201Y+2322855D01*
X-1094755Y+2400301D01*
X-998499Y+2400301D01*
X-998499Y+2108701D01*
G37*
G36*
X+1752601Y+2098055D02*
X+1752601Y+1501445D01*
X+1678955Y+1427799D01*
X+1648443Y+1427799D01*
X+1752599Y+1531955D01*
X+1752599Y+2042145D01*
X+1622543Y+2172201D01*
X+1678455Y+2172201D01*
X+1752601Y+2098055D01*
G37*
G36*
X+76101Y+560572D02*
X+114201Y+522472D01*
X+114201Y+492745D01*
X+40555Y+419099D01*
X+31128Y+419099D01*
X+50799Y+438770D01*
X+50799Y+599455D01*
X+76101Y+624757D01*
X+76101Y+560572D01*
G37*
G36*
X+3712142Y+3042709D02*
X+3773646Y+2987150D01*
X+3843022Y+2947658D01*
X+3917104Y+2924172D01*
X+3992840Y+2916452D01*
X+4068576Y+2924172D01*
X+4142658Y+2947658D01*
X+4203701Y+2982406D01*
X+4203701Y+2918445D01*
X+3949701Y+2664445D01*
X+3949701Y+1882153D01*
X+3949702Y+1181100D01*
X+3949701Y+399799D01*
X+3941045Y+399799D01*
X+3860799Y+480045D01*
X+3860799Y+911845D01*
X+3682999Y+1089645D01*
X+3682999Y+3084571D01*
X+3712142Y+3042709D01*
G37*
G36*
X+4658701Y+1047501D02*
X+4658701Y-616201D01*
X+4590499Y-616201D01*
X+4590499Y-461093D01*
X+4542406Y-413000D01*
X+4590499Y-364907D01*
X+4590499Y-207093D01*
X+4542406Y-159000D01*
X+4590499Y-110907D01*
X+4590499Y+46907D01*
X+4542406Y+95000D01*
X+4590499Y+143093D01*
X+4590499Y+300907D01*
X+4542406Y+349000D01*
X+4590499Y+397093D01*
X+4590499Y+554907D01*
X+4542406Y+603000D01*
X+4590499Y+651093D01*
X+4590499Y+808907D01*
X+4542406Y+857000D01*
X+4590499Y+905093D01*
X+4590499Y+1062907D01*
X+4542406Y+1111000D01*
X+4590499Y+1159093D01*
X+4590499Y+1177055D01*
X+4658701Y+1245257D01*
X+4658701Y+1047501D01*
G37*
G36*
X-3975099Y+497855D02*
X-3771899Y+294655D01*
X-3771899Y-2695364D01*
X-3773726Y-2693714D01*
X-3843102Y-2654222D01*
X-3917184Y-2630736D01*
X-3992920Y-2623016D01*
X-4068656Y-2630736D01*
X-4142738Y-2654222D01*
X-4212114Y-2693714D01*
X-4267201Y-2743476D01*
X-4267201Y-2059955D01*
X-4457701Y-1869455D01*
X-4457701Y-1569899D01*
X-4335545Y-1569899D01*
X-4277799Y-1627645D01*
X-4277799Y-1778455D01*
X-4318059Y-1928708D01*
X-4233891Y-2074491D01*
X-4071292Y-2118059D01*
X-3925509Y-2033891D01*
X-3881941Y-1871292D01*
X-3922202Y-1801558D01*
X-3922203Y-1480353D01*
X-4084101Y-1318455D01*
X-4084101Y-884101D01*
X-4457701Y-884101D01*
X-4457701Y-719468D01*
X-4310470Y-866699D01*
X-4089530Y-866699D01*
X-3933301Y-710470D01*
X-3933301Y-489530D01*
X-4089530Y-333301D01*
X-4310470Y-333301D01*
X-4457701Y-480532D01*
X-4457701Y+508001D01*
X-4384053Y+508001D01*
X-4279901Y+612153D01*
X-4279901Y+1419301D01*
X-4089530Y+1419301D01*
X-3975099Y+1533732D01*
X-3975099Y+497855D01*
G37*
G36*
X-4991099Y-1657456D02*
X-5022201Y-1626355D01*
X-5022201Y-1569899D01*
X-4991099Y-1569899D01*
X-4991099Y-1657456D01*
G37*
G36*
X-4622799Y-2207245D02*
X-4622799Y-2446348D01*
X-4647446Y-2421701D01*
X-4773186Y-2421701D01*
X-4761823Y-2379292D01*
X-4802083Y-2309560D01*
X-4802083Y-2296145D01*
X-4667991Y-2162053D01*
X-4622799Y-2207245D01*
G37*
G36*
X+3754378Y-665722D02*
X+3806455Y-717799D01*
X+4209501Y-717799D01*
X+4209501Y-872907D01*
X+4257594Y-921000D01*
X+4209501Y-969093D01*
X+4209501Y-1126907D01*
X+4257594Y-1175000D01*
X+4209501Y-1223093D01*
X+4209501Y-1380907D01*
X+4257594Y-1429000D01*
X+4209501Y-1477093D01*
X+4209501Y-1634907D01*
X+4321093Y-1746499D01*
X+4472201Y-1746499D01*
X+4472201Y-2375653D01*
X+4429380Y-2418474D01*
X+3651082Y-2418474D01*
X+3576355Y-2493201D01*
X+2603499Y-2493201D01*
X+2603499Y-2201101D01*
X+2514599Y-2201101D01*
X+2514599Y-911845D01*
X+3124198Y-302246D01*
X+3124198Y-154954D01*
X+3020046Y-50802D01*
X+2872754Y-50802D01*
X+2159001Y-764555D01*
X+2159001Y-1130301D01*
X+2085353Y-1130301D01*
X+2082799Y-1132855D01*
X+2082799Y+38101D01*
X+3050555Y+38101D01*
X+3754378Y-665722D01*
G37*
%LPC*%
G36*
X+2916337Y-1726617D02*
X+2972035Y-1733992D01*
X+3041447Y-1763349D01*
X+3103536Y-1813708D01*
X+3153488Y-1889246D01*
X+3177305Y-2000000D01*
X+3153488Y-2110754D01*
X+3103536Y-2186292D01*
X+3041447Y-2236651D01*
X+3025212Y-2243518D01*
X+2972035Y-2266008D01*
X+2900000Y-2275546D01*
X+2827965Y-2266008D01*
X+2758553Y-2236651D01*
X+2696464Y-2186292D01*
X+2646512Y-2110754D01*
X+2622695Y-2000000D01*
X+2646512Y-1889246D01*
X+2696464Y-1813708D01*
X+2758553Y-1763349D01*
X+2774788Y-1756482D01*
X+2827965Y-1733992D01*
X+2900000Y-1724454D01*
X+2916337Y-1726617D01*
G37*
%LPD*%
G36*
X+1473201Y-3253755D02*
X+1399555Y-3327401D01*
X-3818988Y-3327401D01*
X-3773726Y-3301636D01*
X-3712222Y-3246077D01*
X-3661529Y-3173260D01*
X-3629508Y-3086236D01*
X-3489945Y-3225799D01*
X+1216647Y-3225799D01*
X+1320799Y-3121647D01*
X+1320799Y-3047999D01*
X+1470646Y-3047999D01*
X+1473201Y-3045444D01*
X+1473201Y-3253755D01*
G37*
G36*
X-4222184Y-3292540D02*
X-4212114Y-3301636D01*
X-4166852Y-3327401D01*
X-4193555Y-3327401D01*
X-4267201Y-3253755D01*
X-4267201Y-3251874D01*
X-4222184Y-3292540D01*
G37*
D10*
X-5800001Y-1900001D02*
X-5800000Y-1900000D01*
X-5800001Y-1553999D01*
X-6000000Y-1354000D01*
X-5000001Y-1900001D02*
X-5000000Y-1900000D01*
X-5200000Y-1700002D01*
X-5200000Y-1354000D01*
X+5584000Y-5000000D02*
X+5584000Y-4165600D01*
X+5462000Y-4043600D01*
X+5462000Y-3754000D01*
X+5462000Y-3753999D01*
X-4100001Y-1900001D02*
X-4100000Y-1900000D01*
X-4100001Y-1553999D01*
X-4300000Y-1354000D01*
X+6800000Y-5334000D02*
X+6800000Y-5130800D01*
X+6900000Y-5030800D01*
X+6900000Y-4800000D01*
X+6300000Y-3000000D02*
X+6300000Y-1917700D01*
X+6184900Y-1802600D01*
X+6184900Y+4343400D01*
X+6454000Y+4612500D01*
X+6454000Y+5100000D01*
X-4813300Y+1689100D02*
X-4813300Y-2055918D01*
X-4979882Y-2222500D01*
X-4979882Y-2408000D01*
X+3850406Y+4469408D02*
X+3850407Y+4469408D01*
X+4381500Y+3938314D01*
X+4381500Y+2844800D01*
X+4127500Y+2590800D01*
X+4127500Y+1955800D01*
X-7300000Y+1686000D02*
X-6845300Y+1231300D01*
X-6845300Y-1442582D01*
X-5879882Y-2408000D01*
X+4572000Y-2527300D02*
X+4927600Y-2882900D01*
X+4927600Y-3322200D01*
X+5105400Y-3500000D01*
X+5462000Y-3500000D01*
X+4400000Y-540000D02*
X+3880100Y-540000D01*
X+3124200Y+215900D01*
X+1828800Y+215900D01*
X+1651000Y+38100D01*
X+1651000Y-2417000D01*
X+6900000Y-32000D02*
X+7200000Y+268000D01*
X+7200000Y+3100000D01*
X-4805999Y+4138000D02*
X-4806000Y+4138000D01*
X-5000000Y-6000000D02*
X-5613400Y-5386600D01*
X-5613400Y-1277800D01*
X-5791200Y-1100000D01*
X-6000000Y-1100000D01*
X+7500000Y-4400000D02*
X+7500000Y-5219700D01*
X+6800000Y-5919700D01*
X+6800000Y-6350000D01*
X+4900000Y-1302000D02*
X+5118100Y-1302000D01*
X+5118100Y-3136900D01*
X+5295900Y-3314700D01*
X+6464300Y-3314700D01*
X+6642100Y-3136900D01*
X+6642100Y-793999D01*
X+6424000Y-794000D01*
X+6424000Y-793999D01*
X+4792000Y-6000000D02*
X+4792000Y-5448300D01*
X+4946000Y-5294300D01*
X+4946000Y-4300000D01*
X+4700000Y-3754000D02*
X+4946000Y-3754000D01*
X+4946000Y-4300000D01*
X+1130300Y-1905000D02*
X+1397000Y-2171700D01*
X+1397000Y-2417000D01*
X-6130000Y-414000D02*
X-6130000Y-746300D01*
X-6000000Y-876300D01*
X-6000000Y-1100000D01*
X-6384000Y+1486000D02*
X-6384000Y+2184400D01*
X-6337300Y+2231100D01*
X-6337300Y+2882900D01*
X-6261100Y+2959100D01*
X-7350000Y+3204000D02*
X-6506000Y+3204000D01*
X-6261100Y+2959100D01*
X-5422900Y+2959100D02*
X-5346700Y+2959100D01*
X-5346700Y+2934400D01*
X-5346000Y+2933700D01*
X-5346000Y+2400000D01*
X-5346000Y+3400000D02*
X-5346700Y+3399300D01*
X-5346700Y+3035300D01*
X-5422900Y+2959100D01*
X-6384000Y-414000D02*
X-6384000Y+1486000D01*
X+1130300Y-1905000D02*
X+1054100Y-1981200D01*
X-558800Y-1981200D01*
X-6261100Y+2959100D02*
X-5422900Y+2959100D01*
X-558800Y-1981200D02*
X-635000Y-2057400D01*
X-635000Y-2417000D01*
X-1350000Y+1246000D02*
X-1562100Y+1246000D01*
X-1562100Y+2578100D01*
X-635000Y-1701800D02*
X-635000Y-1905000D01*
X-558800Y-1981200D01*
X+2336800Y-2197100D02*
X+2336800Y-838200D01*
X+2946400Y-228600D01*
X-990600Y-596900D02*
X-990600Y-2197100D01*
X-7300000Y-1600000D02*
X-7543800Y-1843800D01*
X-7543800Y-2556200D01*
X-7300000Y-2800000D01*
X-5059999Y+4138000D02*
X-5060000Y+4138000D01*
X-5059999Y+3432001D01*
X-5092000Y+3400000D01*
X+1651000Y-2671000D02*
X+1651000Y-3327400D01*
X+1473200Y-3505200D01*
X-4267200Y-3505200D01*
X-4445000Y-3327400D01*
X-4445000Y-2133600D01*
X-4635500Y-1943100D01*
X-4635500Y+2197500D01*
X-4838000Y+2400000D01*
X+4900000Y-32000D02*
X+5118100Y-32000D01*
X+5118100Y+2387600D01*
X-5549900Y+38100D02*
X-5549900Y+1816800D01*
X-5854000Y+2120900D01*
X-5854000Y+2400000D01*
X+1905000Y+38100D02*
X+1905000Y-2417000D01*
X+3505200Y+1016000D02*
X+3429000Y+939800D01*
X+1841500Y+939800D01*
X+4400000Y+222000D02*
X+3867400Y+222000D01*
X+3683000Y+406400D01*
X+3683000Y+838200D01*
X+3505200Y+1016000D01*
X+3505200Y+3594100D01*
X+3681697Y+3770597D01*
X+3681697Y+4278907D01*
X+3670802Y+4289802D01*
X-5803900Y-901700D02*
X-5803900Y+1790700D01*
X-6108000Y+2094800D01*
X-6108000Y+2400000D01*
X+2159000Y-1308100D02*
X+2159000Y-2417000D01*
X+7016000Y+4300000D02*
X+6642100Y+3926100D01*
X+6642100Y-282100D01*
X+6900000Y-540000D01*
X+7016000Y+4300000D02*
X+7016000Y+4792000D01*
X+6708000Y+5100000D01*
X-3187700Y+685800D02*
X-3187700Y-2692400D01*
X-3009900Y-2870200D01*
X+1397000Y-2870200D01*
X+1397000Y-2671000D01*
X-4457700Y+685800D02*
X-4457700Y+2413000D01*
X-4635500Y+2590800D01*
X-5092000Y+2590800D01*
X-5092000Y+2400000D01*
X-6208000Y-2790000D02*
X-6208000Y-3994000D01*
X-7300000Y-5086000D01*
X-6208000Y-4900000D02*
X-6208000Y-5519700D01*
X-6000000Y-5727700D01*
X-6000000Y-6000000D01*
X-4800000Y-4900000D02*
X-4800000Y-5692000D01*
X-4492000Y-6000000D01*
X+1350000Y+1504000D02*
X+1473200Y+1504000D01*
X+1574800Y+1605600D01*
X+1574800Y+1968500D01*
X+1397000Y+2146300D01*
X+655600Y+2146300D01*
X+554000Y+2247900D01*
X+554000Y+2350000D01*
X+546000Y+650000D02*
X+546000Y+54000D01*
X+850000Y-250000D01*
X-1003300Y+2755900D02*
X-731800Y+2755900D01*
X-554000Y+2933700D01*
X-554000Y+3300000D01*
X-808000Y+650000D02*
X-1911800Y+650000D01*
X-2100000Y+838200D01*
X-2100000Y+1150000D01*
X-1350000Y+1754000D02*
X-1350000Y+2396500D01*
X-1168400Y+2578100D01*
X-304800Y+2578100D01*
X+808000Y+2350000D02*
X+1752100Y+2350000D01*
X+1930400Y+2171700D01*
X+1930400Y+1427800D01*
X+1752600Y+1250000D01*
X+1350000Y+1250000D01*
X-808000Y+650000D02*
X-808000Y+427000D01*
X-622300Y+241300D01*
X+114200Y+241300D01*
X+292000Y+419100D01*
X+292000Y+650000D01*
X-3370395Y+3970395D02*
X-3370394Y+3970394D01*
X+3311592Y+3930592D02*
X+2934092Y+3930592D01*
X+2800000Y+3796500D01*
X+2800000Y+3321390D01*
X+2597333Y+3118723D01*
X+2597333Y+2735326D01*
X+2750000Y+2582659D01*
X+2750000Y+1754000D01*
X-2006600Y+3225800D02*
X-1714500Y+3517900D01*
X+1905000Y+3517900D01*
X+2413000Y-2671000D02*
X+3650000Y-2671000D01*
X+3724727Y-2596273D01*
X+4503027Y-2596273D01*
X+4572000Y-2527300D01*
X-4806000Y+4138000D02*
X-4805999Y+3777299D01*
X-4622800Y+3594100D01*
X-4622800Y+3187700D01*
X-3797300Y+2362200D01*
X-3797300Y+571500D01*
X-3594100Y+368300D01*
X-3594100Y-2870200D01*
X-3416300Y-3048000D01*
X+1143000Y-3048000D01*
X-4806000Y+4900000D02*
X-4806000Y+4539300D01*
X-4622800Y+4356100D01*
X-4356100Y+4356100D01*
X-3594100Y+3594100D01*
X-3594100Y+2106100D01*
X-3400000Y+1912000D01*
X-2354000Y+1912000D01*
X-3370394Y+3970394D02*
X-3370395Y+2620395D01*
X-3150000Y+2400000D01*
X-2300000Y+2400000D01*
X-2100000Y+2200000D01*
X-2100000Y+1912000D01*
X-7604000Y+3712000D02*
X-7604000Y+3458000D01*
X-7604000Y+3204000D01*
X-7604000Y+2950000D01*
X-7604000Y+2696000D01*
X-7350000Y+3712000D02*
X-7350000Y+3458001D01*
X-7350000Y+3458000D01*
X-7350000Y+3204000D01*
X-7350000Y+2950000D01*
X-7350000Y+3204000D02*
X-7350000Y+3458001D01*
X+4400000Y+1238000D02*
X+4650000Y+1488000D01*
X+4650000Y+4950000D01*
X+4800000Y+5100000D01*
X+4900000Y-794000D02*
X+4650000Y-794000D01*
X+4650000Y-2527300D01*
X+4572000Y-2527300D01*
X+4127500Y+1955800D02*
X+4127500Y+406400D01*
X-808000Y+2350000D02*
X-977400Y+2350000D01*
X-1155700Y+2171700D01*
X-1155700Y+1246000D01*
X-1350000Y+1246000D01*
X-1003300Y+2755900D02*
X-2070100Y+2755900D01*
X-2356099Y+2756099D01*
X-3175000Y+3575000D01*
X-3175000Y+4176000D01*
X-3249000Y+4250000D01*
X-3450000Y+4250000D01*
X-3550000Y+4150000D01*
X-7350000Y+2950000D02*
X-7350000Y+2722771D01*
X-7350000Y+2696000D01*
X+546000Y+650000D02*
X+546000Y+749300D01*
X+444400Y+850900D01*
X+50800Y+850900D01*
X-127000Y+673100D01*
X-127000Y+512415D01*
X-220315Y+419100D01*
X-452400Y+419100D01*
X-554000Y+520700D01*
X-554000Y+650000D01*
X+800000Y+650000D02*
X+965150Y+650000D01*
X+1130300Y+484850D01*
X+1130300Y+0D01*
X+1229799Y-99499D01*
X+1229799Y-459168D01*
X+1130300Y-558667D01*
X+1130300Y-1905000D01*
X-300000Y+2350000D02*
X-300000Y+2573300D01*
X-300000Y+2578100D01*
X-101600Y+2578100D01*
X+706400Y+2578100D01*
X+808000Y+2476500D01*
X+808000Y+2350000D01*
X-300000Y+2573300D02*
X-304800Y+2578100D01*
X-300000Y+2578100D01*
X-101600Y+2578100D02*
X-101600Y+3101600D01*
X-300000Y+3300000D01*
D11*
X-4813300Y+1689100D03*
X-635000Y-1701800D03*
X+2946400Y-228600D03*
X+2336800Y-2197100D03*
X-990600Y-2197100D03*
X-990600Y-596900D03*
X-5549900Y+38100D03*
X+1905000Y+38100D03*
X-5803900Y-901700D03*
X+2159000Y-1308100D03*
X-3187700Y+685800D03*
X-4457700Y+685800D03*
X-2006600Y+3225800D03*
X+1905000Y+3517900D03*
X+1143000Y-3048000D03*
X+4127500Y+1955800D03*
X+4127500Y+406400D03*
X-1003300Y+2755900D03*
X-1562100Y+2578100D03*
X+5118100Y+2387600D03*
X+1841500Y+939800D03*
D12*
X+6820442Y+5610212D02*
X+6858392Y+5604585D01*
X+6894506Y+5595486D01*
X+6928660Y+5583124D01*
X+6960790Y+5567663D01*
X+6990743Y+5549291D01*
X+7018429Y+5528135D01*
X+7047008Y+5501230D01*
X+7750200Y+4798038D01*
X+7777105Y+4769459D01*
X+7798260Y+4741774D01*
X+7816635Y+4711819D01*
X+7832093Y+4679691D01*
X+7844456Y+4645536D01*
X+7853555Y+4609422D01*
X+7859182Y+4571472D01*
X+7861260Y+4528781D01*
X+7861260Y-5533031D01*
X+7859182Y-5575722D01*
X+7853555Y-5613672D01*
X+7844456Y-5649786D01*
X+7832093Y-5683941D01*
X+7816635Y-5716069D01*
X+7798260Y-5746024D01*
X+7777105Y-5773709D01*
X+7750200Y-5802288D01*
X+7047008Y-6505480D01*
X+7018429Y-6532385D01*
X+6990743Y-6553541D01*
X+6960790Y-6571913D01*
X+6928660Y-6587374D01*
X+6894506Y-6599736D01*
X+6858392Y-6608835D01*
X+6820442Y-6614462D01*
X+6777751Y-6616540D01*
X+4452144Y-6616540D01*
X+4409453Y-6614462D01*
X+4371503Y-6608835D01*
X+4335389Y-6599736D01*
X+4301235Y-6587374D01*
X+4269105Y-6571913D01*
X+4239152Y-6553541D01*
X+4211466Y-6532385D01*
X+4182887Y-6505480D01*
X+3479695Y-5802288D01*
X+3452790Y-5773709D01*
X+3431634Y-5746023D01*
X+3413262Y-5716072D01*
X+3397802Y-5683941D01*
X+3385438Y-5649784D01*
X+3376340Y-5613672D01*
X+3370713Y-5575722D01*
X+3368635Y-5533031D01*
X+3368635Y-4848467D01*
X+3368487Y-4845425D01*
X+3365664Y-4787423D01*
X+3356419Y-4725066D01*
X+3341232Y-4664791D01*
X+3320313Y-4607000D01*
X+3293904Y-4552111D01*
X+3262229Y-4500473D01*
X+3225576Y-4452506D01*
X+3187318Y-4411869D01*
X+2478824Y-3703375D01*
X+2477453Y-3702084D01*
X+2438187Y-3665117D01*
X+2390220Y-3628464D01*
X+2338584Y-3596791D01*
X+2283695Y-3570380D01*
X+2225892Y-3549458D01*
X+2165628Y-3534275D01*
X+2103268Y-3525029D01*
X+2042225Y-3522058D01*
X+1707786Y-3522058D01*
X+1828799Y-3401045D01*
X+1828799Y-2886899D01*
X+2603499Y-2886899D01*
X+2603499Y-2848799D01*
X+3651621Y-2848799D01*
X+3626902Y-2915980D01*
X+3618107Y-2997675D01*
X+3626902Y-3079370D01*
X+3661449Y-3173260D01*
X+3712142Y-3246077D01*
X+3773646Y-3301636D01*
X+3843022Y-3341128D01*
X+3917104Y-3364614D01*
X+3992840Y-3372334D01*
X+4068576Y-3364614D01*
X+4142658Y-3341128D01*
X+4212034Y-3301636D01*
X+4273538Y-3246077D01*
X+4324231Y-3173260D01*
X+4358778Y-3079370D01*
X+4367573Y-2997675D01*
X+4358778Y-2915980D01*
X+4324231Y-2822090D01*
X+4290802Y-2774072D01*
X+4422561Y-2774072D01*
X+4380801Y-2815832D01*
X+4380801Y-2984168D01*
X+4499832Y-3103199D01*
X+4668168Y-3103199D01*
X+4749801Y-3021566D01*
X+4749801Y-3309501D01*
X+4458701Y-3309501D01*
X+4458701Y-3944499D01*
X+4941299Y-3944499D01*
X+4941299Y-3587343D01*
X+5031755Y-3677799D01*
X+5220701Y-3677799D01*
X+5220701Y-3944499D01*
X+5284201Y-3944499D01*
X+5284201Y-4084101D01*
X+4730101Y-4084101D01*
X+4730101Y-4515899D01*
X+5406201Y-4515899D01*
X+5406201Y-4890432D01*
X+5380801Y-4915832D01*
X+5380801Y-5084168D01*
X+5499832Y-5203199D01*
X+5668168Y-5203199D01*
X+5787199Y-5084168D01*
X+5787199Y-4915832D01*
X+5761799Y-4890432D01*
X+5761799Y-4091955D01*
X+5639799Y-3969955D01*
X+5639799Y-3944499D01*
X+5703299Y-3944499D01*
X+5703299Y-3309501D01*
X+5220701Y-3309501D01*
X+5220701Y-3322201D01*
X+5179045Y-3322201D01*
X+5105399Y-3248555D01*
X+5105399Y-2809255D01*
X+4827799Y-2531655D01*
X+4827799Y-1746499D01*
X+5141299Y-1746499D01*
X+5141299Y-209799D01*
X+5191745Y-209799D01*
X+5295899Y-105645D01*
X+5295899Y+2461247D01*
X+5191747Y+2565399D01*
X+5044453Y+2565399D01*
X+4940301Y+2461247D01*
X+4940301Y+2190499D01*
X+4827799Y+2190499D01*
X+4827799Y+4876355D01*
X+4835545Y+4884101D01*
X+4889428Y+4884101D01*
X+4927000Y+4921673D01*
X+4964572Y+4884101D01*
X+5143428Y+4884101D01*
X+5181000Y+4921673D01*
X+5218572Y+4884101D01*
X+5397428Y+4884101D01*
X+5523899Y+5010572D01*
X+5523899Y+5189428D01*
X+5397428Y+5315899D01*
X+5218572Y+5315899D01*
X+5181000Y+5278327D01*
X+5143428Y+5315899D01*
X+4964572Y+5315899D01*
X+4927000Y+5278327D01*
X+4889428Y+5315899D01*
X+4710572Y+5315899D01*
X+4584101Y+5189428D01*
X+4584101Y+5135545D01*
X+4472201Y+5023645D01*
X+4472201Y+4099057D01*
X+4066306Y+4504953D01*
X+4066306Y+4558837D01*
X+3939836Y+4685307D01*
X+3760978Y+4685307D01*
X+3634508Y+4558837D01*
X+3634508Y+4505701D01*
X+3581373Y+4505701D01*
X+3454903Y+4379231D01*
X+3454903Y+4326096D01*
X+3401768Y+4326096D01*
X+3275298Y+4199626D01*
X+3275298Y+4146491D01*
X+3222163Y+4146491D01*
X+3095693Y+4020021D01*
X+3095693Y+3841163D01*
X+3222163Y+3714693D01*
X+3374349Y+3714693D01*
X+3327401Y+3667745D01*
X+3327401Y+1117598D01*
X+2926925Y+1117598D01*
X+2965899Y+1156572D01*
X+2965899Y+1335428D01*
X+2928327Y+1373000D01*
X+2965899Y+1410572D01*
X+2965899Y+1589428D01*
X+2928327Y+1627000D01*
X+2965899Y+1664572D01*
X+2965899Y+1843428D01*
X+2839428Y+1969899D01*
X+2660572Y+1969899D01*
X+2534101Y+1843428D01*
X+2534101Y+1664572D01*
X+2571673Y+1627000D01*
X+2534101Y+1589428D01*
X+2534101Y+1410572D01*
X+2571673Y+1373000D01*
X+2534101Y+1335428D01*
X+2534101Y+1156572D01*
X+2573074Y+1117599D01*
X+1871643Y+1117599D01*
X+2108199Y+1354155D01*
X+2108199Y+2245345D01*
X+1825745Y+2527799D01*
X+985799Y+2527799D01*
X+985799Y+2550145D01*
X+780045Y+2755899D01*
X+76199Y+2755899D01*
X+76199Y+3175245D01*
X-84101Y+3335545D01*
X-84101Y+3340101D01*
X+105501Y+3340101D01*
X+105501Y+3058701D01*
X+486499Y+3058701D01*
X+486499Y+3084101D01*
X+639428Y+3084101D01*
X+677000Y+3121673D01*
X+714572Y+3084101D01*
X+893428Y+3084101D01*
X+1019899Y+3210572D01*
X+1019899Y+3340101D01*
X+1978647Y+3340101D01*
X+2082799Y+3444253D01*
X+2082799Y+3591547D01*
X+2057741Y+3616605D01*
X+2103268Y+3618821D01*
X+2165628Y+3628067D01*
X+2171647Y+3629583D01*
X+2225892Y+3643250D01*
X+2283695Y+3664172D01*
X+2289369Y+3666902D01*
X+2338584Y+3690583D01*
X+2390220Y+3722256D01*
X+2438187Y+3758909D01*
X+2478824Y+3797167D01*
X+4182887Y+5501230D01*
X+4211466Y+5528135D01*
X+4239152Y+5549291D01*
X+4269105Y+5567663D01*
X+4301235Y+5583124D01*
X+4335389Y+5595486D01*
X+4371503Y+5604585D01*
X+4409453Y+5610212D01*
X+4452144Y+5612290D01*
X+6777751Y+5612290D01*
X+6820442Y+5610212D01*
X+2497088Y+3676071D02*
X+2545583Y+3669645D01*
X+2614980Y+3640262D01*
X+2628676Y+3629139D01*
X+2677051Y+3589849D01*
X+2726918Y+3514259D01*
X+2750568Y+3403910D01*
X+2726918Y+3293561D01*
X+2677051Y+3217971D01*
X+2614980Y+3167558D01*
X+2545583Y+3138175D01*
X+2473549Y+3128629D01*
X+2450010Y+3131749D01*
X+2401515Y+3138175D01*
X+2332118Y+3167558D01*
X+2318422Y+3178681D01*
X+2270047Y+3217971D01*
X+2220180Y+3293561D01*
X+2196530Y+3403910D01*
X+2220180Y+3514259D01*
X+2270047Y+3589849D01*
X+2332118Y+3640262D01*
X+2401515Y+3669645D01*
X+2473549Y+3679191D01*
X+2497088Y+3676071D01*
X+2916337Y+3123383D02*
X+2972035Y+3116008D01*
X+3041447Y+3086651D01*
X+3103536Y+3036292D01*
X+3153488Y+2960754D01*
X+3177305Y+2850000D01*
X+3153488Y+2739246D01*
X+3103536Y+2663708D01*
X+3041447Y+2613349D01*
X+3025212Y+2606482D01*
X+2972035Y+2583992D01*
X+2900000Y+2574454D01*
X+2827965Y+2583992D01*
X+2758553Y+2613349D01*
X+2696464Y+2663708D01*
X+2646512Y+2739246D01*
X+2622695Y+2850000D01*
X+2646512Y+2960754D01*
X+2696464Y+3036292D01*
X+2758553Y+3086651D01*
X+2774788Y+3093518D01*
X+2827965Y+3116008D01*
X+2900000Y+3125546D01*
X+2916337Y+3123383D01*
X+6923899Y+5189428D02*
X+6923899Y+5135545D01*
X+7193799Y+4865645D01*
X+7193799Y+4409568D01*
X+7219199Y+4384168D01*
X+7219199Y+4215832D01*
X+7100168Y+4096801D01*
X+7064245Y+4096801D01*
X+6819899Y+3852455D01*
X+6819899Y+2189305D01*
X+6821093Y+2190499D01*
X+6978907Y+2190499D01*
X+7022201Y+2147205D01*
X+7022201Y+2900630D01*
X+6933301Y+2989530D01*
X+6933301Y+3210470D01*
X+7076831Y+3354000D01*
X+6933301Y+3497530D01*
X+6933301Y+3718470D01*
X+7089530Y+3874699D01*
X+7310470Y+3874699D01*
X+7466699Y+3718470D01*
X+7466699Y+3497530D01*
X+7323169Y+3354000D01*
X+7466699Y+3210470D01*
X+7466699Y+2989530D01*
X+7377799Y+2900630D01*
X+7377799Y+194355D01*
X+7090499Y-92945D01*
X+7090499Y-110907D01*
X+7042406Y-159000D01*
X+7090499Y-207093D01*
X+7090499Y-364907D01*
X+7042406Y-413000D01*
X+7090499Y-461093D01*
X+7090499Y-618907D01*
X+7042406Y-667000D01*
X+7090499Y-715093D01*
X+7090499Y-872907D01*
X+7042406Y-921000D01*
X+7090499Y-969093D01*
X+7090499Y-1126907D01*
X+7042406Y-1175000D01*
X+7090499Y-1223093D01*
X+7090499Y-1380907D01*
X+7042406Y-1429000D01*
X+7090499Y-1477093D01*
X+7090499Y-1634907D01*
X+6978907Y-1746499D01*
X+6821093Y-1746499D01*
X+6709501Y-1634907D01*
X+6709501Y-1477093D01*
X+6757594Y-1429000D01*
X+6709501Y-1380907D01*
X+6709501Y-1223093D01*
X+6757594Y-1175000D01*
X+6709501Y-1126907D01*
X+6709501Y-969093D01*
X+6757594Y-921000D01*
X+6709501Y-872907D01*
X+6709501Y-715093D01*
X+6757594Y-667000D01*
X+6709501Y-618907D01*
X+6709501Y-600945D01*
X+6665299Y-556743D01*
X+6665299Y-1746499D01*
X+6380243Y-1746499D01*
X+6477799Y-1844055D01*
X+6477799Y-2836551D01*
X+6541299Y-2900051D01*
X+6541299Y-3099949D01*
X+6399949Y-3241299D01*
X+6200051Y-3241299D01*
X+6058701Y-3099949D01*
X+6058701Y-2900051D01*
X+6122201Y-2836551D01*
X+6122201Y-1991345D01*
X+6008612Y-1877756D01*
X+6000168Y-1886199D01*
X+5831832Y-1886199D01*
X+5789000Y-1843367D01*
X+5746168Y-1886199D01*
X+5577832Y-1886199D01*
X+5535000Y-1843367D01*
X+5492168Y-1886199D01*
X+5323832Y-1886199D01*
X+5204801Y-1767168D01*
X+5204801Y-1598832D01*
X+5247633Y-1556000D01*
X+5204801Y-1513168D01*
X+5204801Y-1344832D01*
X+5323832Y-1225801D01*
X+5492168Y-1225801D01*
X+5535000Y-1268633D01*
X+5577832Y-1225801D01*
X+5746168Y-1225801D01*
X+5789000Y-1268633D01*
X+5831832Y-1225801D01*
X+6000168Y-1225801D01*
X+6007102Y-1232735D01*
X+6007102Y+4096801D01*
X+5915832Y+4096801D01*
X+5796801Y+4215832D01*
X+5796801Y+4384168D01*
X+5915832Y+4503199D01*
X+6084168Y+4503199D01*
X+6088712Y+4498656D01*
X+6276201Y+4686145D01*
X+6276201Y+4884101D01*
X+6110572Y+4884101D01*
X+5984101Y+5010572D01*
X+5984101Y+5189428D01*
X+6110572Y+5315899D01*
X+6289428Y+5315899D01*
X+6327000Y+5278327D01*
X+6364572Y+5315899D01*
X+6543428Y+5315899D01*
X+6581000Y+5278327D01*
X+6618572Y+5315899D01*
X+6797428Y+5315899D01*
X+6923899Y+5189428D01*
X+6541299Y-4300051D02*
X+6541299Y-4499949D01*
X+6399949Y-4641299D01*
X+6200051Y-4641299D01*
X+6058701Y-4499949D01*
X+6058701Y-4300051D01*
X+6200051Y-4158701D01*
X+6399949Y-4158701D01*
X+6541299Y-4300051D01*
X+7741299Y-4300051D02*
X+7741299Y-4499949D01*
X+7599949Y-4641299D01*
X+7400051Y-4641299D01*
X+7258701Y-4499949D01*
X+7258701Y-4300051D01*
X+7400051Y-4158701D01*
X+7599949Y-4158701D01*
X+7741299Y-4300051D01*
X+7141299Y-4700051D02*
X+7141299Y-4899949D01*
X+7077799Y-4963449D01*
X+7077799Y-5104445D01*
X+6985766Y-5196478D01*
X+7028599Y-5239311D01*
X+7028599Y-5428689D01*
X+6894689Y-5562599D01*
X+6705311Y-5562599D01*
X+6571401Y-5428689D01*
X+6571401Y-5239311D01*
X+6622201Y-5188511D01*
X+6622201Y-5057155D01*
X+6719054Y-4960302D01*
X+6658701Y-4899949D01*
X+6658701Y-4700051D01*
X+6800051Y-4558701D01*
X+6999949Y-4558701D01*
X+7141299Y-4700051D01*
X+7741299Y-2900051D02*
X+7741299Y-3099949D01*
X+7599949Y-3241299D01*
X+7400051Y-3241299D01*
X+7258701Y-3099949D01*
X+7258701Y-2900051D01*
X+7400051Y-2758701D01*
X+7599949Y-2758701D01*
X+7741299Y-2900051D01*
X+5566699Y-5889530D02*
X+5566699Y-6110470D01*
X+5410470Y-6266699D01*
X+5189530Y-6266699D01*
X+5046000Y-6123169D01*
X+4902470Y-6266699D01*
X+4681530Y-6266699D01*
X+4525301Y-6110470D01*
X+4525301Y-5889530D01*
X+4681530Y-5733301D01*
X+4902470Y-5733301D01*
X+5046000Y-5876831D01*
X+5189530Y-5733301D01*
X+5410470Y-5733301D01*
X+5566699Y-5889530D01*
X+5396801Y-2984168D02*
X+5396801Y-2815832D01*
X+5515832Y-2696801D01*
X+5684168Y-2696801D01*
X+5803199Y-2815832D01*
X+5803199Y-2984168D01*
X+5684168Y-3103199D01*
X+5515832Y-3103199D01*
X+5396801Y-2984168D01*
X+4771199Y-4915832D02*
X+4771199Y-5084168D01*
X+4652168Y-5203199D01*
X+4483832Y-5203199D01*
X+4364801Y-5084168D01*
X+4364801Y-4915832D01*
X+4483832Y-4796801D01*
X+4652168Y-4796801D01*
X+4771199Y-4915832D01*
X+6105311Y-6121401D02*
X+6294689Y-6121401D01*
X+6428599Y-6255311D01*
X+6428599Y-6444689D01*
X+6294689Y-6578599D01*
X+6105311Y-6578599D01*
X+5971401Y-6444689D01*
X+5971401Y-6255311D01*
X+6105311Y-6121401D01*
X+6105311Y-5105401D02*
X+6294689Y-5105401D01*
X+6428599Y-5239311D01*
X+6428599Y-5428689D01*
X+6294689Y-5562599D01*
X+6105311Y-5562599D01*
X+5971401Y-5428689D01*
X+5971401Y-5239311D01*
X+6105311Y-5105401D01*
X+6705311Y-6121401D02*
X+6894689Y-6121401D01*
X+7028599Y-6255311D01*
X+7028599Y-6444689D01*
X+6894689Y-6578599D01*
X+6705311Y-6578599D01*
X+6571401Y-6444689D01*
X+6571401Y-6255311D01*
X+6705311Y-6121401D01*
X-4409532Y+5610212D02*
X-4371584Y+5604585D01*
X-4335467Y+5595485D01*
X-4301317Y+5583125D01*
X-4269185Y+5567663D01*
X-4239232Y+5549291D01*
X-4211546Y+5528135D01*
X-4182967Y+5501230D01*
X-3332261Y+4650524D01*
X-2478899Y+3797167D01*
X-2438262Y+3758909D01*
X-2390302Y+3722259D01*
X-2376294Y+3713667D01*
X-2338667Y+3690585D01*
X-2283775Y+3664173D01*
X-2225982Y+3643253D01*
X-2165707Y+3628066D01*
X-2103350Y+3618821D01*
X-2042306Y+3615850D01*
X-1867994Y+3615850D01*
X-2184398Y+3299446D01*
X-2184398Y+3152154D01*
X-2080246Y+3048002D01*
X-1932954Y+3048002D01*
X-1640855Y+3340101D01*
X-998499Y+3340101D01*
X-998499Y+3058701D01*
X-731799Y+3058701D01*
X-731799Y+3007345D01*
X-805445Y+2933699D01*
X-2070869Y+2933699D01*
X-2282402Y+2933846D01*
X-2477728Y+3129172D01*
X-2473629Y+3128629D01*
X-2401595Y+3138175D01*
X-2332198Y+3167558D01*
X-2270127Y+3217971D01*
X-2220260Y+3293561D01*
X-2196610Y+3403910D01*
X-2220260Y+3514259D01*
X-2270127Y+3589849D01*
X-2332198Y+3640262D01*
X-2401595Y+3669645D01*
X-2473629Y+3679191D01*
X-2545663Y+3669645D01*
X-2615060Y+3640262D01*
X-2677131Y+3589849D01*
X-2726998Y+3514259D01*
X-2750648Y+3403910D01*
X-2750152Y+3401596D01*
X-2997201Y+3648645D01*
X-2997201Y+4249645D01*
X-3175355Y+4427799D01*
X-3522471Y+4427799D01*
X-3640176Y+4545504D01*
X-3819034Y+4545504D01*
X-3945504Y+4419034D01*
X-3945504Y+4240176D01*
X-3819034Y+4113706D01*
X-3765899Y+4113706D01*
X-3765899Y+4060571D01*
X-3639429Y+3934101D01*
X-3586293Y+3934101D01*
X-3586293Y+3880965D01*
X-3548193Y+3842865D01*
X-3548193Y+3799637D01*
X-4282455Y+4533899D01*
X-4549155Y+4533899D01*
X-4628201Y+4612945D01*
X-4628201Y+4658701D01*
X-4361501Y+4658701D01*
X-4361501Y+5141299D01*
X-7028499Y+5141299D01*
X-7028499Y+4658701D01*
X-4983799Y+4658701D01*
X-4983799Y+4465655D01*
X-4897443Y+4379299D01*
X-7028499Y+4379299D01*
X-7028499Y+3896701D01*
X-5237798Y+3896701D01*
X-5237797Y+3615899D01*
X-6323899Y+3615899D01*
X-6323899Y+3184101D01*
X-4800599Y+3184101D01*
X-4800599Y+3114055D01*
X-3975099Y+2288555D01*
X-3975099Y+1838268D01*
X-4089530Y+1952699D01*
X-4279901Y+1952699D01*
X-4279901Y+2486645D01*
X-4561855Y+2768599D01*
X-5165645Y+2768599D01*
X-5269799Y+2664445D01*
X-5269799Y+2615899D01*
X-6323899Y+2615899D01*
X-6323899Y+2184101D01*
X-6285799Y+2184101D01*
X-6285799Y+2021155D01*
X-5981699Y+1717055D01*
X-5981699Y+1701899D01*
X-6599899Y+1701899D01*
X-6599899Y+1270101D01*
X-5981699Y+1270101D01*
X-5981699Y-198101D01*
X-6599899Y-198101D01*
X-6599899Y-629899D01*
X-5981699Y-629899D01*
X-5981699Y-884101D01*
X-6215899Y-884101D01*
X-6215899Y-1569899D01*
X-6035545Y-1569899D01*
X-5977799Y-1627645D01*
X-5977799Y-1778455D01*
X-6018059Y-1928708D01*
X-5933891Y-2074491D01*
X-5771292Y-2118059D01*
X-5625509Y-2033891D01*
X-5581941Y-1871292D01*
X-5622202Y-1801558D01*
X-5622203Y-1480353D01*
X-5784101Y-1318455D01*
X-5784101Y-1079499D01*
X-5730253Y-1079499D01*
X-5626101Y-975347D01*
X-5626101Y-137145D01*
X-5623547Y-139699D01*
X-5476253Y-139699D01*
X-5372101Y-35547D01*
X-5372101Y+1270101D01*
X-4991099Y+1270101D01*
X-4991099Y-198101D01*
X-5545899Y-198101D01*
X-5545899Y-629899D01*
X-4991099Y-629899D01*
X-4991099Y-884101D01*
X-5415899Y-884101D01*
X-5415899Y-1569899D01*
X-5377799Y-1569899D01*
X-5377799Y-1773648D01*
X-5211667Y-1939780D01*
X-5133891Y-2074491D01*
X-5094004Y-2085178D01*
X-5157681Y-2148855D01*
X-5157681Y-2286455D01*
X-5197941Y-2436708D01*
X-5113773Y-2582491D01*
X-5113435Y-2582582D01*
X-5168299Y-2637446D01*
X-5168299Y-2942554D01*
X-4952554Y-3158299D01*
X-4647446Y-3158299D01*
X-4622799Y-3133652D01*
X-4622799Y-3401045D01*
X-4340845Y-3682999D01*
X-2457261Y-3682999D01*
X-2478904Y-3703375D01*
X-3187398Y-4411869D01*
X-3188689Y-4413240D01*
X-3225656Y-4452506D01*
X-3262309Y-4500473D01*
X-3293984Y-4552111D01*
X-3320393Y-4607000D01*
X-3341312Y-4664791D01*
X-3356499Y-4725066D01*
X-3365744Y-4787423D01*
X-3368715Y-4848467D01*
X-3368715Y-5533031D01*
X-3370793Y-5575722D01*
X-3376420Y-5613672D01*
X-3385518Y-5649784D01*
X-3397882Y-5683941D01*
X-3413342Y-5716072D01*
X-3431714Y-5746023D01*
X-3452870Y-5773709D01*
X-3479775Y-5802288D01*
X-4182967Y-6505480D01*
X-4211546Y-6532385D01*
X-4239232Y-6553541D01*
X-4269185Y-6571913D01*
X-4301317Y-6587375D01*
X-4335467Y-6599735D01*
X-4371584Y-6608835D01*
X-4409532Y-6614462D01*
X-4452224Y-6616540D01*
X-6777831Y-6616540D01*
X-6820522Y-6614462D01*
X-6858472Y-6608835D01*
X-6894586Y-6599736D01*
X-6928740Y-6587374D01*
X-6960870Y-6571913D01*
X-6990823Y-6553541D01*
X-7018509Y-6532385D01*
X-7047088Y-6505480D01*
X-7750280Y-5802288D01*
X-7777185Y-5773709D01*
X-7798340Y-5746024D01*
X-7816715Y-5716069D01*
X-7832173Y-5683941D01*
X-7844536Y-5649786D01*
X-7853635Y-5613672D01*
X-7859262Y-5575722D01*
X-7861340Y-5533031D01*
X-7861340Y+4528781D01*
X-7859262Y+4571472D01*
X-7853635Y+4609422D01*
X-7844536Y+4645536D01*
X-7832173Y+4679691D01*
X-7816715Y+4711819D01*
X-7798340Y+4741774D01*
X-7777185Y+4769459D01*
X-7750280Y+4798038D01*
X-7047092Y+5501226D01*
X-7018506Y+5528138D01*
X-6990835Y+5549282D01*
X-6960866Y+5567665D01*
X-6928747Y+5583120D01*
X-6894578Y+5595488D01*
X-6858472Y+5604585D01*
X-6820522Y+5610212D01*
X-6777831Y+5612290D01*
X-4452224Y+5612290D01*
X-4409532Y+5610212D01*
X-5839701Y-4747446D02*
X-5839701Y-5052554D01*
X-6030201Y-5243054D01*
X-6030201Y-5446055D01*
X-5822201Y-5654055D01*
X-5822201Y-5800630D01*
X-5733301Y-5889530D01*
X-5733301Y-6110470D01*
X-5889530Y-6266699D01*
X-6110470Y-6266699D01*
X-6254000Y-6123169D01*
X-6397530Y-6266699D01*
X-6618470Y-6266699D01*
X-6774699Y-6110470D01*
X-6774699Y-5889530D01*
X-6618470Y-5733301D01*
X-6397530Y-5733301D01*
X-6254000Y-5876831D01*
X-6178156Y-5800988D01*
X-6385799Y-5593345D01*
X-6385799Y-5243054D01*
X-6576299Y-5052554D01*
X-6576299Y-4747446D01*
X-6360554Y-4531701D01*
X-6055446Y-4531701D01*
X-5839701Y-4747446D01*
X-4431701Y-4747446D02*
X-4431701Y-5052554D01*
X-4622201Y-5243054D01*
X-4622201Y-5618355D01*
X-4507255Y-5733301D01*
X-4381530Y-5733301D01*
X-4225301Y-5889530D01*
X-4225301Y-6110470D01*
X-4381530Y-6266699D01*
X-4602470Y-6266699D01*
X-4746000Y-6123169D01*
X-4889530Y-6266699D01*
X-5110470Y-6266699D01*
X-5266699Y-6110470D01*
X-5266699Y-5889530D01*
X-5110470Y-5733301D01*
X-4977799Y-5733301D01*
X-4977799Y-5243054D01*
X-5168299Y-5052554D01*
X-5168299Y-4747446D01*
X-4952554Y-4531701D01*
X-4647446Y-4531701D01*
X-4431701Y-4747446D01*
X-7033301Y+1796470D02*
X-7033301Y+1670745D01*
X-6667501Y+1304945D01*
X-6667501Y-1368937D01*
X-5823770Y-2212668D01*
X-5745991Y-2233509D01*
X-5661823Y-2379292D01*
X-5705391Y-2541891D01*
X-5851119Y-2626028D01*
X-5839701Y-2637446D01*
X-5839701Y-2942554D01*
X-6030201Y-3133054D01*
X-6030201Y-4067645D01*
X-7033301Y-5070745D01*
X-7033301Y-5196470D01*
X-7189530Y-5352699D01*
X-7410470Y-5352699D01*
X-7566699Y-5196470D01*
X-7566699Y-4975530D01*
X-7410470Y-4819301D01*
X-7284745Y-4819301D01*
X-6385799Y-3920355D01*
X-6385799Y-3133054D01*
X-6576299Y-2942554D01*
X-6576299Y-2637446D01*
X-6360554Y-2421701D01*
X-6117625Y-2421701D01*
X-7023099Y-1516227D01*
X-7023099Y+1157655D01*
X-7284745Y+1419301D01*
X-7410470Y+1419301D01*
X-7566699Y+1575530D01*
X-7566699Y+1796470D01*
X-7410470Y+1952699D01*
X-7189530Y+1952699D01*
X-7033301Y+1796470D01*
X-7033301Y-1489530D02*
X-7033301Y-1710470D01*
X-7176831Y-1854000D01*
X-7033301Y-1997530D01*
X-7033301Y-2218470D01*
X-7189530Y-2374699D01*
X-7366001Y-2374699D01*
X-7366001Y-2482555D01*
X-7315255Y-2533301D01*
X-7189530Y-2533301D01*
X-7033301Y-2689530D01*
X-7033301Y-2910470D01*
X-7189530Y-3066699D01*
X-7410470Y-3066699D01*
X-7566699Y-2910470D01*
X-7566699Y-2784745D01*
X-7721599Y-2629845D01*
X-7721599Y-1770155D01*
X-7566699Y-1615255D01*
X-7566699Y-1489530D01*
X-7410470Y-1333301D01*
X-7189530Y-1333301D01*
X-7033301Y-1489530D01*
X-7566699Y-710470D02*
X-7566699Y-489530D01*
X-7410470Y-333301D01*
X-7189530Y-333301D01*
X-7033301Y-489530D01*
X-7033301Y-710470D01*
X-7189530Y-866699D01*
X-7410470Y-866699D01*
X-7566699Y-710470D01*
X-6813773Y-2582491D02*
X-6897941Y-2436708D01*
X-6854373Y-2274109D01*
X-6708590Y-2189941D01*
X-6545991Y-2233509D01*
X-6461823Y-2379292D01*
X-6505391Y-2541891D01*
X-6651174Y-2626059D01*
X-6813773Y-2582491D01*
X-6784168Y+3603199D02*
X-6615832Y+3603199D01*
X-6496801Y+3484168D01*
X-6496801Y+3315832D01*
X-6615832Y+3196801D01*
X-6784168Y+3196801D01*
X-6903199Y+3315832D01*
X-6903199Y+3484168D01*
X-6784168Y+3603199D01*
X-6784168Y+2587199D02*
X-6615832Y+2587199D01*
X-6496801Y+2468168D01*
X-6496801Y+2299832D01*
X-6615832Y+2180801D01*
X-6784168Y+2180801D01*
X-6903199Y+2299832D01*
X-6903199Y+2468168D01*
X-6784168Y+2587199D01*
X-7134101Y+3496101D02*
X-7134101Y+2480101D01*
X-7819899Y+2480101D01*
X-7819899Y+3927899D01*
X-7134101Y+3927899D01*
X-7134101Y+3496101D01*
X-3905924Y+3654480D02*
X-3917184Y+3658050D01*
X-3992920Y+3665770D01*
X-4068656Y+3658050D01*
X-4142738Y+3634564D01*
X-4212114Y+3595072D01*
X-4273618Y+3539513D01*
X-4324311Y+3466696D01*
X-4358858Y+3372806D01*
X-4367653Y+3291111D01*
X-4358858Y+3209416D01*
X-4338941Y+3155285D01*
X-4445001Y+3261345D01*
X-4445001Y+3667745D01*
X-4628201Y+3850945D01*
X-4628201Y+3896701D01*
X-4361501Y+3896701D01*
X-4361501Y+4110057D01*
X-3905924Y+3654480D01*
X+4203701Y+3864669D02*
X+4203701Y+3599816D01*
X+4142658Y+3634564D01*
X+4068576Y+3658050D01*
X+3992840Y+3665770D01*
X+3917104Y+3658050D01*
X+3843022Y+3634564D01*
X+3773646Y+3595072D01*
X+3712142Y+3539513D01*
X+3682999Y+3497652D01*
X+3682999Y+3520455D01*
X+3859496Y+3696952D01*
X+3859496Y+4173168D01*
X+3877349Y+4191021D01*
X+4203701Y+3864669D01*
X-3771899Y+2588243D02*
X-4126011Y+2942355D01*
X-4068656Y+2924172D01*
X-3992920Y+2916452D01*
X-3917184Y+2924172D01*
X-3843102Y+2947658D01*
X-3773726Y+2987150D01*
X-3771899Y+2988800D01*
X-3771899Y+2588243D01*
X-279399Y+3027955D02*
X-279399Y+2755899D01*
X-480357Y+2755899D01*
X-376201Y+2860055D01*
X-376201Y+3084101D01*
X-335545Y+3084101D01*
X-279399Y+3027955D01*
X-2967988Y+3116544D02*
X-2972035Y+3116008D01*
X-3041447Y+3086651D01*
X-3103536Y+3036292D01*
X-3153488Y+2960754D01*
X-3177305Y+2850000D01*
X-3153488Y+2739246D01*
X-3103536Y+2663708D01*
X-3041447Y+2613349D01*
X-2972035Y+2583992D01*
X-2925263Y+2577799D01*
X-3076355Y+2577799D01*
X-3192597Y+2694041D01*
X-3192596Y+3341152D01*
X-2967988Y+3116544D01*
X+4472201Y+2190499D02*
X+4321093Y+2190499D01*
X+4305299Y+2174705D01*
X+4305299Y+2517155D01*
X+4472201Y+2684057D01*
X+4472201Y+2190499D01*
X+109501Y+2124460D02*
X-617501Y+2124460D01*
X-617501Y+2134101D01*
X-464572Y+2134101D01*
X-427000Y+2171673D01*
X-389428Y+2134101D01*
X-210572Y+2134101D01*
X-84101Y+2260572D01*
X-84101Y+2400301D01*
X+109501Y+2400301D01*
X+109501Y+2124460D01*
X-3275722Y+2274278D02*
X-3223645Y+2222201D01*
X-2373645Y+2222201D01*
X-2279343Y+2127899D01*
X-2544499Y+2127899D01*
X-2544499Y+2089799D01*
X-3326355Y+2089799D01*
X-3416301Y+2179745D01*
X-3416301Y+2414857D01*
X-3275722Y+2274278D01*
X+1343357Y+1948499D02*
X+1108701Y+1948499D01*
X+1108701Y+1941289D01*
X+1103982Y+1956874D01*
X+1097764Y+1968501D01*
X+1323355Y+1968501D01*
X+1343357Y+1948499D01*
X-4813299Y+2123855D02*
X-4813299Y+1866899D01*
X-4886947Y+1866899D01*
X-4991099Y+1762747D01*
X-4991099Y+1701899D01*
X-5372101Y+1701899D01*
X-5372101Y+1890445D01*
X-5665757Y+2184101D01*
X-4873545Y+2184101D01*
X-4813299Y+2123855D01*
X-2481821Y+2630377D02*
X-2429796Y+2578352D01*
X-2070223Y+2578102D01*
X-2070223Y+2578254D01*
X-2070100Y+2578101D01*
X-1619250Y+2578101D01*
X-1619250Y+2554428D01*
X-1585772Y+2520950D01*
X-1538428Y+2520950D01*
X-1504950Y+2554428D01*
X-1504950Y+2578101D01*
X-1419843Y+2578101D01*
X-1527799Y+2470145D01*
X-1527799Y+1881528D01*
X-1565899Y+1843428D01*
X-1565899Y+1664572D01*
X-1528327Y+1627000D01*
X-1565899Y+1589428D01*
X-1565899Y+1436499D01*
X-1591299Y+1436499D01*
X-1591299Y+1055501D01*
X-1108701Y+1055501D01*
X-1108701Y+1058711D01*
X-1103982Y+1043126D01*
X-1078756Y+995957D01*
X-1045070Y+954928D01*
X-1004043Y+921244D01*
X-956877Y+896019D01*
X-904966Y+880302D01*
X-856033Y+875540D01*
X-490499Y+875540D01*
X-490499Y+865899D01*
X-643428Y+865899D01*
X-681000Y+828327D01*
X-718572Y+865899D01*
X-897428Y+865899D01*
X-935528Y+827799D01*
X-1838155Y+827799D01*
X-1922201Y+911845D01*
X-1922201Y+934101D01*
X-1909501Y+934101D01*
X-1909501Y+1365899D01*
X-2544499Y+1365899D01*
X-2544499Y+934101D01*
X-2277799Y+934101D01*
X-2277799Y+764555D01*
X-1985445Y+472201D01*
X-985798Y+472201D01*
X-985798Y+353354D01*
X-695945Y+63501D01*
X+187845Y+63501D01*
X+368201Y+243857D01*
X+368201Y-19645D01*
X+545201Y-196645D01*
X+545201Y-376252D01*
X+723748Y-554799D01*
X+976252Y-554799D01*
X+1154799Y-376252D01*
X+1154799Y-123748D01*
X+976252Y+54799D01*
X+796645Y+54799D01*
X+723799Y+127645D01*
X+723799Y+408701D01*
X+990499Y+408701D01*
X+990499Y+891299D01*
X+941289Y+891299D01*
X+956877Y+896019D01*
X+1004043Y+921244D01*
X+1045070Y+954928D01*
X+1078756Y+995957D01*
X+1103982Y+1043126D01*
X+1119698Y+1095034D01*
X+1124460Y+1143967D01*
X+1124460Y+1567501D01*
X+1134101Y+1567501D01*
X+1134101Y+1414572D01*
X+1171673Y+1377000D01*
X+1134101Y+1339428D01*
X+1134101Y+1160572D01*
X+1260572Y+1034101D01*
X+1439428Y+1034101D01*
X+1477528Y+1072201D01*
X+1722455Y+1072201D01*
X+1663701Y+1013447D01*
X+1663701Y+866153D01*
X+1767853Y+762001D01*
X+3502646Y+762002D01*
X+3505200Y+764556D01*
X+3505201Y+764555D01*
X+3505201Y+332755D01*
X+3793755Y+44201D01*
X+4209501Y+44201D01*
X+4209501Y-110907D01*
X+4257594Y-159000D01*
X+4209501Y-207093D01*
X+4209501Y-362201D01*
X+3953745Y-362201D01*
X+3197845Y+393699D01*
X+1755155Y+393699D01*
X+1473201Y+111745D01*
X+1473201Y-2201101D01*
X-812801Y-2201101D01*
X-812801Y-554799D01*
X-773748Y-554799D01*
X-595201Y-376252D01*
X-595201Y-123748D01*
X-773748Y+54799D01*
X-1026252Y+54799D01*
X-1204799Y-123748D01*
X-1204799Y-376252D01*
X-1113098Y-467952D01*
X-1168399Y-523253D01*
X-1168399Y-2201101D01*
X-2603499Y-2201101D01*
X-2603499Y-2692401D01*
X-2936255Y-2692401D01*
X-3009901Y-2618755D01*
X-3009901Y-2249993D01*
X-2972035Y-2266008D01*
X-2900000Y-2275546D01*
X-2827965Y-2266008D01*
X-2758553Y-2236651D01*
X-2696464Y-2186292D01*
X-2646512Y-2110754D01*
X-2622695Y-2000000D01*
X-2646512Y-1889246D01*
X-2696464Y-1813708D01*
X-2758553Y-1763349D01*
X-2827965Y-1733992D01*
X-2900000Y-1724454D01*
X-2972035Y-1733992D01*
X-3009901Y-1750007D01*
X-3009901Y+759447D01*
X-3114053Y+863599D01*
X-3261347Y+863599D01*
X-3365499Y+759447D01*
X-3365499Y-2766045D01*
X-3261343Y-2870201D01*
X-3342655Y-2870201D01*
X-3416301Y-2796555D01*
X-3416301Y+441945D01*
X-3619501Y+645145D01*
X-3619501Y+1880057D01*
X-3473645Y+1734201D01*
X-2544499Y+1734201D01*
X-2544499Y+1696101D01*
X-1909501Y+1696101D01*
X-1909501Y+2127899D01*
X-1922201Y+2127899D01*
X-1922201Y+2273645D01*
X-2226355Y+2577799D01*
X-2874737Y+2577799D01*
X-2827965Y+2583992D01*
X-2758553Y+2613349D01*
X-2696464Y+2663708D01*
X-2646512Y+2739246D01*
X-2636632Y+2785188D01*
X-2481821Y+2630377D01*
X-692150Y-1725472D02*
X-692150Y-1678128D01*
X-658672Y-1644650D01*
X-611328Y-1644650D01*
X-577850Y-1678128D01*
X-577850Y-1725472D01*
X-611328Y-1758950D01*
X-658672Y-1758950D01*
X-692150Y-1725472D01*
X-998499Y+2108701D02*
X-941289Y+2108701D01*
X-956877Y+2103981D01*
X-1004043Y+2078756D01*
X-1045070Y+2045072D01*
X-1078756Y+2004043D01*
X-1103982Y+1956874D01*
X-1119698Y+1904966D01*
X-1124460Y+1856033D01*
X-1124460Y+1436499D01*
X-1134101Y+1436499D01*
X-1134101Y+1589428D01*
X-1171673Y+1627000D01*
X-1134101Y+1664572D01*
X-1134101Y+1843428D01*
X-1172201Y+1881528D01*
X-1172201Y+2322855D01*
X-1094755Y+2400301D01*
X-998499Y+2400301D01*
X-998499Y+2108701D01*
X+1752601Y+2098055D02*
X+1752601Y+1501445D01*
X+1678955Y+1427799D01*
X+1648443Y+1427799D01*
X+1752599Y+1531955D01*
X+1752599Y+2042145D01*
X+1622543Y+2172201D01*
X+1678455Y+2172201D01*
X+1752601Y+2098055D01*
X+76101Y+560572D02*
X+114201Y+522472D01*
X+114201Y+492745D01*
X+40555Y+419099D01*
X+31128Y+419099D01*
X+50799Y+438770D01*
X+50799Y+599455D01*
X+76101Y+624757D01*
X+76101Y+560572D01*
X+3712142Y+3042709D02*
X+3773646Y+2987150D01*
X+3843022Y+2947658D01*
X+3917104Y+2924172D01*
X+3992840Y+2916452D01*
X+4068576Y+2924172D01*
X+4142658Y+2947658D01*
X+4203701Y+2982406D01*
X+4203701Y+2918445D01*
X+3949701Y+2664445D01*
X+3949701Y+1882153D01*
X+3949702Y+1181100D01*
X+3949701Y+399799D01*
X+3941045Y+399799D01*
X+3860799Y+480045D01*
X+3860799Y+911845D01*
X+3682999Y+1089645D01*
X+3682999Y+3084571D01*
X+3712142Y+3042709D01*
X+4658701Y+1047501D02*
X+4658701Y-616201D01*
X+4590499Y-616201D01*
X+4590499Y-461093D01*
X+4542406Y-413000D01*
X+4590499Y-364907D01*
X+4590499Y-207093D01*
X+4542406Y-159000D01*
X+4590499Y-110907D01*
X+4590499Y+46907D01*
X+4542406Y+95000D01*
X+4590499Y+143093D01*
X+4590499Y+300907D01*
X+4542406Y+349000D01*
X+4590499Y+397093D01*
X+4590499Y+554907D01*
X+4542406Y+603000D01*
X+4590499Y+651093D01*
X+4590499Y+808907D01*
X+4542406Y+857000D01*
X+4590499Y+905093D01*
X+4590499Y+1062907D01*
X+4542406Y+1111000D01*
X+4590499Y+1159093D01*
X+4590499Y+1177055D01*
X+4658701Y+1245257D01*
X+4658701Y+1047501D01*
X-3975099Y+497855D02*
X-3771899Y+294655D01*
X-3771899Y-2695364D01*
X-3773726Y-2693714D01*
X-3843102Y-2654222D01*
X-3917184Y-2630736D01*
X-3992920Y-2623016D01*
X-4068656Y-2630736D01*
X-4142738Y-2654222D01*
X-4212114Y-2693714D01*
X-4267201Y-2743476D01*
X-4267201Y-2059955D01*
X-4457701Y-1869455D01*
X-4457701Y-1569899D01*
X-4335545Y-1569899D01*
X-4277799Y-1627645D01*
X-4277799Y-1778455D01*
X-4318059Y-1928708D01*
X-4233891Y-2074491D01*
X-4071292Y-2118059D01*
X-3925509Y-2033891D01*
X-3881941Y-1871292D01*
X-3922202Y-1801558D01*
X-3922203Y-1480353D01*
X-4084101Y-1318455D01*
X-4084101Y-884101D01*
X-4457701Y-884101D01*
X-4457701Y-719468D01*
X-4310470Y-866699D01*
X-4089530Y-866699D01*
X-3933301Y-710470D01*
X-3933301Y-489530D01*
X-4089530Y-333301D01*
X-4310470Y-333301D01*
X-4457701Y-480532D01*
X-4457701Y+508001D01*
X-4384053Y+508001D01*
X-4279901Y+612153D01*
X-4279901Y+1419301D01*
X-4089530Y+1419301D01*
X-3975099Y+1533732D01*
X-3975099Y+497855D01*
X-4991099Y-1657456D02*
X-5022201Y-1626355D01*
X-5022201Y-1569899D01*
X-4991099Y-1569899D01*
X-4991099Y-1657456D01*
X-4622799Y-2207245D02*
X-4622799Y-2446348D01*
X-4647446Y-2421701D01*
X-4773186Y-2421701D01*
X-4761823Y-2379292D01*
X-4802083Y-2309560D01*
X-4802083Y-2296145D01*
X-4667991Y-2162053D01*
X-4622799Y-2207245D01*
X+3754378Y-665722D02*
X+3806455Y-717799D01*
X+4209501Y-717799D01*
X+4209501Y-872907D01*
X+4257594Y-921000D01*
X+4209501Y-969093D01*
X+4209501Y-1126907D01*
X+4257594Y-1175000D01*
X+4209501Y-1223093D01*
X+4209501Y-1380907D01*
X+4257594Y-1429000D01*
X+4209501Y-1477093D01*
X+4209501Y-1634907D01*
X+4321093Y-1746499D01*
X+4472201Y-1746499D01*
X+4472201Y-2375653D01*
X+4429380Y-2418474D01*
X+3651082Y-2418474D01*
X+3576355Y-2493201D01*
X+2603499Y-2493201D01*
X+2603499Y-2201101D01*
X+2514599Y-2201101D01*
X+2514599Y-911845D01*
X+3124198Y-302246D01*
X+3124198Y-154954D01*
X+3020046Y-50802D01*
X+2872754Y-50802D01*
X+2159001Y-764555D01*
X+2159001Y-1130301D01*
X+2085353Y-1130301D01*
X+2082799Y-1132855D01*
X+2082799Y+38101D01*
X+3050555Y+38101D01*
X+3754378Y-665722D01*
X+2916337Y-1726617D02*
X+2972035Y-1733992D01*
X+3041447Y-1763349D01*
X+3103536Y-1813708D01*
X+3153488Y-1889246D01*
X+3177305Y-2000000D01*
X+3153488Y-2110754D01*
X+3103536Y-2186292D01*
X+3041447Y-2236651D01*
X+3025212Y-2243518D01*
X+2972035Y-2266008D01*
X+2900000Y-2275546D01*
X+2827965Y-2266008D01*
X+2758553Y-2236651D01*
X+2696464Y-2186292D01*
X+2646512Y-2110754D01*
X+2622695Y-2000000D01*
X+2646512Y-1889246D01*
X+2696464Y-1813708D01*
X+2758553Y-1763349D01*
X+2774788Y-1756482D01*
X+2827965Y-1733992D01*
X+2900000Y-1724454D01*
X+2916337Y-1726617D01*
X+1473201Y-3253755D02*
X+1399555Y-3327401D01*
X-3818988Y-3327401D01*
X-3773726Y-3301636D01*
X-3712222Y-3246077D01*
X-3661529Y-3173260D01*
X-3629508Y-3086236D01*
X-3489945Y-3225799D01*
X+1216647Y-3225799D01*
X+1320799Y-3121647D01*
X+1320799Y-3047999D01*
X+1470646Y-3047999D01*
X+1473201Y-3045444D01*
X+1473201Y-3253755D01*
X-4222184Y-3292540D02*
X-4212114Y-3301636D01*
X-4166852Y-3327401D01*
X-4193555Y-3327401D01*
X-4267201Y-3253755D01*
X-4267201Y-3251874D01*
X-4222184Y-3292540D01*
X+6838201Y+4718355D02*
X+6838201Y+4409568D01*
X+6812801Y+4384168D01*
X+6812801Y+4348245D01*
X+6464301Y+3999745D01*
X+6464301Y+2190499D01*
X+6362698Y+2190499D01*
X+6362698Y+4269754D01*
X+6631799Y+4538855D01*
X+6631799Y+4884101D01*
X+6672455Y+4884101D01*
X+6838201Y+4718355D01*
X+1905000Y-2886899D02*
X+1905000Y-2671000D01*
X+1397000Y-2201101D02*
X+1397000Y-2417000D01*
X-635000Y-2201101D02*
X-635000Y-2417000D01*
X-2603499Y-2417000D02*
X-2413000Y-2417000D01*
X-2413000Y-2201101D02*
X-2413000Y-2417000D01*
X+990499Y+650000D02*
X+800000Y+650000D01*
X+800000Y+408701D02*
X+800000Y+650000D01*
X-998499Y+2350000D02*
X-808000Y+2350000D01*
X-1350000Y+1055501D02*
X-1350000Y+1246000D01*
X-1591299Y+1246000D02*
X-1350000Y+1246000D01*
X+109501Y+2350000D02*
X+300000Y+2350000D01*
X-998499Y+3300000D02*
X-808000Y+3300000D01*
X-808000Y+3058701D02*
X-808000Y+3300000D01*
X-6774699Y-6000000D02*
X-6508000Y-6000000D01*
X-6508000Y-5733301D02*
X-6508000Y-6000000D01*
X-6508000Y-6266699D02*
X-6508000Y-6000000D01*
X-5266699Y-6000000D02*
X-5000000Y-6000000D01*
X-5000000Y-5733301D02*
X-5000000Y-6000000D01*
X-5000000Y-6266699D02*
X-5000000Y-6000000D01*
X+5141299Y-1302000D02*
X+4900000Y-1302000D01*
X+6665299Y-794000D02*
X+6424000Y-794000D01*
X-5346000Y+3615899D02*
X-5346000Y+3400000D01*
X-5346000Y+3184101D02*
X-5346000Y+3400000D01*
X-5346000Y+2615899D02*
X-5346000Y+2400000D01*
X-5346000Y+2184101D02*
X-5346000Y+2400000D01*
X-6130000Y-198101D02*
X-6130000Y-414000D01*
X-6130000Y-629899D02*
X-6130000Y-414000D01*
X-6599899Y-414000D02*
X-6384000Y-414000D01*
X-6384000Y-198101D02*
X-6384000Y-414000D01*
X-6384000Y-629899D02*
X-6384000Y-414000D01*
X-6130000Y+1701899D02*
X-6130000Y+1486000D01*
X-6130000Y+1270101D02*
X-6130000Y+1486000D01*
X-6599899Y+1486000D02*
X-6384000Y+1486000D01*
X-6384000Y+1701899D02*
X-6384000Y+1486000D01*
X-6384000Y+1270101D02*
X-6384000Y+1486000D01*
X+105501Y+3300000D02*
X+296000Y+3300000D01*
X+296000Y+3058701D02*
X+296000Y+3300000D01*
X-7028499Y+4900000D02*
X-6838000Y+4900000D01*
X-6838000Y+5141299D02*
X-6838000Y+4900000D01*
X-6838000Y+4658701D02*
X-6838000Y+4900000D01*
X+7741299Y-4400000D02*
X+7500000Y-4400000D01*
X+7258701Y-4400000D02*
X+7500000Y-4400000D01*
X+7500000Y-4158701D02*
X+7500000Y-4400000D01*
X+7500000Y-4641299D02*
X+7500000Y-4400000D01*
X+4700000Y-3944499D02*
X+4700000Y-3754000D01*
X+4458701Y-3754000D02*
X+4700000Y-3754000D01*
X+4941299Y-3754000D02*
X+4700000Y-3754000D01*
X-4300000Y-884101D02*
X-4300000Y-1100000D01*
X-4084101Y-1100000D02*
X-4300000Y-1100000D01*
X-5200000Y-884101D02*
X-5200000Y-1100000D01*
X-5415899Y-1100000D02*
X-5200000Y-1100000D01*
X-6000000Y-884101D02*
X-6000000Y-1100000D01*
X-5784101Y-1100000D02*
X-6000000Y-1100000D01*
X-6215899Y-1100000D02*
X-6000000Y-1100000D01*
X+4525301Y-6000000D02*
X+4792000Y-6000000D01*
X+4792000Y-5733301D02*
X+4792000Y-6000000D01*
X+4792000Y-6266699D02*
X+4792000Y-6000000D01*
X+4730101Y-4300000D02*
X+4946000Y-4300000D01*
X+4946000Y-4084101D02*
X+4946000Y-4300000D01*
X+4946000Y-4515899D02*
X+4946000Y-4300000D01*
X+3158928Y+3777928D02*
X+3311592Y+3930592D01*
X+3158928Y+4083256D02*
X+3311592Y+3930592D01*
X+5984101Y+5100000D02*
X+6200000Y+5100000D01*
X+6200000Y+4884101D02*
X+6200000Y+5100000D01*
X+6200000Y+5315899D02*
X+6200000Y+5100000D01*
X+6200000Y-6121401D02*
X+6200000Y-6350000D01*
X+6200000Y-6578599D02*
X+6200000Y-6350000D01*
X+5971401Y-6350000D02*
X+6200000Y-6350000D01*
X+6428599Y-6350000D02*
X+6200000Y-6350000D01*
X+6800000Y-6121401D02*
X+6800000Y-6350000D01*
X+6800000Y-6578599D02*
X+6800000Y-6350000D01*
X+6571401Y-6350000D02*
X+6800000Y-6350000D01*
X+7028599Y-6350000D02*
X+6800000Y-6350000D01*
X+5054000Y+4884101D02*
X+5054000Y+5100000D01*
X+5054000Y+5315899D02*
X+5054000Y+5100000D01*
X+4209501Y-1302000D02*
X+4400000Y-1302000D01*
X+7090499Y-794000D02*
X+6900000Y-794000D01*
X+6709501Y-794000D02*
X+6900000Y-794000D01*
X+7200000Y+3874699D02*
X+7200000Y+3608000D01*
X+7466699Y+3608000D02*
X+7200000Y+3608000D01*
X+6933301Y+3608000D02*
X+7200000Y+3608000D01*
X-7350000Y+2480101D02*
X-7350000Y+2696000D01*
X-7134101Y+2696000D02*
X-7350000Y+2696000D01*
X-7134101Y+2950000D02*
X-7350000Y+2950000D01*
X-7134101Y+3204000D02*
X-7350000Y+3204000D01*
X-7134101Y+3458000D02*
X-7350000Y+3458000D01*
X-7350000Y+3927899D02*
X-7350000Y+3712000D01*
X-7134101Y+3712000D02*
X-7350000Y+3712000D01*
X+2750000Y+1969899D02*
X+2750000Y+1754000D01*
X+2534101Y+1754000D02*
X+2750000Y+1754000D01*
X+2965899Y+1754000D02*
X+2750000Y+1754000D01*
X-3882269Y+4482269D02*
X-3729605Y+4329605D01*
X-3882269Y+4176941D02*
X-3729605Y+4329605D01*
X-3576941Y+4482269D02*
X-3729605Y+4329605D01*
D13*
X+2413000Y-2417000D03*
X+2413000Y-2671000D03*
X+2159000Y-2417000D03*
X+2159000Y-2671000D03*
X+1905000Y-2417000D03*
X+1905000Y-2671000D03*
X+1651000Y-2417000D03*
X+1651000Y-2671000D03*
X+1397000Y-2417000D03*
X+1397000Y-2671000D03*
X+1143000Y-2417000D03*
X+1143000Y-2671000D03*
X+889000Y-2417000D03*
X+889000Y-2671000D03*
X+635000Y-2417000D03*
X+635000Y-2671000D03*
X+381000Y-2417000D03*
X+381000Y-2671000D03*
X+127000Y-2417000D03*
X+127000Y-2671000D03*
X-127000Y-2417000D03*
X-127000Y-2671000D03*
X-381000Y-2417000D03*
X-381000Y-2671000D03*
X-635000Y-2417000D03*
X-635000Y-2671000D03*
X-889000Y-2417000D03*
X-889000Y-2671000D03*
X-1143000Y-2417000D03*
X-1143000Y-2671000D03*
X-1397000Y-2417000D03*
X-1397000Y-2671000D03*
X-1651000Y-2417000D03*
X-1651000Y-2671000D03*
X-1905000Y-2417000D03*
X-1905000Y-2671000D03*
X-2159000Y-2417000D03*
X-2159000Y-2671000D03*
X-2413000Y-2417000D03*
X-2413000Y-2671000D03*
D14*
X+800000Y+650000D03*
D15*
X+546000Y+650000D03*
X+292000Y+650000D03*
D16*
X+1350000Y+1758000D03*
D15*
X+1350000Y+1504000D03*
X+1350000Y+1250000D03*
D14*
X-808000Y+2350000D03*
D15*
X-554000Y+2350000D03*
X-300000Y+2350000D03*
D14*
X-300000Y+650000D03*
D15*
X-554000Y+650000D03*
X-808000Y+650000D03*
D16*
X-1350000Y+1246000D03*
D15*
X-1350000Y+1500000D03*
X-1350000Y+1754000D03*
D14*
X+300000Y+2350000D03*
D15*
X+554000Y+2350000D03*
X+808000Y+2350000D03*
D14*
X-808000Y+3300000D03*
D15*
X-554000Y+3300000D03*
X-300000Y+3300000D03*
D17*
X-6000000Y-6000000D03*
X-6508000Y-6000000D03*
X-4492000Y-6000000D03*
X-5000000Y-6000000D03*
D16*
X+4900000Y-286000D03*
X+4900000Y-32000D03*
X+4900000Y+222000D03*
X+4900000Y+476000D03*
X+4900000Y+730000D03*
X+4900000Y+984000D03*
X+4900000Y+1238000D03*
X+4900000Y+1492000D03*
X+4900000Y+1746000D03*
X+4900000Y+2000000D03*
X+4900000Y-1556000D03*
X+4900000Y-1302000D03*
X+4900000Y-1048000D03*
X+4900000Y-794000D03*
X+4900000Y-540000D03*
X+6424000Y-1556000D03*
X+6424000Y-1302000D03*
X+6424000Y-1048000D03*
X+6424000Y-794000D03*
X+6424000Y-540000D03*
X+6424000Y-286000D03*
X+6424000Y-32000D03*
X+6424000Y+222000D03*
X+6424000Y+476000D03*
X+6424000Y+730000D03*
X+6424000Y+984000D03*
X+6424000Y+1238000D03*
X+6424000Y+1492000D03*
X+6424000Y+1746000D03*
X+6424000Y+2000000D03*
D18*
X+5408000Y-1683000D03*
X+5662000Y-1683000D03*
X+5916000Y-1683000D03*
X+5916000Y-1429000D03*
X+5662000Y-1429000D03*
X+5408000Y-1429000D03*
D19*
X-4838000Y+3400000D03*
X-5092000Y+3400000D03*
X-5346000Y+3400000D03*
X-5600000Y+3400000D03*
X-5854000Y+3400000D03*
X-6108000Y+3400000D03*
X-4838000Y+2400000D03*
X-5092000Y+2400000D03*
X-5346000Y+2400000D03*
X-5600000Y+2400000D03*
X-5854000Y+2400000D03*
X-6108000Y+2400000D03*
D70*
X-6208000Y-4900000D03*
X-6208000Y-2790000D03*
X-4800000Y-4900000D03*
X-4800000Y-2790000D03*
D71*
X-900000Y-250000D03*
X+850000Y-250000D03*
D19*
X-5076000Y-414000D03*
X-5330000Y-414000D03*
X-6130000Y-414000D03*
X-6384000Y-414000D03*
X-5076000Y+1486000D03*
X-5330000Y+1486000D03*
X-6130000Y+1486000D03*
X-6384000Y+1486000D03*
D17*
X-7300000Y-5086000D03*
X-7300000Y-2800000D03*
X-4200000Y-600000D03*
X-4200000Y+1686000D03*
X-7300000Y-600000D03*
X-7300000Y+1686000D03*
D14*
X+296000Y+3300000D03*
D15*
X+550000Y+3300000D03*
X+804000Y+3300000D03*
D17*
X-7300000Y-1600000D03*
X-7300000Y-2108000D03*
D14*
X-4552000Y+4900000D03*
X-4806000Y+4900000D03*
X-5060000Y+4900000D03*
X-5314000Y+4900000D03*
X-5568000Y+4900000D03*
X-5822000Y+4900000D03*
X-6076000Y+4900000D03*
X-6330000Y+4900000D03*
X-6584000Y+4900000D03*
X-6838000Y+4900000D03*
X-6838000Y+4138000D03*
X-6584000Y+4138000D03*
X-6330000Y+4138000D03*
X-6076000Y+4138000D03*
X-5822000Y+4138000D03*
X-5568000Y+4138000D03*
X-5314000Y+4138000D03*
X-5060000Y+4138000D03*
X-4806000Y+4138000D03*
X-4552000Y+4138000D03*
D20*
X+6300000Y-4400000D03*
X+7500000Y-4400000D03*
X+6900000Y-4800000D03*
X+7500000Y-3000000D03*
X+6300000Y-3000000D03*
D18*
X+6000000Y+4300000D03*
X+7016000Y+4300000D03*
D16*
X+4700000Y-3500000D03*
X+4700000Y-3754000D03*
X+5462000Y-3754000D03*
X+5462000Y-3500000D03*
D19*
X-4300000Y-1354000D03*
X-4300000Y-1100000D03*
X-5200000Y-1354000D03*
X-5200000Y-1100000D03*
X-6000000Y-1354000D03*
X-6000000Y-1100000D03*
D17*
X+5300000Y-6000000D03*
X+4792000Y-6000000D03*
D18*
X-6679882Y-2408000D03*
X-5800000Y-1900000D03*
X-5879882Y-2408000D03*
X-5000000Y-1900000D03*
X+4584000Y-2900000D03*
X+5600000Y-2900000D03*
X-4979882Y-2408000D03*
X-4100000Y-1900000D03*
X-6700000Y+3400000D03*
X-6700000Y+2384000D03*
D19*
X+5200000Y-4300000D03*
X+4946000Y-4300000D03*
D15*
X+3311592Y+3930592D03*
X+3491197Y+4110197D03*
X+3670802Y+4289802D03*
X+3850407Y+4469408D03*
X+6200000Y+5100000D03*
X+6454000Y+5100000D03*
X+6708000Y+5100000D03*
D18*
X+5584000Y-5000000D03*
X+4568000Y-5000000D03*
D21*
X+6200000Y-6350000D03*
X+6200000Y-5334000D03*
X+6800000Y-6350000D03*
X+6800000Y-5334000D03*
D15*
X+4800000Y+5100000D03*
X+5054000Y+5100000D03*
X+5308000Y+5100000D03*
D22*
X+4400000Y-1556000D03*
X+4400000Y-1302000D03*
X+4400000Y-1048000D03*
X+4400000Y-794000D03*
X+4400000Y-540000D03*
X+4400000Y-286000D03*
X+4400000Y-32000D03*
X+4400000Y+222000D03*
X+4400000Y+476000D03*
X+4400000Y+730000D03*
X+4400000Y+984000D03*
X+4400000Y+1238000D03*
X+4400000Y+1492000D03*
X+4400000Y+1746000D03*
X+4400000Y+2000000D03*
X+6900000Y-1556000D03*
X+6900000Y-1302000D03*
X+6900000Y-1048000D03*
X+6900000Y-794000D03*
X+6900000Y-540000D03*
X+6900000Y-286000D03*
X+6900000Y-32000D03*
X+6900000Y+222000D03*
X+6900000Y+476000D03*
X+6900000Y+730000D03*
X+6900000Y+984000D03*
X+6900000Y+1238000D03*
X+6900000Y+1492000D03*
X+6900000Y+1746000D03*
X+6900000Y+2000000D03*
D17*
X+7200000Y+3100000D03*
X+7200000Y+3608000D03*
D19*
X-7604000Y+3712000D03*
X-7604000Y+3458000D03*
X-7604000Y+3204000D03*
X-7604000Y+2950000D03*
X-7604000Y+2696000D03*
X-7350000Y+2696000D03*
X-7350000Y+2950000D03*
X-7350000Y+3204000D03*
X-7350000Y+3458000D03*
X-7350000Y+3712000D03*
D15*
X+2750000Y+1754000D03*
X+2750000Y+1500000D03*
X+2750000Y+1246000D03*
X-3729605Y+4329605D03*
X-3550000Y+4150000D03*
X-3370394Y+3970394D03*
D13*
X-2354000Y+1150000D03*
X-2100000Y+1150000D03*
X-2100000Y+1912000D03*
X-2354000Y+1912000D03*
D23*
X-2323896Y+3403910D02*
X-2324397Y+3416146D01*
X-2328466Y+3440620D01*
X-2336967Y+3465094D01*
X-2350817Y+3489568D01*
X-2372007Y+3513878D01*
X-2396481Y+3532238D01*
X-2420955Y+3544072D01*
X-2445429Y+3550963D01*
X-2469903Y+3553597D01*
X-2473629Y+3553643D01*
X-2623362Y+3403910D02*
X-2622861Y+3416146D01*
X-2618792Y+3440620D01*
X-2610291Y+3465094D01*
X-2596441Y+3489568D01*
X-2575251Y+3513878D01*
X-2550777Y+3532238D01*
X-2526303Y+3544072D01*
X-2501829Y+3550963D01*
X-2477355Y+3553597D01*
X-2473629Y+3553643D01*
X-2623362Y+3403910D02*
X-2622861Y+3391674D01*
X-2618792Y+3367200D01*
X-2610291Y+3342726D01*
X-2596441Y+3318252D01*
X-2575251Y+3293942D01*
X-2550777Y+3275582D01*
X-2526303Y+3263748D01*
X-2501829Y+3256857D01*
X-2477355Y+3254223D01*
X-2473629Y+3254177D01*
X-2323896Y+3403910D02*
X-2324397Y+3391674D01*
X-2328466Y+3367200D01*
X-2336967Y+3342726D01*
X-2350817Y+3318252D01*
X-2372007Y+3293942D01*
X-2396481Y+3275582D01*
X-2420955Y+3263748D01*
X-2445429Y+3256857D01*
X-2469903Y+3254223D01*
X-2473629Y+3254177D01*
X+2623282Y+3403910D02*
X+2622781Y+3416146D01*
X+2618712Y+3440620D01*
X+2610211Y+3465094D01*
X+2596361Y+3489568D01*
X+2575171Y+3513878D01*
X+2550697Y+3532238D01*
X+2526223Y+3544072D01*
X+2501749Y+3550963D01*
X+2477275Y+3553597D01*
X+2473549Y+3553643D01*
X+2323816Y+3403910D02*
X+2324317Y+3416146D01*
X+2328386Y+3440620D01*
X+2336887Y+3465094D01*
X+2350737Y+3489568D01*
X+2371927Y+3513878D01*
X+2396401Y+3532238D01*
X+2420875Y+3544072D01*
X+2445349Y+3550963D01*
X+2469823Y+3553597D01*
X+2473549Y+3553643D01*
X+2323816Y+3403910D02*
X+2324317Y+3391674D01*
X+2328386Y+3367200D01*
X+2336887Y+3342726D01*
X+2350737Y+3318252D01*
X+2371927Y+3293942D01*
X+2396401Y+3275582D01*
X+2420875Y+3263748D01*
X+2445349Y+3256857D01*
X+2469823Y+3254223D01*
X+2473549Y+3254177D01*
X+2623282Y+3403910D02*
X+2622781Y+3391674D01*
X+2618712Y+3367200D01*
X+2610211Y+3342726D01*
X+2596361Y+3318252D01*
X+2575171Y+3293942D01*
X+2550697Y+3275582D01*
X+2526223Y+3263748D01*
X+2501749Y+3256857D01*
X+2477275Y+3254223D01*
X+2473549Y+3254177D01*
X+2623282Y+3403910D02*
X+2622781Y+3416146D01*
X+2618712Y+3440620D01*
X+2610211Y+3465094D01*
X+2596361Y+3489568D01*
X+2575171Y+3513878D01*
X+2550697Y+3532238D01*
X+2526223Y+3544072D01*
X+2501749Y+3550963D01*
X+2477275Y+3553597D01*
X+2473549Y+3553643D01*
X+2323816Y+3403910D02*
X+2324317Y+3416146D01*
X+2328386Y+3440620D01*
X+2336887Y+3465094D01*
X+2350737Y+3489568D01*
X+2371927Y+3513878D01*
X+2396401Y+3532238D01*
X+2420875Y+3544072D01*
X+2445349Y+3550963D01*
X+2469823Y+3553597D01*
X+2473549Y+3553643D01*
X+2323816Y+3403910D02*
X+2324317Y+3391674D01*
X+2328386Y+3367200D01*
X+2336887Y+3342726D01*
X+2350737Y+3318252D01*
X+2371927Y+3293942D01*
X+2396401Y+3275582D01*
X+2420875Y+3263748D01*
X+2445349Y+3256857D01*
X+2469823Y+3254223D01*
X+2473549Y+3254177D01*
X+2623282Y+3403910D02*
X+2622781Y+3391674D01*
X+2618712Y+3367200D01*
X+2610211Y+3342726D01*
X+2596361Y+3318252D01*
X+2575171Y+3293942D01*
X+2550697Y+3275582D01*
X+2526223Y+3263748D01*
X+2501749Y+3256857D01*
X+2477275Y+3254223D01*
X+2473549Y+3254177D01*
X-2323896Y+3403910D02*
X-2324397Y+3416146D01*
X-2328466Y+3440620D01*
X-2336967Y+3465094D01*
X-2350817Y+3489568D01*
X-2372007Y+3513878D01*
X-2396481Y+3532238D01*
X-2420955Y+3544072D01*
X-2445429Y+3550963D01*
X-2469903Y+3553597D01*
X-2473629Y+3553643D01*
X-2623362Y+3403910D02*
X-2622861Y+3416146D01*
X-2618792Y+3440620D01*
X-2610291Y+3465094D01*
X-2596441Y+3489568D01*
X-2575251Y+3513878D01*
X-2550777Y+3532238D01*
X-2526303Y+3544072D01*
X-2501829Y+3550963D01*
X-2477355Y+3553597D01*
X-2473629Y+3553643D01*
X-2623362Y+3403910D02*
X-2622861Y+3391674D01*
X-2618792Y+3367200D01*
X-2610291Y+3342726D01*
X-2596441Y+3318252D01*
X-2575251Y+3293942D01*
X-2550777Y+3275582D01*
X-2526303Y+3263748D01*
X-2501829Y+3256857D01*
X-2477355Y+3254223D01*
X-2473629Y+3254177D01*
X-2323896Y+3403910D02*
X-2324397Y+3391674D01*
X-2328466Y+3367200D01*
X-2336967Y+3342726D01*
X-2350817Y+3318252D01*
X-2372007Y+3293942D01*
X-2396481Y+3275582D01*
X-2420955Y+3263748D01*
X-2445429Y+3256857D01*
X-2469903Y+3254223D01*
X-2473629Y+3254177D01*
X-7133766Y-6594814D02*
X-7839614Y-5888966D01*
X-7985800Y-5536042D02*
X-7983275Y-5587910D01*
X-7975839Y-5638064D01*
X-7963697Y-5686255D01*
X-7947056Y-5732230D01*
X-7926121Y-5775740D01*
X-7901098Y-5816533D01*
X-7872194Y-5854359D01*
X-7839614Y-5888966D01*
X-7985800Y-5536042D02*
X-7985800Y+4531792D01*
X-7983275Y+4583660D01*
X-7975839Y+4633814D01*
X-7963697Y+4682005D01*
X-7947056Y+4727980D01*
X-7926121Y+4771490D01*
X-7901098Y+4812283D01*
X-7872194Y+4850109D01*
X-7839614Y+4884716D01*
X-7839610Y+4884720D02*
X-7133770Y+5590560D01*
X-7133766Y+5590564D02*
X-7099159Y+5623144D01*
X-7061333Y+5652048D01*
X-7020540Y+5677070D01*
X-6977030Y+5698006D01*
X-6931055Y+5714647D01*
X-6882864Y+5726789D01*
X-6832710Y+5734225D01*
X-6780842Y+5736750D01*
X-4449213Y+5736750D01*
X-4096289Y+5590564D02*
X-4130896Y+5623144D01*
X-4168722Y+5652048D01*
X-4209515Y+5677070D01*
X-4253025Y+5698006D01*
X-4299001Y+5714647D01*
X-4347191Y+5726789D01*
X-4397346Y+5734225D01*
X-4449213Y+5736750D01*
X-4096289Y+5590564D02*
X-3244255Y+4738530D01*
X-3244250Y+4738530D02*
X-2392220Y+3886500D01*
X-2392221Y+3886496D02*
X-2357614Y+3853916D01*
X-2319788Y+3825012D01*
X-2278995Y+3799990D01*
X-2235485Y+3779054D01*
X-2189510Y+3762413D01*
X-2141319Y+3750271D01*
X-2091165Y+3742835D01*
X-2039297Y+3740310D01*
X+2039217Y+3740310D01*
X+2392141Y+3886496D02*
X+2357534Y+3853916D01*
X+2319708Y+3825012D01*
X+2278915Y+3799990D01*
X+2235405Y+3779054D01*
X+2189429Y+3762413D01*
X+2141239Y+3750271D01*
X+2091084Y+3742835D01*
X+2039217Y+3740310D01*
X+2392141Y+3886496D02*
X+3244175Y+4738530D01*
X+4096209Y+5590564D01*
X+4130816Y+5623144D01*
X+4168642Y+5652048D01*
X+4209435Y+5677070D01*
X+4252945Y+5698006D01*
X+4298920Y+5714647D01*
X+4347111Y+5726789D01*
X+4397265Y+5734225D01*
X+4449133Y+5736750D01*
X+6780762Y+5736750D01*
X+7133686Y+5590564D02*
X+7099079Y+5623144D01*
X+7061253Y+5652048D01*
X+7020460Y+5677070D01*
X+6976950Y+5698006D01*
X+6930975Y+5714647D01*
X+6882784Y+5726789D01*
X+6832630Y+5734225D01*
X+6780762Y+5736750D01*
X+7133686Y+5590564D02*
X+7839534Y+4884716D01*
X+7985720Y+4531792D02*
X+7983195Y+4583660D01*
X+7975759Y+4633814D01*
X+7963617Y+4682005D01*
X+7946976Y+4727980D01*
X+7926041Y+4771490D01*
X+7901018Y+4812283D01*
X+7872114Y+4850109D01*
X+7839534Y+4884716D01*
X+7985720Y+4531792D02*
X+7985720Y-5536042D01*
X+7983195Y-5587910D01*
X+7975759Y-5638064D01*
X+7963617Y-5686255D01*
X+7946976Y-5732230D01*
X+7926041Y-5775740D01*
X+7901018Y-5816533D01*
X+7872114Y-5854359D01*
X+7839534Y-5888966D01*
X+7133686Y-6594814D01*
X+7099079Y-6627394D01*
X+7061253Y-6656298D01*
X+7020460Y-6681320D01*
X+6976950Y-6702256D01*
X+6930975Y-6718897D01*
X+6882784Y-6731039D01*
X+6832630Y-6738475D01*
X+6780762Y-6741000D01*
X+4449133Y-6741000D01*
X+4096209Y-6594814D02*
X+4130816Y-6627394D01*
X+4168642Y-6656298D01*
X+4209435Y-6681320D01*
X+4252945Y-6702256D01*
X+4298920Y-6718897D01*
X+4347111Y-6731039D01*
X+4397265Y-6738475D01*
X+4449133Y-6741000D01*
X+4096209Y-6594814D02*
X+3390361Y-5888966D01*
X+3244175Y-5536042D02*
X+3246700Y-5587910D01*
X+3254136Y-5638064D01*
X+3266278Y-5686255D01*
X+3282920Y-5732230D01*
X+3303855Y-5775740D01*
X+3328877Y-5816533D01*
X+3357781Y-5854359D01*
X+3390361Y-5888966D01*
X+3244175Y-5536042D02*
X+3244175Y-4851476D01*
X+3241650Y-4799608D01*
X+3234214Y-4749454D01*
X+3222072Y-4701263D01*
X+3205430Y-4655288D01*
X+3184495Y-4611778D01*
X+3159473Y-4570985D01*
X+3130569Y-4533159D01*
X+3097989Y-4498552D01*
X+2392141Y-3792704D01*
X+2357534Y-3760124D01*
X+2319708Y-3731220D01*
X+2278915Y-3706198D01*
X+2235405Y-3685262D01*
X+2189429Y-3668621D01*
X+2141239Y-3656479D01*
X+2091084Y-3649043D01*
X+2039217Y-3646518D01*
X-2039297Y-3646518D01*
X-2392221Y-3792704D02*
X-2357614Y-3760124D01*
X-2319788Y-3731220D01*
X-2278995Y-3706198D01*
X-2235485Y-3685262D01*
X-2189510Y-3668621D01*
X-2141319Y-3656479D01*
X-2091165Y-3649043D01*
X-2039297Y-3646518D01*
X-2392221Y-3792704D02*
X-3098069Y-4498552D01*
X-3244255Y-4851476D02*
X-3241730Y-4799608D01*
X-3234294Y-4749454D01*
X-3222152Y-4701263D01*
X-3205510Y-4655288D01*
X-3184575Y-4611778D01*
X-3159553Y-4570985D01*
X-3130649Y-4533159D01*
X-3098069Y-4498552D01*
X-3244255Y-4851476D02*
X-3244255Y-5536042D01*
X-3246780Y-5587910D01*
X-3254216Y-5638064D01*
X-3266358Y-5686255D01*
X-3283000Y-5732230D01*
X-3303935Y-5775740D01*
X-3328957Y-5816533D01*
X-3357861Y-5854359D01*
X-3390441Y-5888966D01*
X-4096289Y-6594814D01*
X-4130896Y-6627394D01*
X-4168722Y-6656298D01*
X-4209515Y-6681320D01*
X-4253025Y-6702256D01*
X-4299001Y-6718897D01*
X-4347191Y-6731039D01*
X-4397346Y-6738475D01*
X-4449213Y-6741000D01*
X-6780842Y-6741000D01*
X-7133766Y-6594814D02*
X-7099159Y-6627394D01*
X-7061333Y-6656298D01*
X-7020540Y-6681320D01*
X-6977030Y-6702256D01*
X-6931055Y-6718897D01*
X-6882864Y-6731039D01*
X-6832710Y-6738475D01*
X-6780842Y-6741000D01*
X-3743365Y+3291111D02*
X-3744179Y+3311247D01*
X-3750787Y+3351520D01*
X-3764576Y+3391793D01*
X-3786985Y+3432066D01*
X-3821224Y+3472214D01*
X-3861497Y+3503256D01*
X-3901770Y+3523424D01*
X-3942043Y+3535425D01*
X-3982316Y+3540441D01*
X-3992920Y+3540666D01*
X-4242475Y+3291111D02*
X-4241661Y+3311247D01*
X-4235053Y+3351520D01*
X-4221264Y+3391793D01*
X-4198855Y+3432066D01*
X-4164616Y+3472214D01*
X-4124343Y+3503256D01*
X-4084070Y+3523424D01*
X-4043797Y+3535425D01*
X-4003524Y+3540441D01*
X-3992920Y+3540666D01*
X-4242475Y+3291111D02*
X-4241661Y+3270975D01*
X-4235053Y+3230702D01*
X-4221264Y+3190429D01*
X-4198855Y+3150156D01*
X-4164616Y+3110008D01*
X-4124343Y+3078966D01*
X-4084070Y+3058798D01*
X-4043797Y+3046797D01*
X-4003524Y+3041781D01*
X-3992920Y+3041556D01*
X-3743365Y+3291111D02*
X-3744179Y+3270975D01*
X-3750787Y+3230702D01*
X-3764576Y+3190429D01*
X-3786985Y+3150156D01*
X-3821224Y+3110008D01*
X-3861497Y+3078966D01*
X-3901770Y+3058798D01*
X-3942043Y+3046797D01*
X-3982316Y+3041781D01*
X-3992920Y+3041556D01*
X+4242395Y+3291111D02*
X+4241581Y+3311247D01*
X+4234973Y+3351520D01*
X+4221184Y+3391793D01*
X+4198775Y+3432066D01*
X+4164536Y+3472214D01*
X+4124263Y+3503256D01*
X+4083990Y+3523424D01*
X+4043717Y+3535425D01*
X+4003444Y+3540441D01*
X+3992840Y+3540666D01*
X+3743285Y+3291111D02*
X+3744099Y+3311247D01*
X+3750707Y+3351520D01*
X+3764496Y+3391793D01*
X+3786905Y+3432066D01*
X+3821144Y+3472214D01*
X+3861417Y+3503256D01*
X+3901690Y+3523424D01*
X+3941963Y+3535425D01*
X+3982236Y+3540441D01*
X+3992840Y+3540666D01*
X+3743285Y+3291111D02*
X+3744099Y+3270975D01*
X+3750707Y+3230702D01*
X+3764496Y+3190429D01*
X+3786905Y+3150156D01*
X+3821144Y+3110008D01*
X+3861417Y+3078966D01*
X+3901690Y+3058798D01*
X+3941963Y+3046797D01*
X+3982236Y+3041781D01*
X+3992840Y+3041556D01*
X+4242395Y+3291111D02*
X+4241581Y+3270975D01*
X+4234973Y+3230702D01*
X+4221184Y+3190429D01*
X+4198775Y+3150156D01*
X+4164536Y+3110008D01*
X+4124263Y+3078966D01*
X+4083990Y+3058798D01*
X+4043717Y+3046797D01*
X+4003444Y+3041781D01*
X+3992840Y+3041556D01*
X-3743365Y-2997675D02*
X-3744179Y-2977539D01*
X-3750787Y-2937266D01*
X-3764576Y-2896993D01*
X-3786985Y-2856720D01*
X-3821224Y-2816572D01*
X-3861497Y-2785530D01*
X-3901770Y-2765362D01*
X-3942043Y-2753361D01*
X-3982316Y-2748345D01*
X-3992920Y-2748120D01*
X-4242475Y-2997675D02*
X-4241661Y-2977539D01*
X-4235053Y-2937266D01*
X-4221264Y-2896993D01*
X-4198855Y-2856720D01*
X-4164616Y-2816572D01*
X-4124343Y-2785530D01*
X-4084070Y-2765362D01*
X-4043797Y-2753361D01*
X-4003524Y-2748345D01*
X-3992920Y-2748120D01*
X-4242475Y-2997675D02*
X-4241661Y-3017811D01*
X-4235053Y-3058084D01*
X-4221264Y-3098357D01*
X-4198855Y-3138630D01*
X-4164616Y-3178778D01*
X-4124343Y-3209820D01*
X-4084070Y-3229988D01*
X-4043797Y-3241989D01*
X-4003524Y-3247005D01*
X-3992920Y-3247230D01*
X-3743365Y-2997675D02*
X-3744179Y-3017811D01*
X-3750787Y-3058084D01*
X-3764576Y-3098357D01*
X-3786985Y-3138630D01*
X-3821224Y-3178778D01*
X-3861497Y-3209820D01*
X-3901770Y-3229988D01*
X-3942043Y-3241989D01*
X-3982316Y-3247005D01*
X-3992920Y-3247230D01*
X+4242395Y-2997675D02*
X+4241581Y-2977539D01*
X+4234973Y-2937266D01*
X+4221184Y-2896993D01*
X+4198775Y-2856720D01*
X+4164536Y-2816572D01*
X+4124263Y-2785530D01*
X+4083990Y-2765362D01*
X+4043717Y-2753361D01*
X+4003444Y-2748345D01*
X+3992840Y-2748120D01*
X+3743285Y-2997675D02*
X+3744099Y-2977539D01*
X+3750707Y-2937266D01*
X+3764496Y-2896993D01*
X+3786905Y-2856720D01*
X+3821144Y-2816572D01*
X+3861417Y-2785530D01*
X+3901690Y-2765362D01*
X+3941963Y-2753361D01*
X+3982236Y-2748345D01*
X+3992840Y-2748120D01*
X+3743285Y-2997675D02*
X+3744099Y-3017811D01*
X+3750707Y-3058084D01*
X+3764496Y-3098357D01*
X+3786905Y-3138630D01*
X+3821144Y-3178778D01*
X+3861417Y-3209820D01*
X+3901690Y-3229988D01*
X+3941963Y-3241989D01*
X+3982236Y-3247005D01*
X+3992840Y-3247230D01*
X+4242395Y-2997675D02*
X+4241581Y-3017811D01*
X+4234973Y-3058084D01*
X+4221184Y-3098357D01*
X+4198775Y-3138630D01*
X+4164536Y-3178778D01*
X+4124263Y-3209820D01*
X+4083990Y-3229988D01*
X+4043717Y-3241989D01*
X+4003444Y-3247005D01*
X+3992840Y-3247230D01*
X+850000Y+2000000D02*
X-850000Y+2000000D01*
X+1000000Y+1850000D02*
X+1000000Y+1150000D01*
X+850000Y+1000000D02*
X-850000Y+1000000D01*
X-1000000Y+1850000D02*
X-1000000Y+1150000D01*
X-850000Y+1000000D02*
X-880670Y+1002985D01*
X-909033Y+1011572D01*
X-934540Y+1025214D01*
X-956641Y+1043359D01*
X-974787Y+1065460D01*
X-988428Y+1090967D01*
X-997015Y+1119330D01*
X-1000000Y+1150000D01*
X+1000000Y+1150000D02*
X+997015Y+1119330D01*
X+988428Y+1090967D01*
X+974787Y+1065460D01*
X+956641Y+1043359D01*
X+934540Y+1025214D01*
X+909033Y+1011572D01*
X+880670Y+1002985D01*
X+850000Y+1000000D01*
X+850000Y+2000000D02*
X+880670Y+1997015D01*
X+909033Y+1988428D01*
X+934540Y+1974786D01*
X+956641Y+1956641D01*
X+974787Y+1934540D01*
X+988428Y+1909033D01*
X+997015Y+1880670D01*
X+1000000Y+1850000D01*
X-1000000Y+1850000D02*
X-997015Y+1880670D01*
X-988428Y+1909033D01*
X-974787Y+1934540D01*
X-956641Y+1956641D01*
X-934540Y+1974786D01*
X-909033Y+1988428D01*
X-880670Y+1997015D01*
X-850000Y+2000000D01*
X-2750000Y+2850000D02*
X-2750502Y+2862258D01*
X-2754578Y+2886775D01*
X-2763094Y+2911292D01*
X-2776968Y+2935809D01*
X-2798194Y+2960161D01*
X-2822711Y+2978555D01*
X-2847228Y+2990411D01*
X-2871745Y+2997315D01*
X-2896262Y+2999953D01*
X-2900000Y+3000000D01*
X-3050000Y+2850000D02*
X-3049498Y+2862258D01*
X-3045422Y+2886775D01*
X-3036906Y+2911292D01*
X-3023032Y+2935809D01*
X-3001806Y+2960161D01*
X-2977289Y+2978555D01*
X-2952772Y+2990411D01*
X-2928255Y+2997315D01*
X-2903738Y+2999953D01*
X-2900000Y+3000000D01*
X-3050000Y+2850000D02*
X-3049498Y+2837742D01*
X-3045422Y+2813225D01*
X-3036906Y+2788708D01*
X-3023032Y+2764191D01*
X-3001806Y+2739839D01*
X-2977289Y+2721445D01*
X-2952772Y+2709589D01*
X-2928255Y+2702685D01*
X-2903738Y+2700047D01*
X-2900000Y+2700000D01*
X-2750000Y+2850000D02*
X-2750502Y+2837742D01*
X-2754578Y+2813225D01*
X-2763094Y+2788708D01*
X-2776968Y+2764191D01*
X-2798194Y+2739839D01*
X-2822711Y+2721445D01*
X-2847228Y+2709589D01*
X-2871745Y+2702685D01*
X-2896262Y+2700047D01*
X-2900000Y+2700000D01*
X+3050000Y+2850000D02*
X+3049498Y+2862258D01*
X+3045422Y+2886775D01*
X+3036906Y+2911292D01*
X+3023032Y+2935809D01*
X+3001806Y+2960161D01*
X+2977289Y+2978555D01*
X+2952772Y+2990411D01*
X+2928255Y+2997315D01*
X+2903738Y+2999953D01*
X+2900000Y+3000000D01*
X+2750000Y+2850000D02*
X+2750502Y+2862258D01*
X+2754578Y+2886775D01*
X+2763094Y+2911292D01*
X+2776968Y+2935809D01*
X+2798194Y+2960161D01*
X+2822711Y+2978555D01*
X+2847228Y+2990411D01*
X+2871745Y+2997315D01*
X+2896262Y+2999953D01*
X+2900000Y+3000000D01*
X+2750000Y+2850000D02*
X+2750502Y+2837742D01*
X+2754578Y+2813225D01*
X+2763094Y+2788708D01*
X+2776968Y+2764191D01*
X+2798194Y+2739839D01*
X+2822711Y+2721445D01*
X+2847228Y+2709589D01*
X+2871745Y+2702685D01*
X+2896262Y+2700047D01*
X+2900000Y+2700000D01*
X+3050000Y+2850000D02*
X+3049498Y+2837742D01*
X+3045422Y+2813225D01*
X+3036906Y+2788708D01*
X+3023032Y+2764191D01*
X+3001806Y+2739839D01*
X+2977289Y+2721445D01*
X+2952772Y+2709589D01*
X+2928255Y+2702685D01*
X+2903738Y+2700047D01*
X+2900000Y+2700000D01*
X+3050000Y-2000000D02*
X+3049498Y-1987742D01*
X+3045422Y-1963225D01*
X+3036906Y-1938708D01*
X+3023032Y-1914191D01*
X+3001806Y-1889839D01*
X+2977289Y-1871445D01*
X+2952772Y-1859589D01*
X+2928255Y-1852685D01*
X+2903738Y-1850047D01*
X+2900000Y-1850000D01*
X+2750000Y-2000000D02*
X+2750502Y-1987742D01*
X+2754578Y-1963225D01*
X+2763094Y-1938708D01*
X+2776968Y-1914191D01*
X+2798194Y-1889839D01*
X+2822711Y-1871445D01*
X+2847228Y-1859589D01*
X+2871745Y-1852685D01*
X+2896262Y-1850047D01*
X+2900000Y-1850000D01*
X+2750000Y-2000000D02*
X+2750502Y-2012258D01*
X+2754578Y-2036775D01*
X+2763094Y-2061292D01*
X+2776968Y-2085809D01*
X+2798194Y-2110161D01*
X+2822711Y-2128555D01*
X+2847228Y-2140411D01*
X+2871745Y-2147315D01*
X+2896262Y-2149953D01*
X+2900000Y-2150000D01*
X+3050000Y-2000000D02*
X+3049498Y-2012258D01*
X+3045422Y-2036775D01*
X+3036906Y-2061292D01*
X+3023032Y-2085809D01*
X+3001806Y-2110161D01*
X+2977289Y-2128555D01*
X+2952772Y-2140411D01*
X+2928255Y-2147315D01*
X+2903738Y-2149953D01*
X+2900000Y-2150000D01*
X-2750000Y-2000000D02*
X-2750502Y-1987742D01*
X-2754578Y-1963225D01*
X-2763094Y-1938708D01*
X-2776968Y-1914191D01*
X-2798194Y-1889839D01*
X-2822711Y-1871445D01*
X-2847228Y-1859589D01*
X-2871745Y-1852685D01*
X-2896262Y-1850047D01*
X-2900000Y-1850000D01*
X-3050000Y-2000000D02*
X-3049498Y-1987742D01*
X-3045422Y-1963225D01*
X-3036906Y-1938708D01*
X-3023032Y-1914191D01*
X-3001806Y-1889839D01*
X-2977289Y-1871445D01*
X-2952772Y-1859589D01*
X-2928255Y-1852685D01*
X-2903738Y-1850047D01*
X-2900000Y-1850000D01*
X-3050000Y-2000000D02*
X-3049498Y-2012258D01*
X-3045422Y-2036775D01*
X-3036906Y-2061292D01*
X-3023032Y-2085809D01*
X-3001806Y-2110161D01*
X-2977289Y-2128555D01*
X-2952772Y-2140411D01*
X-2928255Y-2147315D01*
X-2903738Y-2149953D01*
X-2900000Y-2150000D01*
X-2750000Y-2000000D02*
X-2750502Y-2012258D01*
X-2754578Y-2036775D01*
X-2763094Y-2061292D01*
X-2776968Y-2085809D01*
X-2798194Y-2110161D01*
X-2822711Y-2128555D01*
X-2847228Y-2140411D01*
X-2871745Y-2147315D01*
X-2896262Y-2149953D01*
X-2900000Y-2150000D01*
M02*
