G04 PROTEUS GERBER X2 FILE*
%TF.GenerationSoftware,Labcenter,Proteus,8.9-SP0-Build27865*%
%TF.CreationDate,2021-06-19T08:02:23+00:00*%
%TF.FileFunction,Plated,1,2,PTH*%
%TF.FilePolarity,Positive*%
%TF.Part,Single*%
%TF.SameCoordinates,{64bffbd5-d61a-4640-9b31-8bd0ff2465da}*%
%FSLAX45Y45*%
%MOMM*%
G01*
%TA.AperFunction,ViaDrill*%
%ADD40C,0.381000*%
%TA.AperFunction,ComponentDrill*%
%ADD41C,1.016000*%
%TA.AperFunction,ComponentDrill*%
%ADD42C,1.200000*%
%TA.AperFunction,ComponentDrill*%
%ADD43C,1.524000*%
%TA.AperFunction,ComponentDrill*%
%ADD44C,1.000000*%
%TA.AperFunction,ComponentDrill*%
%ADD45C,1.270000*%
%ADD46C,0.762000*%
%TA.AperFunction,ComponentDrill*%
%ADD47C,0.965200*%
%TD.AperFunction*%
D40*
X-4813300Y+1689100D03*
X-635000Y-1701800D03*
X+2946400Y-228600D03*
X+2336800Y-2197100D03*
X-990600Y-2197100D03*
X-990600Y-596900D03*
X-5549900Y+38100D03*
X+1905000Y+38100D03*
X-5803900Y-901700D03*
X+2159000Y-1308100D03*
X-3187700Y+685800D03*
X-4457700Y+685800D03*
X-2006600Y+3225800D03*
X+1905000Y+3517900D03*
X+1143000Y-3048000D03*
X+4127500Y+1955800D03*
X+4127500Y+406400D03*
X-1003300Y+2755900D03*
X-1562100Y+2578100D03*
X+5118100Y+2387600D03*
X+1841500Y+939800D03*
D41*
X+2413000Y-2417000D03*
X+2413000Y-2671000D03*
X+2159000Y-2417000D03*
X+2159000Y-2671000D03*
X+1905000Y-2417000D03*
X+1905000Y-2671000D03*
X+1651000Y-2417000D03*
X+1651000Y-2671000D03*
X+1397000Y-2417000D03*
X+1397000Y-2671000D03*
X+1143000Y-2417000D03*
X+1143000Y-2671000D03*
X+889000Y-2417000D03*
X+889000Y-2671000D03*
X+635000Y-2417000D03*
X+635000Y-2671000D03*
X+381000Y-2417000D03*
X+381000Y-2671000D03*
X+127000Y-2417000D03*
X+127000Y-2671000D03*
X-127000Y-2417000D03*
X-127000Y-2671000D03*
X-381000Y-2417000D03*
X-381000Y-2671000D03*
X-635000Y-2417000D03*
X-635000Y-2671000D03*
X-889000Y-2417000D03*
X-889000Y-2671000D03*
X-1143000Y-2417000D03*
X-1143000Y-2671000D03*
X-1397000Y-2417000D03*
X-1397000Y-2671000D03*
X-1651000Y-2417000D03*
X-1651000Y-2671000D03*
X-1905000Y-2417000D03*
X-1905000Y-2671000D03*
X-2159000Y-2417000D03*
X-2159000Y-2671000D03*
X-2413000Y-2417000D03*
X-2413000Y-2671000D03*
D42*
X+800000Y+650000D03*
D41*
X+546000Y+650000D03*
X+292000Y+650000D03*
D42*
X+1350000Y+1758000D03*
D41*
X+1350000Y+1504000D03*
X+1350000Y+1250000D03*
D42*
X-808000Y+2350000D03*
D41*
X-554000Y+2350000D03*
X-300000Y+2350000D03*
D42*
X-300000Y+650000D03*
D41*
X-554000Y+650000D03*
X-808000Y+650000D03*
D42*
X-1350000Y+1246000D03*
D41*
X-1350000Y+1500000D03*
X-1350000Y+1754000D03*
D42*
X+300000Y+2350000D03*
D41*
X+554000Y+2350000D03*
X+808000Y+2350000D03*
D42*
X-808000Y+3300000D03*
D41*
X-554000Y+3300000D03*
X-300000Y+3300000D03*
D43*
X-6000000Y-6000000D03*
X-6508000Y-6000000D03*
X-4492000Y-6000000D03*
X-5000000Y-6000000D03*
D42*
X+4900000Y-286000D03*
X+4900000Y-32000D03*
X+4900000Y+222000D03*
X+4900000Y+476000D03*
X+4900000Y+730000D03*
X+4900000Y+984000D03*
X+4900000Y+1238000D03*
X+4900000Y+1492000D03*
X+4900000Y+1746000D03*
X+4900000Y+2000000D03*
X+4900000Y-1556000D03*
X+4900000Y-1302000D03*
X+4900000Y-1048000D03*
X+4900000Y-794000D03*
X+4900000Y-540000D03*
X+6424000Y-1556000D03*
X+6424000Y-1302000D03*
X+6424000Y-1048000D03*
X+6424000Y-794000D03*
X+6424000Y-540000D03*
X+6424000Y-286000D03*
X+6424000Y-32000D03*
X+6424000Y+222000D03*
X+6424000Y+476000D03*
X+6424000Y+730000D03*
X+6424000Y+984000D03*
X+6424000Y+1238000D03*
X+6424000Y+1492000D03*
X+6424000Y+1746000D03*
X+6424000Y+2000000D03*
D44*
X+5408000Y-1683000D03*
X+5662000Y-1683000D03*
X+5916000Y-1683000D03*
X+5916000Y-1429000D03*
X+5662000Y-1429000D03*
X+5408000Y-1429000D03*
D41*
X-4838000Y+3400000D03*
X-5092000Y+3400000D03*
X-5346000Y+3400000D03*
X-5600000Y+3400000D03*
X-5854000Y+3400000D03*
X-6108000Y+3400000D03*
X-4838000Y+2400000D03*
X-5092000Y+2400000D03*
X-5346000Y+2400000D03*
X-5600000Y+2400000D03*
X-5854000Y+2400000D03*
X-6108000Y+2400000D03*
D43*
X-6208000Y-4900000D03*
X-6208000Y-2790000D03*
X-4800000Y-4900000D03*
X-4800000Y-2790000D03*
D45*
X-900000Y-250000D03*
X+850000Y-250000D03*
D41*
X-5076000Y-414000D03*
X-5330000Y-414000D03*
X-6130000Y-414000D03*
X-6384000Y-414000D03*
X-5076000Y+1486000D03*
X-5330000Y+1486000D03*
X-6130000Y+1486000D03*
X-6384000Y+1486000D03*
D43*
X-7300000Y-5086000D03*
X-7300000Y-2800000D03*
X-4200000Y-600000D03*
X-4200000Y+1686000D03*
X-7300000Y-600000D03*
X-7300000Y+1686000D03*
D42*
X+296000Y+3300000D03*
D41*
X+550000Y+3300000D03*
X+804000Y+3300000D03*
D43*
X-7300000Y-1600000D03*
X-7300000Y-2108000D03*
D42*
X-4552000Y+4900000D03*
X-4806000Y+4900000D03*
X-5060000Y+4900000D03*
X-5314000Y+4900000D03*
X-5568000Y+4900000D03*
X-5822000Y+4900000D03*
X-6076000Y+4900000D03*
X-6330000Y+4900000D03*
X-6584000Y+4900000D03*
X-6838000Y+4900000D03*
X-6838000Y+4138000D03*
X-6584000Y+4138000D03*
X-6330000Y+4138000D03*
X-6076000Y+4138000D03*
X-5822000Y+4138000D03*
X-5568000Y+4138000D03*
X-5314000Y+4138000D03*
X-5060000Y+4138000D03*
X-4806000Y+4138000D03*
X-4552000Y+4138000D03*
D43*
X+6300000Y-4400000D03*
X+7500000Y-4400000D03*
X+6900000Y-4800000D03*
X+7500000Y-3000000D03*
X+6300000Y-3000000D03*
D46*
X+6000000Y+4300000D03*
X+7016000Y+4300000D03*
D42*
X+4700000Y-3500000D03*
X+4700000Y-3754000D03*
X+5462000Y-3754000D03*
X+5462000Y-3500000D03*
D41*
X-4300000Y-1354000D03*
X-4300000Y-1100000D03*
X-5200000Y-1354000D03*
X-5200000Y-1100000D03*
X-6000000Y-1354000D03*
X-6000000Y-1100000D03*
D43*
X+5300000Y-6000000D03*
X+4792000Y-6000000D03*
D46*
X-6679882Y-2408000D03*
X-5800000Y-1900000D03*
X-5879882Y-2408000D03*
X-5000000Y-1900000D03*
X+4584000Y-2900000D03*
X+5600000Y-2900000D03*
X-4979882Y-2408000D03*
X-4100000Y-1900000D03*
X-6700000Y+3400000D03*
X-6700000Y+2384000D03*
D41*
X+5200000Y-4300000D03*
X+4946000Y-4300000D03*
X+3311592Y+3930592D03*
X+3491197Y+4110197D03*
X+3670802Y+4289802D03*
X+3850407Y+4469408D03*
X+6200000Y+5100000D03*
X+6454000Y+5100000D03*
X+6708000Y+5100000D03*
D46*
X+5584000Y-5000000D03*
X+4568000Y-5000000D03*
D41*
X+6200000Y-6350000D03*
X+6200000Y-5334000D03*
X+6800000Y-6350000D03*
X+6800000Y-5334000D03*
X+4800000Y+5100000D03*
X+5054000Y+5100000D03*
X+5308000Y+5100000D03*
D47*
X+4400000Y-1556000D03*
X+4400000Y-1302000D03*
X+4400000Y-1048000D03*
X+4400000Y-794000D03*
X+4400000Y-540000D03*
X+4400000Y-286000D03*
X+4400000Y-32000D03*
X+4400000Y+222000D03*
X+4400000Y+476000D03*
X+4400000Y+730000D03*
X+4400000Y+984000D03*
X+4400000Y+1238000D03*
X+4400000Y+1492000D03*
X+4400000Y+1746000D03*
X+4400000Y+2000000D03*
X+6900000Y-1556000D03*
X+6900000Y-1302000D03*
X+6900000Y-1048000D03*
X+6900000Y-794000D03*
X+6900000Y-540000D03*
X+6900000Y-286000D03*
X+6900000Y-32000D03*
X+6900000Y+222000D03*
X+6900000Y+476000D03*
X+6900000Y+730000D03*
X+6900000Y+984000D03*
X+6900000Y+1238000D03*
X+6900000Y+1492000D03*
X+6900000Y+1746000D03*
X+6900000Y+2000000D03*
D43*
X+7200000Y+3100000D03*
X+7200000Y+3608000D03*
D41*
X-7604000Y+3712000D03*
X-7604000Y+3458000D03*
X-7604000Y+3204000D03*
X-7604000Y+2950000D03*
X-7604000Y+2696000D03*
X-7350000Y+2696000D03*
X-7350000Y+2950000D03*
X-7350000Y+3204000D03*
X-7350000Y+3458000D03*
X-7350000Y+3712000D03*
X+2750000Y+1754000D03*
X+2750000Y+1500000D03*
X+2750000Y+1246000D03*
X-3729605Y+4329605D03*
X-3550000Y+4150000D03*
X-3370394Y+3970394D03*
X-2354000Y+1150000D03*
X-2100000Y+1150000D03*
X-2100000Y+1912000D03*
X-2354000Y+1912000D03*
M02*
