  0
SECTION
  2
HEADER
  9
$ACADVER
  1
AC1009
  9
$INSBASE
 10
0.0
 20
0.0
 30
0.0
  9
$EXTMIN
 10
-141.05375330857709
 20
-12697.26424869358
 30
0.0
  9
$EXTMAX
 10
7098.9465358354209
 20
4332.8692119464204
 30
0.0
  9
$LIMMIN
 10
0.0
 20
0.0
  9
$LIMMAX
 10
12.0
 20
9.0
  9
$ORTHOMODE
 70
     0
  9
$REGENMODE
 70
     1
  9
$FILLMODE
 70
     1
  9
$QTEXTMODE
 70
     0
  9
$MIRRTEXT
 70
     0
  9
$DRAGMODE
 70
     2
  9
$LTSCALE
 40
1.0
  9
$OSMODE
 70
   447
  9
$ATTMODE
 70
     1
  9
$TEXTSIZE
 40
0.2
  9
$TRACEWID
 40
0.05
  9
$TEXTSTYLE
  7
ANNOTATIVE
  9
$CLAYER
  8
0
  9
$CELTYPE
  6
BYLAYER
  9
$CECOLOR
 62
   256
  9
$DIMSCALE
 40
1.0
  9
$DIMASZ
 40
0.18
  9
$DIMEXO
 40
0.0625
  9
$DIMDLI
 40
0.38
  9
$DIMRND
 40
0.0
  9
$DIMDLE
 40
0.0
  9
$DIMEXE
 40
0.18
  9
$DIMTP
 40
0.0
  9
$DIMTM
 40
0.0
  9
$DIMTXT
 40
0.18
  9
$DIMCEN
 40
0.09
  9
$DIMTSZ
 40
0.0
  9
$DIMTOL
 70
     0
  9
$DIMLIM
 70
     0
  9
$DIMTIH
 70
     1
  9
$DIMTOH
 70
     1
  9
$DIMSE1
 70
     0
  9
$DIMSE2
 70
     0
  9
$DIMTAD
 70
     0
  9
$DIMZIN
 70
     0
  9
$DIMBLK
  1

  9
$DIMASO
 70
     1
  9
$DIMSHO
 70
     1
  9
$DIMPOST
  1

  9
$DIMAPOST
  1

  9
$DIMALT
 70
     0
  9
$DIMALTD
 70
     2
  9
$DIMALTF
 40
25.399999999999999
  9
$DIMLFAC
 40
1.0
  9
$DIMTOFL
 70
     0
  9
$DIMTVP
 40
0.0
  9
$DIMTIX
 70
     0
  9
$DIMSOXD
 70
     0
  9
$DIMSAH
 70
     0
  9
$DIMBLK1
  1

  9
$DIMBLK2
  1

  9
$DIMSTYLE
  2
STANDARD
  9
$DIMCLRD
 70
     0
  9
$DIMCLRE
 70
     0
  9
$DIMCLRT
 70
     0
  9
$DIMTFAC
 40
1.0
  9
$DIMGAP
 40
0.09
  9
$LUNITS
 70
     2
  9
$LUPREC
 70
     4
  9
$SKETCHINC
 40
0.1
  9
$FILLETRAD
 40
5.0
  9
$AUNITS
 70
     0
  9
$AUPREC
 70
     0
  9
$MENU
  1
.
  9
$ELEVATION
 40
0.0
  9
$PELEVATION
 40
0.0
  9
$THICKNESS
 40
0.0
  9
$LIMCHECK
 70
     0
  9
$BLIPMODE
 70
     0
  9
$CHAMFERA
 40
5.0
  9
$CHAMFERB
 40
5.0
  9
$SKPOLY
 70
     0
  9
$TDCREATE
 40
2459375.5419239472
  9
$TDUPDATE
 40
2459377.8547784141
  9
$TDINDWG
 40
0.1856432639
  9
$TDUSRTIMER
 40
0.1856416667
  9
$USRTIMER
 70
     1
  9
$ANGBASE
 50
0.0
  9
$ANGDIR
 70
     0
  9
$PDMODE
 70
     0
  9
$PDSIZE
 40
0.0
  9
$PLINEWID
 40
0.0
  9
$COORDS
 70
     1
  9
$SPLFRAME
 70
     0
  9
$SPLINETYPE
 70
     6
  9
$SPLINESEGS
 70
     8
  9
$ATTDIA
 70
     0
  9
$ATTREQ
 70
     1
  9
$HANDLING
 70
     1
  9
$HANDSEED
  5
132C
  9
$SURFTAB1
 70
     6
  9
$SURFTAB2
 70
     6
  9
$SURFTYPE
 70
     6
  9
$SURFU
 70
     6
  9
$SURFV
 70
     6
  9
$UCSNAME
  2

  9
$UCSORG
 10
0.0
 20
0.0
 30
0.0
  9
$UCSXDIR
 10
1.0
 20
0.0
 30
0.0
  9
$UCSYDIR
 10
0.0
 20
1.0
 30
0.0
  9
$PUCSNAME
  2

  9
$PUCSORG
 10
0.0
 20
0.0
 30
0.0
  9
$PUCSXDIR
 10
1.0
 20
0.0
 30
0.0
  9
$PUCSYDIR
 10
0.0
 20
1.0
 30
0.0
  9
$USERI1
 70
     0
  9
$USERI2
 70
     0
  9
$USERI3
 70
     0
  9
$USERI4
 70
     0
  9
$USERI5
 70
     0
  9
$USERR1
 40
0.0
  9
$USERR2
 40
0.0
  9
$USERR3
 40
0.0
  9
$USERR4
 40
0.0
  9
$USERR5
 40
0.0
  9
$WORLDVIEW
 70
     1
  9
$SHADEDGE
 70
     3
  9
$SHADEDIF
 70
    70
  9
$TILEMODE
 70
     1
  9
$MAXACTVP
 70
    64
  9
$PLIMCHECK
 70
     0
  9
$PEXTMIN
 10
0.0
 20
0.0
 30
0.0
  9
$PEXTMAX
 10
0.0
 20
0.0
 30
0.0
  9
$PLIMMIN
 10
0.0
 20
0.0
  9
$PLIMMAX
 10
12.0
 20
9.0
  9
$UNITMODE
 70
     0
  9
$VISRETAIN
 70
     1
  9
$PLINEGEN
 70
     0
  9
$PSLTSCALE
 70
     1
  0
ENDSEC
  0
SECTION
  2
TABLES
  0
TABLE
  2
VPORT
 70
     1
  0
VPORT
  2
*ACTIVE
 70
     0
 10
0.0
 20
0.0
 11
1.0
 21
1.0
 12
118.8875018890366
 22
133.07004850130761
 13
0.0
 23
0.0
 14
0.5
 24
0.5
 15
0.5
 25
0.5
 16
0.0
 26
0.0
 36
1.0
 17
0.0
 27
0.0
 37
0.0
 40
476.03803531774611
 41
2.73170731707317
 42
50.0
 43
0.0
 44
0.0
 50
0.0
 51
0.0
 71
     0
 72
  1000
 73
     1
 74
     3
 75
     0
 76
     0
 77
     0
 78
     2
  0
ENDTAB
  0
TABLE
  2
LTYPE
 70
     2
  0
LTYPE
  2
CONTINUOUS
 70
     0
  3
Solid line
 72
    65
 73
     0
 40
0.0
  0
ENDTAB
  0
TABLE
  2
LAYER
 70
     2
  0
LAYER
  2
0
 70
     0
 62
     7
  6
CONTINUOUS
  0
LAYER
  2
DEFPOINTS
 70
     0
 62
     7
  6
CONTINUOUS
  0
ENDTAB
  0
TABLE
  2
STYLE
 70
     2
  0
STYLE
  2
STANDARD
 70
     0
 40
0.0
 41
1.0
 50
0.0
 71
     0
 42
0.2
  3
txt
  4

  0
STYLE
  2
ANNOTATIVE
 70
     0
 40
0.0
 41
1.0
 50
0.0
 71
     0
 42
0.2
  3
txt
  4

  0
ENDTAB
  0
TABLE
  2
VIEW
 70
     0
  0
ENDTAB
  0
TABLE
  2
UCS
 70
     0
  0
ENDTAB
  0
TABLE
  2
APPID
 70
     8
  0
APPID
  2
ACAD
 70
     0
  0
APPID
  2
ACADANNOTATIVE
 70
     0
  0
APPID
  2
ACADANNOPO
 70
     0
  0
APPID
  2
ACAD_DSTYLE_DIMJAG
 70
     0
  0
APPID
  2
ACAD_DSTYLE_DIMTALN
 70
     0
  0
APPID
  2
ACAD_MLEADERVER
 70
     0
  0
APPID
  2
ACAD_NAV_VCDISPLAY
 70
     0
  0
APPID
  2
ACAD_EXEMPT_FROM_CAD_STANDARDS
 70
     0
  0
ENDTAB
  0
TABLE
  2
DIMSTYLE
 70
     4
  0
DIMSTYLE
  2
STANDARD
 70
     0
  3

  4

  5

  6

  7

 40
1.0
 41
0.18
 42
0.0625
 43
0.38
 44
0.18
 45
0.0
 46
0.0
 47
0.0
 48
0.0
140
0.18
141
0.09
142
0.0
143
25.399999999999999
144
1.0
145
0.0
146
1.0
147
0.09
 71
     0
 72
     0
 73
     1
 74
     1
 75
     0
 76
     0
 77
     0
 78
     0
170
     0
171
     2
172
     0
173
     0
174
     0
175
     0
176
     0
177
     0
178
     0
  0
DIMSTYLE
  2
ANNOTATIVE
 70
     0
  3

  4

  5

  6

  7

 40
0.0
 41
0.18
 42
0.0625
 43
0.38
 44
0.18
 45
0.0
 46
0.0
 47
0.0
 48
0.0
140
0.18
141
0.09
142
0.0
143
25.399999999999999
144
1.0
145
0.0
146
1.0
147
0.09
 71
     0
 72
     0
 73
     1
 74
     1
 75
     0
 76
     0
 77
     0
 78
     0
170
     0
171
     2
172
     0
173
     0
174
     0
175
     0
176
     0
177
     0
178
     0
  0
DIMSTYLE
  2
ISO-25
 70
     0
  3

  4

  5

  6

  7

 40
1.0
 41
2.5
 42
0.625
 43
3.75
 44
1.25
 45
0.0
 46
0.0
 47
0.0
 48
0.0
140
2.5
141
2.5
142
0.0
143
0.0393700787
144
1.0
145
0.0
146
1.0
147
0.625
 71
     0
 72
     0
 73
     0
 74
     0
 75
     0
 76
     0
 77
     1
 78
     8
170
     0
171
     3
172
     1
173
     0
174
     0
175
     0
176
     0
177
     0
178
     0
  0
ENDTAB
  0
ENDSEC
  0
SECTION
  2
BLOCKS
  0
BLOCK
  8
0
  2
$MODEL_SPACE
 70
     0
 10
0.0
 20
0.0
 30
0.0
  3
$MODEL_SPACE
  1

  0
ENDBLK
  5
74E
  8
0
  0
BLOCK
 67
     1
  8
0
  2
$PAPER_SPACE
 70
     0
 10
0.0
 20
0.0
 30
0.0
  3
$PAPER_SPACE
  1

  0
ENDBLK
  5
74A
 67
     1
  8
0
  0
BLOCK
  8
0
  2
*D2
 70
     1
 10
0.0
 20
0.0
 30
0.0
  3
*D2
  1

  0
LINE
  5
24C
  8
0
 62
     0
 10
67.487790147034673
 20
59.65914321353025
 30
0.0
 11
67.487790147034673
 21
64.979770769252156
 31
0.0
  0
LINE
  5
24D
  8
0
 62
     0
 10
112.4877901470346
 20
59.65914321353025
 30
0.0
 11
112.4877901470346
 21
64.979770769252156
 31
0.0
  0
LINE
  5
24E
  8
0
 62
     0
 10
67.66779014703468
 20
64.799770769252177
 30
0.0
 11
89.450921115656755
 21
64.799770769252177
 31
0.0
  0
LINE
  5
24F
  8
0
 62
     0
 10
112.30779014703459
 20
64.799770769252177
 30
0.0
 11
90.524659178412577
 21
64.799770769252177
 31
0.0
  0
SOLID
  5
250
  8
0
 62
     0
 10
67.66779014703468
 20
64.829770769252178
 30
0.0
 11
67.66779014703468
 21
64.769770769252176
 31
0.0
 12
67.487790147034673
 22
64.799770769252177
 32
0.0
 13
67.487790147034673
 23
64.799770769252177
 33
0.0
  0
SOLID
  5
251
  8
0
 62
     0
 10
112.30779014703459
 20
64.829770769252178
 30
0.0
 11
112.30779014703459
 21
64.769770769252176
 31
0.0
 12
112.4877901470346
 22
64.799770769252177
 32
0.0
 13
112.4877901470346
 23
64.799770769252177
 33
0.0
  0
INSERT
  5
252
  8
0
  2
*U3
 10
0.0
 20
0.0
 30
0.0
  0
POINT
  5
253
  8
DEFPOINTS
 62
     0
 10
67.487790147034673
 20
59.596643213530257
 30
0.0
  0
POINT
  5
254
  8
DEFPOINTS
 62
     0
 10
112.4877901470346
 20
59.596643213530257
 30
0.0
  0
POINT
  5
255
  8
DEFPOINTS
 62
     0
 10
112.4877901470346
 20
64.799770769252177
 30
0.0
  0
ENDBLK
  5
235
  8
0
  0
BLOCK
  8
0
  2
*U3
 70
     1
 10
0.0
 20
0.0
 30
0.0
  3
*U3
  1

  0
TEXT
  5
6DD
  8
0
 62
     0
 10
89.537728755493063
 20
64.711305557792429
 30
0.0
 40
0.18
  1
45.0000
  7
ANNOTATIVE
  0
ENDBLK
  5
6DF
  8
0
  0
ENDSEC
  0
SECTION
  2
ENTITIES
  0
CIRCLE
  5
A34
  8
0
  6
CONTINUOUS
 62
     7
 10
74.958302206722578
 20
125.7891308997085
 30
0.0
 40
1.5
  0
CIRCLE
  5
A35
  8
0
  6
CONTINUOUS
 62
     7
 10
124.51830220672259
 20
125.7891308997085
 30
0.0
 40
1.5
  0
CIRCLE
  5
A36
  8
0
  6
CONTINUOUS
 62
     7
 10
124.51830220672259
 20
125.7891308997085
 30
0.0
 40
1.5
  0
CIRCLE
  5
A37
  8
0
  6
CONTINUOUS
 62
     7
 10
74.958302206722578
 20
125.7891308997085
 30
0.0
 40
1.5
  0
POLYLINE
  5
A38
  8
0
 66
     1
 10
0.0
 20
0.0
 30
0.0
 70
     1
  0
VERTEX
  5
12F0
  8
0
 10
28.273836112655431
 20
25.623596993775841
 30
0.0
  0
VERTEX
  5
12F1
  8
0
 10
21.202768300789899
 20
32.694664805641253
 30
0.0
 42
-0.198912367379658
  0
VERTEX
  5
12F2
  8
0
 10
19.738302206722661
 20
36.230198711573991
 30
0.0
  0
VERTEX
  5
12F3
  8
0
 10
19.738302206722661
 20
137.08806308784301
 30
0.0
 42
-0.1989123673796602
  0
VERTEX
  5
12F4
  8
0
 10
21.202768300789899
 20
140.62359699377581
 30
0.0
  0
VERTEX
  5
12F5
  8
0
 10
28.273836112655431
 20
147.6946648056412
 30
0.0
 42
-0.1989123673796561
  0
VERTEX
  5
12F6
  8
0
 10
31.80937001858808
 20
149.15913089970849
 30
0.0
  0
VERTEX
  5
12F7
  8
0
 10
55.167234394857239
 20
149.15913089970849
 30
0.0
 42
-0.198912367379658
  0
VERTEX
  5
12F8
  8
0
 10
58.702768300789899
 20
147.69466480564111
 30
0.0
  0
VERTEX
  5
12F9
  8
0
 10
67.238302206722665
 20
139.15913089970849
 30
0.0
  0
VERTEX
  5
12FA
  8
0
 10
75.773836112655431
 20
130.62359699377569
 30
0.0
 42
0.1989123673796576
  0
VERTEX
  5
12FB
  8
0
 10
79.309370018588083
 20
129.15913089970849
 30
0.0
  0
VERTEX
  5
12FC
  8
0
 10
120.1672343948571
 20
129.15913089970849
 30
0.0
 42
0.1989123673796575
  0
VERTEX
  5
12FD
  8
0
 10
123.7027683007898
 20
130.62359699377569
 30
0.0
  0
VERTEX
  5
12FE
  8
0
 10
132.23830220672261
 20
139.15913089970849
 30
0.0
  0
VERTEX
  5
12FF
  8
0
 10
140.77383611265509
 20
147.69466480564111
 30
0.0
 42
-0.1989123673796595
  0
VERTEX
  5
1300
  8
0
 10
144.30937001858791
 20
149.15913089970849
 30
0.0
  0
VERTEX
  5
1301
  8
0
 10
167.6672343948573
 20
149.15913089970849
 30
0.0
 42
-0.1989123673796561
  0
VERTEX
  5
1302
  8
0
 10
171.20276830078981
 20
147.6946648056412
 30
0.0
  0
VERTEX
  5
1303
  8
0
 10
178.27383611265549
 20
140.62359699377581
 30
0.0
 42
-0.1989123673796605
  0
VERTEX
  5
1304
  8
0
 10
179.73830220672261
 20
137.08806308784301
 30
0.0
  0
VERTEX
  5
1305
  8
0
 10
179.73830220672261
 20
36.230198711574019
 30
0.0
 42
-0.1989123673796561
  0
VERTEX
  5
1306
  8
0
 10
178.27383611265529
 20
32.694664805641281
 30
0.0
  0
VERTEX
  5
1307
  8
0
 10
171.20276830078981
 20
25.623596993775841
 30
0.0
 42
-0.1989123673796594
  0
VERTEX
  5
1308
  8
0
 10
167.6672343948573
 20
24.15913089970854
 30
0.0
  0
VERTEX
  5
1309
  8
0
 10
144.30937001858791
 20
24.15913089970854
 30
0.0
 42
-0.1989123673796595
  0
VERTEX
  5
130A
  8
0
 10
140.77383611265509
 20
25.623596993775841
 30
0.0
  0
VERTEX
  5
130B
  8
0
 10
133.70276830078981
 20
32.694664805641281
 30
0.0
 42
-0.1989123673796562
  0
VERTEX
  5
130C
  8
0
 10
132.23830220672261
 20
36.230198711573991
 30
0.0
  0
VERTEX
  5
130D
  8
0
 10
132.23830220672261
 20
43.088063087843068
 30
0.0
 42
0.1989123673796595
  0
VERTEX
  5
130E
  8
0
 10
130.77383611265529
 20
46.623596993775813
 30
0.0
  0
VERTEX
  5
130F
  8
0
 10
123.7027683007898
 20
53.69466480564131
 30
0.0
 42
0.1989123673796566
  0
VERTEX
  5
1310
  8
0
 10
120.16723439485691
 20
55.159130899708551
 30
0.0
  0
VERTEX
  5
1311
  8
0
 10
79.309370018588083
 20
55.159130899708551
 30
0.0
 42
0.198912367379658
  0
VERTEX
  5
1312
  8
0
 10
75.773836112655431
 20
53.694664805641253
 30
0.0
  0
VERTEX
  5
1313
  8
0
 10
68.702768300789899
 20
46.623596993775827
 30
0.0
 42
0.198912367379658
  0
VERTEX
  5
1314
  8
0
 10
67.238302206722665
 20
43.088063087843089
 30
0.0
  0
VERTEX
  5
1315
  8
0
 10
67.238302206722665
 20
36.230198711573991
 30
0.0
 42
-0.198912367379658
  0
VERTEX
  5
1316
  8
0
 10
65.773836112655431
 20
32.694664805641253
 30
0.0
  0
VERTEX
  5
1317
  8
0
 10
58.702768300789899
 20
25.623596993775781
 30
0.0
 42
-0.1989123673796582
  0
VERTEX
  5
1318
  8
0
 10
55.167234394857132
 20
24.15913089970854
 30
0.0
  0
VERTEX
  5
1319
  8
0
 10
31.80937001858808
 20
24.15913089970854
 30
0.0
 42
-0.198912367379658
  0
SEQEND
  5
131A
  8
0
  0
CIRCLE
  5
A39
  8
0
 10
59.738302206722778
 20
124.6591308997086
 30
0.0
 40
2.5
  0
CIRCLE
  5
A3A
  8
0
 10
139.73830220672261
 20
124.6591308997086
 30
0.0
 40
2.5
  0
CIRCLE
  5
A3B
  8
0
 10
139.73830220672261
 20
61.659130899708742
 30
0.0
 40
2.5
  0
CIRCLE
  5
A3C
  8
0
 10
59.738302206722658
 20
61.659130899708742
 30
0.0
 40
2.5
  0
POLYLINE
  5
A3D
  8
0
 66
     1
 10
0.0
 20
0.0
 30
0.0
 70
     1
  0
VERTEX
  5
131B
  8
0
 10
96.809370018587984
 20
67.159130899708515
 30
0.0
  0
VERTEX
  5
131C
  8
0
 10
102.667234394857
 20
67.159130899708515
 30
0.0
 42
0.198912367379658
  0
VERTEX
  5
131D
  8
0
 10
106.2027683007897
 20
68.623596993775763
 30
0.0
  0
VERTEX
  5
131E
  8
0
 10
108.2738361126552
 20
70.694664805641253
 30
0.0
 42
0.1989123673796578
  0
VERTEX
  5
131F
  8
0
 10
109.73830220672249
 20
74.230198711573991
 30
0.0
  0
VERTEX
  5
1320
  8
0
 10
109.73830220672249
 20
110.088063087843
 30
0.0
 42
0.1989123673796582
  0
VERTEX
  5
1321
  8
0
 10
108.2738361126552
 20
113.62359699377571
 30
0.0
  0
VERTEX
  5
1322
  8
0
 10
106.2027683007897
 20
115.6946648056412
 30
0.0
 42
0.198912367379658
  0
VERTEX
  5
1323
  8
0
 10
102.667234394857
 20
117.1591308997085
 30
0.0
  0
VERTEX
  5
1324
  8
0
 10
96.80937001858797
 20
117.1591308997085
 30
0.0
 42
0.198912367379658
  0
VERTEX
  5
1325
  8
0
 10
93.273836112655218
 20
115.6946648056412
 30
0.0
  0
VERTEX
  5
1326
  8
0
 10
91.202768300789756
 20
113.62359699377571
 30
0.0
 42
0.198912367379658
  0
VERTEX
  5
1327
  8
0
 10
89.738302206722494
 20
110.088063087843
 30
0.0
  0
VERTEX
  5
1328
  8
0
 10
89.738302206722508
 20
74.230198711573991
 30
0.0
 42
0.198912367379658
  0
VERTEX
  5
1329
  8
0
 10
91.202768300789756
 20
70.694664805641253
 30
0.0
  0
VERTEX
  5
132A
  8
0
 10
93.273836112655246
 20
68.623596993775763
 30
0.0
 42
0.198912367379658
  0
SEQEND
  5
132B
  8
0
  0
ENDSEC
  0
EOF
